<svg id="Layer_11" data-name="Layer 11" xmlns="http://www.w3.org/2000/svg" xmlns:xlink="http://www.w3.org/1999/xlink" viewBox="0 0 1152 720"><defs><linearGradient id="linear-gradient" x1="301.86" y1="505.33" x2="301.86" y2="285.25" gradientUnits="userSpaceOnUse"><stop offset="0" stop-color="#ff483c"/><stop offset="0.4" stop-color="#fe453b"/><stop offset="0.64" stop-color="#fa3d36"/><stop offset="0.84" stop-color="#f42f2e"/><stop offset="1" stop-color="#eb1c24"/></linearGradient><linearGradient id="linear-gradient-2" x1="734.33" y1="525.39" x2="734.33" y2="360.62" xlink:href="#linear-gradient"/><linearGradient id="linear-gradient-3" x1="867.22" y1="455.7" x2="867.22" y2="288" xlink:href="#linear-gradient"/><linearGradient id="linear-gradient-4" x1="439.08" y1="556.67" x2="439.08" y2="351.99" xlink:href="#linear-gradient"/></defs><title>vv</title><rect id="bg" x="-18" y="-18" width="1188" height="756" fill="#ff6b57"/><path d="M1126,749.51l-52.75-146.65h-31.1v-2.11H1143v2.11h-22.36l38.41,110.78h.42l35.87-110.78h-8.55v-2.11h26.69v2.11h-16L1150,749.51Z" fill="#ff614f"/><path d="M1024.9,677V820.41h17.93v2.11l-78.07-.1v-2H982.7V677H949.87v27.07h-2.1V674.88h112.34v29.18H1058V677Z" fill="#ff614f"/><path d="M-49.93,645.9v99H2V747H-68.92v-2.11H-52V601.38H-68.92v-2.11h38L57.68,700.55V601.38H36.37v-2.11H80.89v2.11H59.79V747H38.69Z" fill="#ff614f"/><path d="M145.86,675.14H58.72v2.11H81.43V820.9H48V823H152V820.9H123.68v-57h22.18c35.9,0,52.82-16.9,52.82-44.37s-16.92-44.36-52.82-44.36m-8.45,86.61H123.68v-84.5h13.73c10.57,0,16.9,10.57,16.9,42.25s-6.33,42.25-16.9,42.25" fill="#ff614f"/><path d="M459.23,531.45V674.88h17.93V677l-78.07-.1v-2H417V531.45H384.21v27.07H382.1V529.34H494.45v29.18h-2.11V531.45Z" fill="#ff5848"/><path d="M104.74,424.32v99h51.92v2.11H78.55v-2.11h24.08V379.8H85.75v-2.11h38L212.35,479V379.8H191v-2.11h44.52v2.11h-21.1V525.39h-21.1Z" fill="#ff5848"/><path d="M905.13,651.28c-17.3,0-38.4-9.28-38.83-44.31-39.24-.63-73.84-30.38-73.84-76s35.23-76,74.9-76S943,485.44,943,531s-35.36,75.33-74.6,76c.42,33.34,20.46,42.2,36.71,42.2,11.18,0,23.47-5.69,28.32-18.14a15.7,15.7,0,0,1-11.81,5.48,15.83,15.83,0,1,1,15.82-15.82C937.46,641.79,920.32,651.28,905.13,651.28Zm-37.77-46.42c27,0,29.54-46.42,29.54-73.85s-2.53-73.85-29.54-73.85c-26.59,0-29.54,46.42-29.54,73.85S840.77,604.86,867.36,604.86Z" fill="#ff5848"/><path d="M1066.69,523.08,1049,471.75c-2.75-7.61-9.3-14.58-32.11-17.11,29.57-3.8,38.24-18.38,38.24-37.18,0-27.46-19-40.14-54.93-40.14H929v2.11h13.11V523.08H920.7v2.11h102.43v-2.11H984.31v-67.6h2.53c9.72.42,14.79,5.07,18,16.9l14.36,52.81h69.06v-2.11Zm-72.45-69.71h-9.93V379.43h9.5c10.57,0,16.9,5.28,16.9,37,0,28.94-6.33,37-16.47,37" fill="#ff5848"/><path d="M369.73,771.94V677H348.54v-2.11h72.89V677h-9.5V786.71c0,29.54,10.55,35.87,25.32,35.87s25.32-6.33,25.32-35.87V677h-9.49v-2.11h79.19V677h-27.5v95c0,39-24.26,52.75-67.52,52.75S369.73,811,369.73,771.94Z" fill="#ff5e4d"/><path d="M930.05,791l-17.74-51.34c-2.75-7.6-9.3-14.57-32.11-17.11,29.57-3.8,38.23-18.38,38.23-37.18,0-27.46-19-40.14-54.92-40.14h-94.6v2.12h36.5V791H784.05v2.11h84.44V791H847.66v-67.6h2.54c9.72.42,14.79,5.07,18,16.9l14.36,52.81H948V791Zm-72.46-69.71h-9.93V647.31h9.51c10.56,0,16.9,5.28,16.9,37,0,28.94-6.34,37-16.48,37" fill="#ff5e4d"/><polygon points="37.24 599.29 27.74 599.29 27.74 601.4 97 601.4 97 599.29 79.49 599.29 79.49 455.64 103.4 455.64 103.4 453.52 40.84 453.52 4.71 541.4 4.29 541.4 -36.69 453.52 -92.67 453.52 -92.67 455.64 -75.78 455.64 -75.78 599.29 -92.67 599.29 -92.67 601.4 -53.2 601.4 -53.2 599.29 -73.66 599.29 -73.66 471.9 -20.85 594.01 -14.51 593.79 37.24 468.31 37.24 599.29" fill="#ff5e4d"/><path d="M348.19,677s-6-33.24-47.48-33.24c-10.55,0-14.77,5.69-14.77,14.77,0,38.19,72.8,39,72.8,87.56,0,30-22.58,47.47-62.25,47.47-25.32,0-43.67-15.4-49.58-31.22v31.22H244.8v-42.2h2.11c0,17.94,20,40.09,49.58,40.09,15.83,0,24.27-8.44,24.27-22.15,0-36.93-73.85-33.13-73.85-85.46,0-25.31,19.2-42.27,53.8-42.27,38.15,0,47.48,28.21,47.48,28.21V643.44h2.11V677Z" fill="#ff5e4d"/><path d="M1142.5,602.91c43.31,0,67.6-13.73,67.6-52.81V455h13.15v-2.11h-64.9V455h9.5V564.89c0,29.57-10.56,35.91-25.35,35.91s-25.35-6.34-25.35-35.91V455h9.51v-2.11h-64.9V455h13.14V550.1c0,39.08,24.3,52.81,67.6,52.81" fill="#ff5e4d"/><path d="M724.45,675.21H650.51v2.11H660V821H646.55v2.12h55.72V821h0v-57h22.18c35.9,0,52.81-16.9,52.81-44.37s-16.91-44.36-52.81-44.36M716,761.82H702.27v-84.5H716c10.56,0,16.9,10.56,16.9,42.25s-6.34,42.25-16.9,42.25" fill="#ff5e4d"/><path d="M1051.17,565.36v-1.27c-.85-17.72-18.78-38.82-47.48-38.82-10.55,0-14.77,5.7-14.77,14.77,0,38.19,72.8,39,72.8,87.56,0,30-22.58,47.48-62.25,47.48-25.32,0-43.68-15.4-49.58-31.23v31.23h-2.11v-42.2h2.11c0,17.93,20,40.09,49.58,40.09,15.83,0,24.27-8.44,24.27-22.16,0-36.92-73.85-33.12-73.85-85.45,0-25.32,19.2-42.27,53.8-42.27,24.9,0,41.78,15.26,47.48,31.09V525h2.11v40.4Z" fill="#ff5e4d"/><path d="M339.25,502.45c-17.3,0-38.4-9.28-38.82-44.31-39.25-.63-73.85-30.38-73.85-76s35.23-76,74.9-76,75.66,30.46,75.66,76-35.36,75.33-74.6,76c.42,33.34,20.46,42.2,36.71,42.2,11.18,0,23.47-5.7,28.33-18.14a15.74,15.74,0,0,1-11.82,5.48,15.83,15.83,0,1,1,15.82-15.82C371.58,493,354.44,502.45,339.25,502.45ZM301.48,456c27,0,29.54-46.42,29.54-73.85s-2.53-73.85-29.54-73.85c-26.58,0-29.54,46.42-29.54,73.85S274.9,456,301.48,456Z" fill="url(#linear-gradient)"/><path d="M683.25,424.32v99h51.92v2.11H664.26v-2.11h16.88V379.8h-36.7v-2.11h57.8L790.86,479V379.8H760.92v-2.11h63.3v2.11H793V525.39h-21.1Z" fill="url(#linear-gradient-2)"/><path d="M888.65,307.83h-76v2.11h11.54V453.59H793v2.11h73.5v-2.11h0v-57h22.18c35.9,0,52.81-16.9,52.81-44.36s-16.91-44.36-52.81-44.36m-8.45,86.61H866.47v-84.5H880.2c10.56,0,16.9,10.56,16.9,42.25s-6.34,42.25-16.9,42.25" fill="url(#linear-gradient-3)"/><path d="M501,377.71l-17.75-51.34c-2.74-7.6-9.29-14.57-32.11-17.11,29.58-3.8,38.24-18.38,38.24-37.18,0-27.46-19-40.14-54.93-40.14h-71.2v2.12h13.11V377.71h0v2.11h81.07v-2.11H418.64v-67.6h2.53c9.72.42,14.79,5.07,18,16.9l14.37,52.81h55.74v-2.11ZM428.57,308h-9.93V234.06h9.51c10.56,0,16.9,5.28,16.9,37,0,28.93-6.34,37-16.48,37" fill="#eb1c24"/><path d="M322.77,159H248.84v2.11h9.5V304.76h-9.5v2.11h51.75v-2.11h0v-57h22.18c35.9,0,52.82-16.9,52.82-44.36S358.67,159,322.77,159m-8.45,86.61H300.59v-84.5h13.73c10.57,0,16.9,10.56,16.9,42.25s-6.33,42.25-16.9,42.25" fill="#eb1c24"/><path d="M576.84,457.38c43.3,0,67.6-13.73,67.6-52.82V309.5h13.14v-2.11h-64.9v2.11h9.51V419.35c0,29.58-10.57,35.91-25.35,35.91s-25.35-6.33-25.35-35.91V309.5H561v-2.11h-64.9v2.11h13.15v95.06c0,39.09,24.29,52.82,67.6,52.82" fill="#eb1c24"/><polygon points="770.43 377.71 760.92 377.71 760.92 379.82 824.22 379.82 824.22 377.71 812.68 377.71 812.68 234.06 825.78 234.06 825.78 231.94 774.02 231.94 737.9 319.82 737.47 319.82 696.49 231.94 640.51 231.94 640.51 234.06 657.41 234.06 657.41 377.71 644.43 377.71 644.43 379.82 681.14 379.82 681.14 377.71 659.52 377.71 659.52 250.32 712.34 372.43 718.67 372.21 770.43 246.73 770.43 377.71" fill="#eb1c24"/><path d="M899.43,156c39.67,0,74.91,30.45,74.91,76,0,46-35.24,76-74.91,76s-74.9-30-74.9-76C824.53,186.4,859.77,156,899.43,156Zm0,149.88c27,0,29.54-46.42,29.54-73.85s-2.53-73.85-29.54-73.85c-26.58,0-29.54,46.42-29.54,73.85S872.85,305.83,899.43,305.83Z" fill="#eb1c24"/><path d="M595.88,545.75l-23-27.33v26.72l5.28-.06.07.6-10.33.07-.06-.61,4.43-.06-.06-37.1-4.31.06-.06-.61,9.4-.06,22.91,27.32V508l-5.28.06-.07-.61,11.31-.06.06.61-5.41.06.06,37.71Zm-46.63,0-.06-.61,2.68-.06-.06-37.1-2.56.06-.06-.61,15.12-.06.07.61-2.74.06.06,37.1,2.61-.06.07.6v.07Z" fill="#eb1c24"/><path d="M606.14,507.43V508h-5.35v37.7h-4.91l-23-27.43v26.89h5.35v.54H567.93v-.54h4.37V508h-4.37v-.55h9.34l23,27.44V508H594.9v-.55h11.24m-41.83,0V508h-2.67v37.16h2.67v.54H549.25v-.54h2.62V508h-2.62v-.55h15.06m42-.12H594.77v.79h5.35v26.42l-22.76-27.17,0,0h-9.51v.79h4.36V545h-4.36v.8h10.51V545H573V518.6l22.81,27.16,0,0h5.1V508.1h5.34v-.79Zm-41.82,0H549.12v.79h2.62V545h-2.62v.8h15.32V545h-2.68V508.1h2.68v-.79Z" fill="#eb1c24"/><path d="M642.74,585.45v.73h-5c2-1,5.23-2.32,5.23-4.39,0-2.27-2.11-2.81-3.75-2.81-1.86,0-3,1-3,1.77a.91.91,0,0,0,1,1,.89.89,0,0,0,1-1c0-.47-.31-1-1.2-1a2.51,2.51,0,0,1,1.62-.61c1.1,0,1.88.57,1.88,2.34,0,2.39-1.72,4.08-4.26,5.39v1.4h6.67v-2.84Zm-45.46-6v8.68h-1v.13h4.42v-.13h-1v-9.1h-.13a17.47,17.47,0,0,1-3.25.29v.13Zm-41.39,4.22c0-1.81.14-4.59,1.29-4.59s1.3,2.78,1.3,4.59-.12,4.59-1.3,4.59-1.29-2.78-1.29-4.59m-2.52,0c0,2.82,1.34,4.72,3.81,4.72s3.82-1.9,3.82-4.72-1.34-4.72-3.82-4.72-3.81,1.93-3.81,4.72m-35.91,1.75v.73h-5c2-1,5.22-2.32,5.22-4.39,0-2.27-2.11-2.81-3.74-2.81-1.86,0-3,1-3,1.77a.91.91,0,0,0,1,1,.89.89,0,0,0,1-1c0-.47-.32-1-1.21-1a2.51,2.51,0,0,1,1.63-.61c1.1,0,1.87.57,1.87,2.34,0,2.39-1.72,4.08-4.26,5.39v1.4h6.67v-2.84Z" fill="#eb1c24" stroke="#eb1c24" stroke-miterlimit="10" stroke-width="0.13"/><path d="M632.65,569.84h.29l.2-1A9.91,9.91,0,0,0,638,570c3.44,0,5.64-1.71,5.64-4.59,0-4.81-7.32-4.69-7.32-8.56a1.5,1.5,0,0,1,1.71-1.65c1.64,0,3.24,1.15,4.6,4.44h.2v-4.54h-.2l-.46,1A8.15,8.15,0,0,0,638,555c-3.33,0-5.14,1.64-5.14,4.08,0,5.12,7.4,4.6,7.4,8.37,0,1.46-.91,2.34-2.58,2.34-2.31,0-3.76-1.71-4.87-4.44h-.2Zm-12.52-7.39c0-2.88.58-7.3,3.33-7.3s3.33,4.42,3.33,7.3-.54,7.29-3.33,7.29-3.33-4.42-3.33-7.29m-4,0a7.33,7.33,0,1,0,7.33-7.5,7.27,7.27,0,0,0-7.33,7.5m-13-7.3V559h.21l2.79-3.67h1v14.17h-1.9v.21h7.5v-.21h-1.88V555.36h1l2.79,3.67H615v-3.88Zm-5.45,0v.21h2v10.25L591,555.15h-3.56v.21h1.67v14.17h-1.67v.21h3.91v-.21h-2V559.28l8.79,10.46H600V555.36h2v-.21Zm-22.86,10.38,2.38-7.29h0l2.54,7.29Zm10.54,4-5.21-14.48h-2.12l-4.7,14.48h-1.59v.21h4.42v-.21h-2.63l1.23-3.79h5.1l1.31,3.79h-1.43v.21h6.63v-.21Zm-24.84.31h.29l.21-1a9.86,9.86,0,0,0,4.87,1.13c3.43,0,5.64-1.71,5.64-4.59,0-4.81-7.33-4.69-7.33-8.56a1.5,1.5,0,0,1,1.71-1.65c1.64,0,3.25,1.15,4.6,4.44h.21v-4.54h-.21l-.46,1A8.13,8.13,0,0,0,566,555c-3.33,0-5.14,1.64-5.14,4.08,0,5.12,7.41,4.6,7.41,8.37,0,1.46-.92,2.34-2.58,2.34-2.31,0-3.77-1.71-4.87-4.44h-.21Zm-18.17,0h.29l.21-1a9.86,9.86,0,0,0,4.87,1.13c3.43,0,5.64-1.71,5.64-4.59,0-4.81-7.33-4.69-7.33-8.56a1.5,1.5,0,0,1,1.71-1.65c1.65,0,3.25,1.15,4.6,4.44h.21v-4.54h-.21l-.46,1a8.13,8.13,0,0,0-4.14-1.06c-3.33,0-5.14,1.64-5.14,4.08,0,5.12,7.41,4.6,7.41,8.37,0,1.46-.92,2.34-2.58,2.34-2.31,0-3.77-1.71-4.87-4.44h-.21Zm-12.51-7.39c0-2.88.58-7.3,3.33-7.3s3.33,4.42,3.33,7.3-.54,7.29-3.33,7.29-3.33-4.42-3.33-7.29m-4,0a7.33,7.33,0,1,0,7.33-7.5,7.26,7.26,0,0,0-7.33,7.5m-11.19-7.09h2.15c2.79,0,3.33,4.21,3.33,7.09s-.54,7.08-3.33,7.08h-2.15ZM510,569.74h6.87a7.3,7.3,0,1,0,0-14.59H510v.21h1v14.17h-1Z" fill="#ffa487" stroke="#ffa487" stroke-miterlimit="10" stroke-width="0.13"/><path d="M618.06,526.55c0-7.55,1.53-19.13,8.73-19.13s8.74,11.58,8.74,19.13-1.42,19.12-8.74,19.12-8.73-11.58-8.73-19.12m-10.48,0c0,11.85,8.95,19.67,19.21,19.67S646,538.4,646,526.55s-9-19.68-19.22-19.68-19.21,7.93-19.21,19.68" fill="#ffa487" stroke="#ffa487" stroke-miterlimit="10" stroke-width="0.13"/><path d="M508.26,545.73l-.06-.61,2.68-.06L510.82,508l-2.56.06-.06-.61,18.08-.06a18.81,18.81,0,0,1,19.27,19.19c0,11.11-8.1,19.18-19.27,19.18Zm12.46-.61,5.56-.06c7.82,0,8.67-12.95,8.67-18.51S534.1,508,526.28,508h-5.56Z" fill="#ffa487"/><path d="M526.28,507.42c10.37,0,19.21,7.49,19.21,19.13s-8.84,19.12-19.21,19.12h-18v-.55h2.62V508h-2.62v-.55h18m-5.63,37.7h5.63c7.31,0,8.73-11,8.73-18.57S533.59,508,526.28,508h-5.63v37.15m5.63-37.83H508.14v.8h2.62V545h-2.62v.8h18.14a19.63,19.63,0,0,0,13.58-5.2,18.78,18.78,0,0,0,5.75-14.05,19,19,0,0,0-5.75-14,19.56,19.56,0,0,0-13.58-5.24Zm-5.5.8h5.5c7.77,0,8.6,12.91,8.6,18.46s-.83,18.45-8.6,18.45h-5.5V508.09Z" fill="#ffa487"/><path d="M565.4,498.27a7.41,7.41,0,0,1,0-14.82,8,8,0,0,1,3.92,1.07l.47-1,.26,0,.06,4.6-.27.06c-1.26-2.94-2.7-4.35-4.44-4.35-2.85,0-3.16,5-3.16,7.08,0,2.65.46,7.08,3.53,7.08a1,1,0,0,0,.77-.35l0-6.09-1.28.06-.07-.27,5.63-.06.06.27-.81.06.06,6.63-.27.06-.6-1.07A7.4,7.4,0,0,1,565.4,498.27Zm-21.57,0a9.69,9.69,0,0,1-4.73-1.07l-.19.92-.34.05-.06-4.51.26-.06c1.25,3,2.75,4.34,4.77,4.34,1.57,0,2.47-.81,2.47-2.22,0-1.67-1.55-2.47-3.18-3.33-1.91-1-4.08-2.13-4.08-4.87,0-2.55,1.91-4.07,5.1-4.07a8.22,8.22,0,0,1,4.09,1.05l.36-.91.26,0,.06,4.51-.27.06c-1.25-2.94-2.7-4.35-4.5-4.35a1.4,1.4,0,0,0-1.61,1.55c0,1.76,1.59,2.67,3.26,3.63,1.93,1.1,3.91,2.24,3.91,4.76C549.41,496.53,547.27,498.27,543.83,498.27Zm94.09-.2-.06-.27,1.06-.06-.06-5.79-4.26-8-1,0-.07-.27,7.22-.06.07.26-1.92.06,3.58,6.83,2.91-6.82h-2.13l-.06-.27,4-.06.07.26-1.53.07-3,7.16v6.65l.94-.06.06.27v.06Zm-16.48,0-.06-.27,1-.06-.06-13.82-.92.07-.06-.27,7-.06c4.06,0,4.66,2.34,4.66,3.73a3.1,3.1,0,0,1-2.86,3.27c2.15.47,3.48,1.84,3.48,3.65,0,2.28-2.06,3.76-5.24,3.76Zm4.69-.27,1.19-.06c1.6,0,2.38-1.12,2.38-3.43s-.8-3.49-2.38-3.49h-1.19Zm0-7.24,1.14-.06c1.29,0,1.82-.9,1.82-3.11s-.59-3.4-1.82-3.4h-1.14Zm-25.52,7.51-.06-.27,1-.06-.06-13.82-.92.07-.06-.27,6.79-.06a7.07,7.07,0,0,1,7.24,7.2,7,7,0,0,1-7.24,7.21Zm4.69-.27,2-.06c2.88,0,3.2-4.81,3.2-6.88s-.32-6.87-3.2-6.87h-2Zm-17.63.27-.06-.27,1-.06-.06-13.82-.92.07-.06-.27,10.91-.06.06,3.86-.27.06L596.22,484l-3.92,0,.06,6.57,2.24-.06,1.4-2.32.26,0,.06,5-.27.06-1.5-2.38-2.25,0,.06,7,4.12-.06,2-3.56.26,0,.06,3.92Zm-5.23,0-8.54-10.14v9.87l1.94-.06.06.27-3.9.06-.06-.27,1.69-.06-.06-13.82L572,484l-.06-.27,3.55-.06L584,493.79v-9.87l-1.93.07-.07-.27,4.26-.06.07.26-2.06.07.06,14.08Zm-31.37,0-.06-.27,1-.06L552,483.92l-.92.07-.06-.27,5.69-.06.06.26-1.06.07.06,13.81.94-.06.06.27v.06Zm-25.82,0-.06-.27,1-.06-.06-13.82-.92.07-.06-.27,10.91-.06.06,3.86-.27.06L533.8,484l-3.92,0,.06,6.57,2.24-.06,1.4-2.32.25,0,.07,5-.27.06-1.5-2.38-2.25,0,.06,7,4.12-.06,2-3.56.26,0,.06,3.92Zm-15.51,0-.06-.27,1-.06-.06-13.82-.92.07-.06-.27,6.79-.06a7.06,7.06,0,0,1,7.24,7.2,7,7,0,0,1-7.24,7.21Zm4.69-.27,2-.06c2.89,0,3.2-4.81,3.2-6.88s-.31-6.87-3.2-6.87h-2Z" fill="#ffa487"/><path d="M565.4,483.52a7.85,7.85,0,0,1,3.89,1.06l.55-1h.21v4.53h-.21c-1.38-3.33-3-4.35-4.44-4.35-2.71,0-3.22,4.33-3.22,7.14s.53,7.15,3.59,7.15a1.1,1.1,0,0,0,.81-.37V491.5h-1.34v-.21h5.56v.21h-.75v6.69h-.21l-.55-1a7.85,7.85,0,0,1-3.89,1.06,7.35,7.35,0,0,1,0-14.69m-21.55,0a8,8,0,0,1,4,1l.45-.94h.21v4.45h-.21c-1.32-3.23-2.89-4.35-4.5-4.35a1.46,1.46,0,0,0-1.67,1.61c0,3.8,7.17,3.68,7.17,8.39,0,2.82-2.16,4.49-5.52,4.49a9.62,9.62,0,0,1-4.77-1.1l-.21,1h-.28v-4.45h.2c1.08,2.67,2.51,4.35,4.77,4.35,1.63,0,2.53-.86,2.53-2.29,0-3.69-7.26-3.18-7.26-8.2,0-2.39,1.78-4,5-4m103.28.2v.2h-1.46l-3.1,7.21v6.67h1V498h-5.65v-.21h1v-5.86l-4.26-8h-1.08v-.2h7.15v.2h-2l3.62,6.92h.05l3-6.92h-2.22v-.2h3.89m-18.76,0c3.39,0,4.61,1.63,4.61,3.67,0,1.72-.87,2.94-3.16,3.27,2.47.41,3.77,1.92,3.77,3.65,0,2-1.79,3.7-5.17,3.7h-7v-.21h1V483.92h-1v-.2h6.93m-2.3,6.84h1.2c1.25,0,1.88-.8,1.88-3.17s-.63-3.47-1.88-3.47h-1.2v6.64m0,7.24h1.25c1.61,0,2.44-1.12,2.44-3.49s-.83-3.55-2.44-3.55h-1.25v7m-18.73-14.08a7.15,7.15,0,1,1,0,14.29h-6.73v-.21h1V483.92h-1v-.2h6.73m-2.1,14.08h2.1c2.73,0,3.26-4.12,3.26-6.94s-.53-6.94-3.26-6.94h-2.1V497.8m-6.72-14.08v3.8h-.21l-2-3.6h-4v6.64h2.3l1.45-2.35h.21v4.9h-.21l-1.45-2.35h-2.3v7h4.18l2-3.59h.2V498H587.67v-.21h1V483.92h-1v-.2h10.85m-12.25,0v.2h-2V498h-1.84l-8.6-10.25v10h2V498H572v-.21h1.63V483.92H572v-.2h3.49L584.07,494V483.92h-2v-.2h4.2m-29.57,0v.2h-1V497.8h1V498h-5.63v-.21h1V483.92h-1v-.2h5.63m-20.6,0v3.8h-.21l-2-3.6h-4v6.64h2.3l1.45-2.35h.2v4.9h-.2l-1.45-2.35h-2.3v7h4.18l2-3.59h.2V498h-11v-.21h1V483.92h-1v-.2H536.1m-19.63,0a7.15,7.15,0,1,1,0,14.29h-6.73v-.21h1V483.92h-1v-.2h6.73m-2.1,14.08h2.1c2.73,0,3.26-4.12,3.26-6.94s-.53-6.94-3.26-6.94h-2.1V497.8m51-14.41a7.48,7.48,0,0,0,0,14.95,8,8,0,0,0,3.84-1l.49.93,0,.06h.4v-6.69h.76v-.45h-5.82v.45h1.35v6a1,1,0,0,1-.69.29c-3,0-3.47-4.4-3.47-7,0-2.11.31-7,3.1-7,1.71,0,3.13,1.39,4.33,4.27l0,.07h.41v-4.78h-.4l0,.07-.49.92a8,8,0,0,0-3.84-1Zm-21.55,0c-3.18,0-5.16,1.58-5.16,4.13,0,2.77,2.18,3.92,4.11,4.92,1.62.85,3.15,1.65,3.15,3.28,0,1.37-.88,2.16-2.41,2.16-2,0-3.47-1.36-4.65-4.27l0-.08h-.42v4.7H539l0-.1.17-.83a9.76,9.76,0,0,0,4.68,1c3.48,0,5.65-1.77,5.65-4.62,0-2.56-2-3.7-3.94-4.81-1.67-1-3.24-1.86-3.24-3.58,0-1,.52-1.48,1.55-1.48,1.77,0,3.21,1.39,4.39,4.26l0,.08h.41v-4.7h-.41l0,.07-.39.82a8.26,8.26,0,0,0-4-1Zm103.41.21h-4.14v.45h2.15l-2.85,6.55L639,484.05h1.88v-.45h-7.41v.45h1.13l4.21,7.93v5.7h-1v.45h5.9v-.45h-1v-6.53l3.06-7.1h1.51v-.45Zm-18.89,0h-7v.45h1v13.63h-1v.45h7.1c3.22,0,5.3-1.5,5.3-3.82,0-1.76-1.23-3.12-3.26-3.64a3.11,3.11,0,0,0,2.65-3.28c0-1.42-.62-3.79-4.74-3.79Zm-2.17.45h1.07c1.18,0,1.76,1.09,1.76,3.34,0,2.67-.85,3-1.76,3H626.2v-6.38Zm0,6.84h1.12c1.54,0,2.32,1.15,2.32,3.42s-.76,3.37-2.32,3.37H626.2v-6.79Zm-18.86-7.29h-6.86v.45h1v13.63h-1v.45h6.86a7,7,0,0,0,7.3-7.27,7.12,7.12,0,0,0-7.3-7.26Zm-2,.45h2c2.83,0,3.13,4.76,3.13,6.81s-.3,6.82-3.13,6.82h-2V484.05Zm-6.72-.45H587.55v.45h1v13.63h-1v.45h11.3v-4h-.4l0,.06-2,3.53h-4v-6.79h2.1l1.41,2.28,0,.06h.4v-5.15H596l0,.06-1.41,2.29h-2.1v-6.38h3.77l2,3.53,0,.06h.4v-4Zm-12.24,0H582v.45h2v9.57l-8.36-10,0,0h-3.67v.45h1.63v13.63h-1.63v.45H576v-.45h-2V488.1l8.39,10,0,0h2V484.05h2v-.45Zm-29.58,0H551v.45h1v13.63h-1v.45h5.87v-.45h-1V484.05h1v-.45Zm-20.6,0H525.13v.45h1v13.63h-1v.45h11.3v-4H536l0,.06-2,3.53h-4v-6.79h2.11l1.41,2.28,0,.06h.4v-5.15h-.4l0,.06-1.41,2.29H530v-6.38h3.78l2,3.53,0,.06h.4v-4Zm-19.75,0h-6.85v.45h1v13.63h-1v.45h6.85a7,7,0,0,0,7.3-7.27,7.12,7.12,0,0,0-7.3-7.26Zm-2,.45h2c2.83,0,3.14,4.76,3.14,6.81s-.31,6.82-3.14,6.82h-2V484.05Z" fill="#ffa487"/><path d="M485.5,420v-1.26c-.85-17.73-18.78-38.83-47.48-38.83-10.55,0-14.77,5.7-14.77,14.77,0,38.19,72.8,39,72.8,87.57,0,30-22.58,47.47-62.25,47.47-25.32,0-43.67-15.4-49.58-31.23V529.7h-2.11V487.5h2.11c0,17.94,20,40.09,49.58,40.09,15.83,0,24.27-8.44,24.27-22.15,0-36.93-73.85-33.13-73.85-85.46,0-25.32,19.2-42.27,53.8-42.27,24.9,0,41.78,15.26,47.48,31.09V379.58h2.11V420Z" fill="url(#linear-gradient-4)"/><path d="M732.81,523.3c39.67,0,74.9,30.46,74.9,76,0,46-35.23,76-74.9,76s-74.91-30-74.91-76C657.9,553.76,693.14,523.3,732.81,523.3Zm0,149.88c27,0,29.54-46.42,29.54-73.85s-2.53-73.85-29.54-73.85c-26.59,0-29.54,46.42-29.54,73.85S706.22,673.18,732.81,673.18Z" fill="#ff5848"/><path d="M154.3,523.3c39.66,0,74.9,30.46,74.9,76,0,46-35.24,76-74.9,76s-74.91-30-74.91-76C79.39,553.76,114.63,523.3,154.3,523.3Zm0,149.88c27,0,29.54-46.42,29.54-73.85s-2.54-73.85-29.54-73.85c-26.59,0-29.54,46.42-29.54,73.85S127.71,673.18,154.3,673.18Z" fill="#ff5e4d"/><path d="M559.87,759.47,507.12,612.83h-9.49v-2.11h70.68v2.11H554.6L593,723.6h.42l35.87-110.77H602.07v-2.11h45.37v2.11h-16L583.93,759.47Z" fill="#ff5848"/></svg>