<svg id="scan" xmlns="http://www.w3.org/2000/svg" viewBox="0 0 576 576"><title>Artboard 1</title><rect id="bg" x="-0.19" width="576" height="576" fill="#ff4633"/><path d="M291.56,72.23C172.4,72.23,75.79,168.83,75.79,288c0,116.77,92.76,211.88,208.61,215.65V328.73a21.59,21.59,0,0,1-36,0V455.37a172.86,172.86,0,0,1,0-334.74h0a173.42,173.42,0,0,1,36-5.28h.26c1.06,0,2.11-.08,3.18-.1,1.23,0,2.48,0,3.72,0h.85c.95,0,1.91,0,2.86,0a172.47,172.47,0,0,1,49.79,8.39l.15,0a172.85,172.85,0,0,1,0,328.62l-.15.05c-3.37,1.09-6.8,2.08-10.26,3V208.8a36,36,0,0,0,0-72c-19.88,0-36,13.08-36,41.7V503.65c115.82-3.82,208.53-98.9,208.53-215.65C507.33,168.83,410.73,72.23,291.56,72.23Z" fill="#f2c591"/><path d="M273.65,273.6v39.6a7.25,7.25,0,0,1-14.5,0V273.6H248.4v39.6a18,18,0,0,0,36,0V273.6Z" fill="#f2c591"/><circle cx="183.6" cy="291.6" r="18" fill="#f2c591"/><path d="M169.2,331.2H180V316.54a24.89,24.89,0,0,1-10.8-4.26Z" fill="#f2c591"/><circle cx="157.75" cy="279" r="5.4" fill="#f2c591"/><circle cx="223.2" cy="316.8" r="14.4" fill="#f2c591"/><path d="M252,284.4V273.6H216a10.81,10.81,0,0,0-10.8,10.8,10.66,10.66,0,0,0,.21,2.12A10.81,10.81,0,0,0,216,295.2h7.2a21.56,21.56,0,0,1,18,9.74A26.12,26.12,0,0,0,216,284.41h36Z" fill="#f2c591"/></svg>