<?xml version="1.0" encoding="UTF-8"?>
<svg xmlns="http://www.w3.org/2000/svg" xmlns:xlink="http://www.w3.org/1999/xlink" version="1.2" >
<font id="Rational TW Text Medium">
<font-face  font-family="Rational TW Text" units-per-em="1000" ascent="771" descent="-229" font-style="normal" font-weight="400" font-stretch="normal" cap-height="700" x-height="504" underline-position="-75" underline-thickness="50" />
<missing-glyph  horiz-adv-x="660" d="M80 0 L580 0 L580 700 L80 700 L80 0 Z M137 57 L137 643 L523 643 L523 57 L137 57 Z M328 496 C363 496 385 476 385 443 C385 415 373 403 336 384 L293 363 L296 275 L354 275 L357 329 L359 330 C418 357 456 388 456 445 C456 513 406 556 327 556 C248 556 194 509 193 432 L264 432 C265 472 289 496 328 496 L328 496 Z M369 155 L369 233 L279 233 L279 155 L369 155 Z " />
<glyph glyph-name="space" unicode="&#x20;" horiz-adv-x="660" d="" />
<glyph glyph-name="exclam" unicode="&#x21;" horiz-adv-x="660" d="M378 225 L394 700 L265 700 L283 225 L378 225 Z M405 0 L405 138 L255 138 L255 0 L405 0 Z " />
<glyph glyph-name="quotedbl" unicode="&#x22;" horiz-adv-x="660" d="M262 390 L292 700 L148 700 L178 390 L262 390 Z M481 390 L511 700 L368 700 L398 390 L481 390 Z " />
<glyph glyph-name="numbersign" unicode="&#x23;" horiz-adv-x="660" d="M616 518 L521 518 L560 700 L459 700 L420 518 L302 518 L341 700 L240 700 L201 518 L87 518 L87 427 L182 427 L148 269 L39 269 L39 178 L128 178 L90 0 L191 0 L229 178 L347 178 L309 0 L410 0 L448 178 L568 178 L568 269 L468 269 L502 427 L616 427 L616 518 Z M249 269 L283 427 L401 427 L367 269 L249 269 Z " />
<glyph glyph-name="dollar" unicode="&#x24;" horiz-adv-x="660" d="M581 216 C581 267 560 306 537 329 C526 340 509 351 488 360 C441 379 427 382 374 393 L375 574 C428 562 457 525 463 462 L574 462 C567 583 501 652 376 668 L377 800 L282 800 L283 669 C163 657 90 588 90 489 C90 430 111 388 152 363 C193 338 225 327 284 315 L283 135 C220 150 186 196 181 271 L68 271 C79 135 150 58 283 40 L282 -102 L377 -102 L376 37 C503 46 581 116 581 216 L581 216 Z M203 491 C203 535 233 565 284 576 L285 414 C221 434 203 452 203 491 L203 491 Z M375 295 C443 276 467 256 467 211 C467 168 432 138 376 130 L375 295 Z " />
<glyph glyph-name="percent" unicode="&#x25;" horiz-adv-x="660" d="M313 441 C345 470 361 507 361 552 C361 597 345 634 313 664 C281 694 241 709 194 709 C147 709 107 694 76 664 C45 634 29 597 29 552 C29 507 45 470 76 441 C107 411 147 396 194 396 C241 396 281 411 313 441 L313 441 Z M194 471 C150 471 116 507 116 552 C116 599 150 634 194 634 C239 634 274 599 274 552 C274 505 239 471 194 471 L194 471 Z M624 513 L590 563 L47 195 L80 142 L624 513 Z M584 35 C615 64 631 101 631 146 C631 191 615 228 584 258 C552 288 512 303 465 303 C418 303 378 288 347 258 C315 228 299 191 299 146 C299 101 315 64 347 35 C378 5 418 -10 465 -10 C512 -10 552 5 584 35 L584 35 Z M409 88 C379 119 379 173 409 205 C439 236 492 236 522 205 C552 173 552 119 522 88 C492 56 439 56 409 88 L409 88 Z " />
<glyph glyph-name="ampersand" unicode="&#x26;" horiz-adv-x="660" d="M531 141 C568 203 587 275 587 357 L479 357 C479 308 472 264 458 223 L331 361 C436 417 482 471 482 547 C482 644 405 711 293 711 C237 711 191 696 156 665 C121 634 103 595 103 547 C103 496 128 440 179 380 C91 331 40 277 40 190 C40 129 61 81 104 44 C146 7 201 -11 269 -11 C344 -11 409 13 465 62 L521 0 L660 0 L531 141 L531 141 Z M297 622 C346 622 379 591 379 543 C379 491 346 466 271 427 C232 471 212 509 212 542 C212 590 246 622 297 622 L297 622 Z M283 87 C203 87 147 130 147 199 C147 244 177 282 238 315 L401 133 C368 102 329 87 283 87 L283 87 Z " />
<glyph glyph-name="quotesingle" unicode="&#x27;" horiz-adv-x="660" d="M288 390 L373 390 L403 700 L258 700 L288 390 Z " />
<glyph glyph-name="parenleft" unicode="&#x28;" horiz-adv-x="660" d="M370 780 C223 661 149 518 149 349 C149 158 223 4 370 -115 L509 -115 C350 0 258 157 258 349 C258 516 342 660 509 780 L370 780 Z " />
<glyph glyph-name="parenright" unicode="&#x29;" horiz-adv-x="660" d="M151 780 C318 660 402 516 402 349 C402 157 310 0 151 -115 L290 -115 C437 4 511 158 511 349 C511 518 437 661 290 780 L151 780 L151 780 Z " />
<glyph glyph-name="asterisk" unicode="&#x2a;" horiz-adv-x="660" d="M483 658 L365 620 L372 743 L288 743 L295 619 L177 658 L155 575 L263 552 L189 455 L259 407 L330 519 L401 407 L471 455 L397 552 L505 575 L483 658 Z " />
<glyph glyph-name="plus" unicode="&#x2b;" horiz-adv-x="660" d="M376 390 L376 587 L283 587 L283 390 L81 390 L81 301 L283 301 L283 104 L376 104 L376 301 L578 301 L578 390 L376 390 Z " />
<glyph glyph-name="comma" unicode="&#x2c;" horiz-adv-x="660" d="M328 -145 L418 135 L259 135 L249 -145 L328 -145 Z " />
<glyph glyph-name="hyphen" unicode="&#x2d;" horiz-adv-x="660" d="M178 231 L482 231 L482 331 L178 331 L178 231 Z " />
<glyph glyph-name="period" unicode="&#x2e;" horiz-adv-x="660" d="M405 0 L405 145 L255 145 L255 0 L405 0 Z " />
<glyph glyph-name="slash" unicode="&#x2f;" horiz-adv-x="660" d="M227 0 L534 700 L445 700 L137 0 L227 0 Z " />
<glyph glyph-name="zero" unicode="0" horiz-adv-x="660" d="M130 519 C78 461 52 387 52 296 C52 206 78 133 130 76 C181 19 248 -10 330 -10 C412 -10 479 19 531 76 C582 133 608 206 608 296 C608 387 582 461 531 519 C479 576 412 605 330 605 C248 605 181 576 130 519 L130 519 Z M330 508 C379 508 418 489 447 451 L180 214 C173 237 170 264 170 296 C170 425 230 508 330 508 L330 508 Z M330 87 C277 87 236 108 207 151 L477 390 C486 364 490 333 490 296 C490 168 430 87 330 87 L330 87 Z " />
<glyph glyph-name="one" unicode="1" horiz-adv-x="660" d="M409 591 L348 591 L102 515 L102 395 L295 478 L295 97 L77 97 L77 0 L613 0 L613 97 L409 97 L409 591 Z " />
<glyph glyph-name="two" unicode="2" horiz-adv-x="660" d="M341 146 C412 185 452 211 498 254 C544 297 566 347 566 406 C566 465 544 513 501 550 C458 587 400 605 327 605 C179 605 86 521 81 373 L198 373 C200 463 243 508 326 508 C406 508 449 466 449 402 C449 362 434 328 402 297 C370 266 348 250 303 221 L91 84 L91 0 L573 0 L573 97 L258 97 L341 146 Z " />
<glyph glyph-name="three" unicode="3" horiz-adv-x="660" d="M571 498 L571 590 L85 590 L85 487 L429 487 L213 274 L242 204 L325 204 C412 204 465 159 465 94 C465 30 407 -20 334 -20 C255 -20 195 35 191 108 L72 108 C73 43 99 -12 149 -55 C199 -98 261 -120 334 -120 C405 -120 465 -100 512 -60 C559 -19 583 33 583 96 C583 205 504 277 361 289 L571 498 Z " />
<glyph glyph-name="four" unicode="4" horiz-adv-x="660" d="M495 121 L495 383 L391 383 L380 121 L178 121 C271 288 330 441 354 579 L235 579 C207 428 144 265 47 90 L61 24 L380 24 L380 -121 L495 -121 L495 24 L603 24 L603 121 L495 121 Z " />
<glyph glyph-name="five" unicode="5" horiz-adv-x="660" d="M371 345 C296 345 239 320 202 271 L213 490 L563 490 L563 590 L117 590 L98 211 L198 181 C233 228 280 251 340 251 C423 251 478 199 478 115 C478 34 422 -21 339 -21 C262 -21 205 28 197 101 L75 101 C82 33 109 -21 158 -61 C206 -100 267 -120 340 -120 C417 -120 480 -99 527 -56 C574 -13 598 45 598 117 C598 186 577 241 535 283 C493 324 438 345 371 345 L371 345 Z " />
<glyph glyph-name="six" unicode="6" horiz-adv-x="660" d="M363 456 C270 456 206 416 172 337 C177 522 243 610 350 610 C416 610 457 581 472 522 L594 522 C584 567 565 605 537 634 C481 693 418 709 345 709 C261 709 193 677 141 614 C89 551 63 460 63 342 C63 230 86 144 133 83 C181 22 251 -8 342 -8 C419 -8 481 14 529 57 C576 100 600 156 600 225 C600 292 578 348 533 391 C488 434 432 456 363 456 L363 456 Z M345 89 C258 89 200 148 200 229 C200 310 259 364 342 364 C427 364 480 307 480 224 C480 143 428 89 345 89 L345 89 Z " />
<glyph glyph-name="seven" unicode="7" horiz-adv-x="660" d="M78 487 L471 487 C311 336 231 141 231 -98 L231 -109 L363 -109 C363 146 441 349 598 502 L598 591 L78 591 L78 487 Z " />
<glyph glyph-name="eight" unicode="8" horiz-adv-x="660" d="M442 376 C526 400 568 456 568 525 C568 580 546 625 501 660 C456 694 399 711 330 711 C261 711 205 694 160 660 C115 625 92 580 92 525 C92 456 132 400 217 376 C118 348 70 279 70 195 C70 135 95 86 144 48 C193 9 255 -10 330 -10 C405 -10 468 9 517 48 C566 86 590 135 590 195 C590 279 541 349 442 376 L442 376 Z M415 592 C437 573 448 548 448 518 C448 461 407 415 330 415 C253 415 212 461 212 518 C212 548 223 573 246 592 C268 611 296 620 330 620 C364 620 392 611 415 592 L415 592 Z M232 118 C206 141 193 169 193 203 C193 274 243 327 330 327 C417 327 467 274 467 203 C467 169 454 141 429 118 C403 95 370 84 330 84 C290 84 257 95 232 118 L232 118 Z " />
<glyph glyph-name="nine" unicode="9" horiz-adv-x="660" d="M530 509 C482 570 412 600 321 600 C244 600 182 579 135 536 C87 493 63 436 63 367 C63 300 85 244 130 201 C175 158 231 136 300 136 C393 136 457 176 491 255 C486 70 420 -18 313 -18 C247 -18 206 11 191 70 L69 70 C79 25 98 -13 126 -42 C182 -101 245 -117 318 -117 C402 -117 470 -85 522 -22 C574 41 600 132 600 250 C600 362 577 448 530 509 L530 509 Z M321 228 C236 228 183 285 183 368 C183 449 235 503 318 503 C405 503 463 444 463 363 C463 282 404 228 321 228 L321 228 Z " />
<glyph glyph-name="colon" unicode="&#x3a;" horiz-adv-x="660" d="M405 359 L405 504 L255 504 L255 359 L405 359 Z M405 0 L405 145 L255 145 L255 0 L405 0 Z " />
<glyph glyph-name="semicolon" unicode="&#x3b;" horiz-adv-x="660" d="M409 359 L409 504 L259 504 L259 359 L409 359 Z M318 -145 L409 135 L257 135 L240 -145 L318 -145 Z " />
<glyph glyph-name="less" unicode="&#x3c;" horiz-adv-x="660" d="M75 386 L75 296 L564 101 L564 206 L171 342 L564 484 L564 589 L75 386 Z " />
<glyph glyph-name="equal" unicode="&#x3d;" horiz-adv-x="660" d="M81 408 L578 408 L578 491 L81 491 L81 408 Z M81 193 L578 193 L578 276 L81 276 L81 193 Z " />
<glyph glyph-name="greater" unicode="&#x3e;" horiz-adv-x="660" d="M96 484 L489 342 L96 206 L96 101 L585 296 L585 386 L96 589 L96 484 Z " />
<glyph glyph-name="question" unicode="&#x3f;" horiz-adv-x="660" d="M336 711 C197 711 103 638 99 502 L214 502 C217 575 262 616 338 616 C407 616 449 577 449 514 C449 459 419 425 352 392 L280 355 L286 212 L377 212 L383 305 L394 311 C449 339 473 354 510 387 C547 419 564 461 564 514 C564 573 543 620 501 657 C459 693 404 711 336 711 L336 711 Z M404 0 L404 138 L254 138 L254 0 L404 0 Z " />
<glyph glyph-name="at" unicode="&#x40;" horiz-adv-x="660" d="M290 448 C209 448 156 375 156 271 C156 218 168 175 192 140 C215 105 246 88 285 88 C334 88 365 110 380 155 L383 155 C390 116 426 88 478 88 C574 88 640 166 640 318 C640 412 612 488 557 546 C501 604 428 633 339 633 C240 633 161 601 103 536 C44 471 15 383 15 272 C15 163 44 77 103 14 C161 -50 240 -82 340 -82 C425 -82 498 -56 559 -5 L559 79 C500 9 426 -26 338 -26 C258 -26 195 1 148 55 C101 108 77 181 77 274 C77 367 101 441 148 496 C195 550 259 577 340 577 C411 577 469 552 513 503 C557 454 579 389 579 309 C579 209 554 157 514 157 C489 157 481 179 481 228 L481 441 L379 441 L380 398 L378 398 C358 431 329 448 290 448 L290 448 Z M381 273 C382 204 357 171 318 171 C277 171 256 204 256 271 C256 339 277 373 318 373 C355 373 381 341 381 277 L381 273 Z " />
<glyph glyph-name="A" unicode="A" horiz-adv-x="660" d="M621 0 L404 700 L256 700 L39 0 L160 0 L203 148 L457 148 L500 0 L621 0 Z M330 581 L428 247 L232 247 L330 581 Z " />
<glyph glyph-name="B" unicode="B" horiz-adv-x="660" d="M439 361 C530 390 575 443 575 520 C575 574 554 618 513 651 C472 684 417 700 350 700 L84 700 L84 0 L357 0 C504 0 597 74 597 194 C597 284 544 340 439 361 L439 361 Z M333 601 C409 601 454 565 454 504 C454 443 411 403 332 403 L205 403 L205 601 L333 601 Z M205 99 L205 308 L338 308 C426 308 476 267 476 203 C476 138 422 99 333 99 L205 99 Z " />
<glyph glyph-name="C" unicode="C" horiz-adv-x="660" d="M486 244 C475 143 428 93 345 93 C240 93 188 179 188 350 C188 519 240 604 345 604 C428 604 475 554 486 455 L612 455 C591 622 498 707 345 707 C162 707 62 583 62 350 C62 117 162 -11 345 -11 C498 -11 591 80 612 244 L486 244 Z " />
<glyph glyph-name="D" unicode="D" horiz-adv-x="660" d="M82 700 L82 0 L275 0 C384 0 467 32 526 97 C585 161 614 246 614 351 C614 456 585 540 526 604 C467 668 384 700 275 700 L82 700 Z M203 104 L203 596 L285 596 C421 596 488 503 488 351 C488 198 421 104 285 104 L203 104 Z " />
<glyph glyph-name="E" unicode="E" horiz-adv-x="660" d="M568 700 L109 700 L109 0 L568 0 L568 102 L230 102 L230 303 L540 303 L540 406 L230 406 L230 598 L568 598 L568 700 Z " />
<glyph glyph-name="F" unicode="F" horiz-adv-x="660" d="M578 700 L111 700 L111 0 L232 0 L232 294 L557 294 L557 397 L232 397 L232 597 L578 597 L578 700 Z " />
<glyph glyph-name="G" unicode="G" horiz-adv-x="660" d="M482 274 C478 158 428 93 339 93 C235 93 183 179 183 350 C183 519 235 604 340 604 C419 604 464 559 476 469 L602 469 C582 624 489 707 340 707 C159 707 57 583 57 351 C57 119 158 -10 323 -10 C407 -10 464 25 493 96 L493 0 L601 0 L601 376 L337 376 L337 274 L482 274 Z " />
<glyph glyph-name="H" unicode="H" horiz-adv-x="660" d="M466 405 L194 405 L194 700 L73 700 L73 0 L194 0 L194 301 L466 301 L466 0 L587 0 L587 700 L466 700 L466 405 Z " />
<glyph glyph-name="I" unicode="I" horiz-adv-x="660" d="M578 700 L83 700 L83 603 L270 603 L270 97 L83 97 L83 0 L578 0 L578 97 L391 97 L391 603 L578 603 L578 700 Z " />
<glyph glyph-name="J" unicode="J" horiz-adv-x="660" d="M127 700 L127 596 L434 596 L434 231 C434 150 380 94 292 94 C233 94 165 117 86 164 L86 37 C151 6 221 -9 297 -9 C457 -9 555 83 555 226 L555 700 L127 700 Z " />
<glyph glyph-name="K" unicode="K" horiz-adv-x="660" d="M635 0 L440 356 L611 700 L483 700 L339 406 L213 406 L213 700 L92 700 L92 0 L213 0 L213 302 L341 302 L498 0 L635 0 Z " />
<glyph glyph-name="L" unicode="L" horiz-adv-x="660" d="M259 700 L138 700 L138 0 L600 0 L600 103 L259 103 L259 700 Z " />
<glyph glyph-name="M" unicode="M" horiz-adv-x="660" d="M330 422 L181 700 L74 700 L74 0 L193 0 L193 482 L317 250 L344 250 L467 482 L467 0 L586 0 L586 700 L479 700 L330 422 Z " />
<glyph glyph-name="N" unicode="N" horiz-adv-x="660" d="M455 218 L196 700 L85 700 L85 0 L205 0 L205 482 L466 0 L575 0 L575 700 L455 700 L455 218 Z " />
<glyph glyph-name="O" unicode="O" horiz-adv-x="660" d="M123 616 C76 553 52 464 52 349 C52 122 147 -10 330 -10 C513 -10 608 122 608 349 C608 464 585 553 538 616 C491 679 421 711 330 711 C239 711 170 679 123 616 L123 616 Z M483 349 C483 178 432 92 330 92 C228 92 177 178 177 349 C177 522 228 609 330 609 C432 609 483 522 483 349 L483 349 Z " />
<glyph glyph-name="P" unicode="P" horiz-adv-x="660" d="M95 700 L95 0 L216 0 L216 282 L367 282 C440 282 499 301 544 340 C589 378 611 429 611 493 C611 553 588 603 543 642 C498 681 439 700 367 700 L95 700 Z M216 383 L216 599 L368 599 C444 599 491 553 491 493 C491 429 444 383 368 383 L216 383 Z " />
<glyph glyph-name="Q" unicode="Q" horiz-adv-x="660" d="M559 117 C592 176 608 254 608 349 C608 578 513 711 330 711 C147 711 52 578 52 349 C52 122 147 -10 330 -10 C394 -10 448 6 492 39 L586 -46 L658 32 L559 117 Z M330 92 C228 92 177 178 177 349 C177 522 228 609 330 609 C432 609 483 522 483 349 C483 288 477 238 464 199 L406 249 L341 175 L408 115 C387 100 361 92 330 92 L330 92 Z " />
<glyph glyph-name="R" unicode="R" horiz-adv-x="660" d="M442 312 C535 339 595 410 595 506 C595 564 573 611 529 647 C485 682 429 700 360 700 L92 700 L92 0 L213 0 L213 301 L329 301 L466 0 L602 0 L442 312 Z M360 600 C428 600 475 562 475 506 C475 443 428 400 360 400 L213 400 L213 600 L360 600 Z " />
<glyph glyph-name="S" unicode="S" horiz-adv-x="660" d="M62 246 C67 79 177 -10 345 -10 C504 -10 601 69 601 197 C601 256 575 303 547 330 C533 343 514 356 489 367 C437 391 423 393 367 406 C304 421 262 435 239 448 C216 461 205 484 205 516 C205 581 253 614 326 614 C411 614 457 568 466 476 L587 476 C578 633 490 711 323 711 C176 711 84 643 84 512 C84 438 113 398 154 367 C167 357 184 348 205 340 C248 324 275 317 331 304 C440 279 480 251 480 194 C480 126 429 89 349 89 C256 89 191 141 183 246 L62 246 Z " />
<glyph glyph-name="T" unicode="T" horiz-adv-x="660" d="M40 700 L40 596 L269 596 L269 0 L390 0 L390 596 L620 596 L620 700 L40 700 Z " />
<glyph glyph-name="U" unicode="U" horiz-adv-x="660" d="M472 250 C472 154 415 94 330 94 C245 94 188 154 188 250 L188 700 L67 700 L67 247 C67 168 91 105 139 59 C187 12 251 -11 330 -11 C409 -11 473 12 521 59 C569 105 593 168 593 247 L593 700 L472 700 L472 250 Z " />
<glyph glyph-name="V" unicode="V" horiz-adv-x="660" d="M330 128 L171 700 L39 700 L256 0 L404 0 L621 700 L489 700 L330 128 Z " />
<glyph glyph-name="W" unicode="W" horiz-adv-x="660" d="M465 192 L378 573 L282 573 L194 189 L153 700 L31 700 L119 0 L234 0 L329 423 L426 0 L541 0 L629 700 L507 700 L465 192 Z " />
<glyph glyph-name="X" unicode="X" horiz-adv-x="660" d="M611 700 L469 700 L330 432 L191 700 L49 700 L251 349 L45 0 L187 0 L330 264 L472 0 L615 0 L409 349 L611 700 Z " />
<glyph glyph-name="Y" unicode="Y" horiz-adv-x="660" d="M484 700 L330 364 L176 700 L37 700 L270 254 L270 0 L391 0 L391 256 L623 700 L484 700 Z " />
<glyph glyph-name="Z" unicode="Z" horiz-adv-x="660" d="M592 607 L592 700 L63 700 L63 598 L451 598 L63 94 L63 0 L597 0 L597 102 L208 102 L592 607 Z " />
<glyph glyph-name="bracketleft" unicode="&#x5b;" horiz-adv-x="660" d="M517 780 L243 780 L243 -115 L517 -115 L517 -27 L356 -27 L356 692 L517 692 L517 780 Z " />
<glyph glyph-name="backslash" unicode="&#x5c;" horiz-adv-x="660" d="M218 700 L129 700 L436 0 L526 0 L218 700 Z " />
<glyph glyph-name="bracketright" unicode="&#x5d;" horiz-adv-x="660" d="M143 780 L143 692 L304 692 L304 -27 L143 -27 L143 -115 L417 -115 L417 780 L143 780 Z " />
<glyph glyph-name="asciicircum" unicode="&#x5e;" horiz-adv-x="660" d="M119 425 L224 425 L330 634 L437 425 L542 425 L379 724 L282 724 L119 425 Z " />
<glyph glyph-name="underscore" unicode="&#x5f;" horiz-adv-x="660" d="M70 -168 L590 -168 L590 -89 L70 -89 L70 -168 Z " />
<glyph glyph-name="grave" unicode="&#x60;" horiz-adv-x="660" d="M310 730 L155 730 L295 580 L393 580 L310 730 Z " />
<glyph glyph-name="a" unicode="a" horiz-adv-x="660" d="M571 81 C547 81 525 95 525 120 L525 327 C525 446 449 514 317 514 C190 514 104 450 100 342 L211 342 C215 393 255 423 315 423 C379 423 415 388 415 328 L415 301 L311 301 C156 301 81 232 81 139 C81 47 149 -10 254 -10 C329 -10 383 16 416 67 L421 67 C438 16 482 -9 553 -9 C578 -9 599 -5 616 2 L616 93 C601 85 586 81 571 81 L571 81 Z M282 77 C226 77 192 104 192 148 C192 197 232 222 311 222 L415 222 L415 193 C415 129 361 77 282 77 L282 77 Z " />
<glyph glyph-name="b" unicode="b" horiz-adv-x="660" d="M368 -10 C435 -10 492 15 537 64 C582 113 605 176 605 253 C605 330 582 392 537 441 C492 490 434 514 365 514 C288 514 231 486 194 431 L193 431 L193 700 L82 700 L82 0 L193 0 L193 82 L195 82 C236 21 293 -10 368 -10 L368 -10 Z M340 419 C384 419 421 404 450 373 C479 342 493 302 493 253 C493 204 478 163 449 132 C420 101 383 85 339 85 C250 85 192 152 192 249 L192 257 C193 354 251 419 340 419 L340 419 Z " />
<glyph glyph-name="c" unicode="c" horiz-adv-x="660" d="M477 194 C464 126 416 85 345 85 C253 85 193 154 193 253 C193 350 253 419 345 419 C413 419 459 381 475 320 L587 320 C580 379 554 426 509 461 C464 496 409 514 344 514 C267 514 203 490 154 441 C105 392 80 329 80 253 C80 177 105 114 155 65 C204 15 268 -10 345 -10 C412 -10 468 9 513 46 C558 83 583 133 589 194 L477 194 Z " />
<glyph glyph-name="d" unicode="d" horiz-adv-x="660" d="M292 -10 C367 -10 424 21 465 82 L467 82 L467 0 L578 0 L578 700 L467 700 L467 431 L466 431 C429 486 372 514 295 514 C226 514 168 490 123 441 C78 392 55 330 55 253 C55 176 78 113 123 64 C168 15 225 -10 292 -10 L292 -10 Z M320 419 C409 419 467 354 468 257 L468 249 C468 152 410 85 321 85 C277 85 240 101 211 132 C182 163 167 204 167 253 C167 302 182 342 211 373 C240 404 276 419 320 419 L320 419 Z " />
<glyph glyph-name="e" unicode="e" horiz-adv-x="660" d="M339 -10 C464 -10 544 57 576 161 L463 161 C436 109 394 83 335 83 C250 83 200 138 193 225 L193 226 L579 226 L579 246 C579 327 558 392 516 441 C473 490 414 514 337 514 C259 514 197 489 150 440 C103 391 79 327 79 250 C79 173 102 111 148 63 C194 14 258 -10 339 -10 L339 -10 Z M197 304 C213 379 263 424 336 424 C407 424 450 384 465 304 L197 304 Z " />
<glyph glyph-name="f" unicode="f" horiz-adv-x="660" d="M607 504 L325 504 L325 506 C325 581 354 624 449 624 C479 624 522 618 577 607 L577 703 C528 712 487 716 454 716 C293 716 215 634 215 507 L215 504 L44 504 L44 409 L215 409 L215 95 L77 95 L77 0 L540 0 L540 95 L325 95 L325 409 L607 409 L607 504 Z " />
<glyph glyph-name="g" unicode="g" horiz-adv-x="660" d="M621 560 C550 560 493 534 450 481 C411 503 366 514 315 514 C252 514 199 498 156 465 C113 432 92 391 92 340 C92 280 121 233 179 199 C143 173 125 144 125 113 C125 77 146 54 189 44 C105 35 60 -7 60 -71 C60 -112 83 -146 129 -172 C174 -198 234 -211 307 -211 C392 -211 460 -195 511 -163 C562 -131 587 -89 587 -38 C587 45 523 102 415 102 L257 102 C236 102 225 111 225 130 C225 142 229 157 237 175 C264 168 290 165 315 165 C379 165 433 182 476 215 C519 248 540 289 540 340 C540 383 524 420 492 451 C531 454 574 456 621 456 L621 560 L621 560 Z M314 242 C253 242 207 283 207 340 C207 396 253 437 314 437 C377 437 423 396 423 340 C423 283 377 242 314 242 L314 242 Z M391 8 C440 8 468 -13 468 -44 C468 -91 419 -126 314 -126 C225 -126 176 -98 176 -51 C176 -16 205 8 250 8 L391 8 Z " />
<glyph glyph-name="h" unicode="h" horiz-adv-x="660" d="M376 514 C301 514 246 485 213 427 L213 700 L103 700 L103 0 L213 0 L213 261 C213 356 265 414 348 414 C413 414 454 372 454 293 L454 0 L565 0 L565 310 C565 438 497 514 376 514 L376 514 Z " />
<glyph glyph-name="i" unicode="i" horiz-adv-x="660" d="M276 717 L276 584 L416 584 L416 717 L276 717 Z M401 504 L137 504 L137 409 L291 409 L291 95 L101 95 L101 0 L591 0 L591 95 L401 95 L401 504 Z " />
<glyph glyph-name="j" unicode="j" horiz-adv-x="660" d="M379 584 L520 584 L520 717 L379 717 L379 584 Z M131 409 L396 409 L396 1 C396 -70 349 -117 266 -117 C244 -117 223 -114 203 -108 C182 -102 151 -91 109 -74 L109 -180 C179 -202 232 -213 269 -213 C344 -213 403 -193 444 -154 C485 -115 506 -66 506 -8 L506 504 L131 504 L131 409 Z " />
<glyph glyph-name="k" unicode="k" horiz-adv-x="660" d="M626 0 L460 282 L608 504 L475 504 L365 326 L216 326 L216 700 L106 700 L106 0 L216 0 L216 230 L368 230 L492 0 L626 0 Z " />
<glyph glyph-name="l" unicode="l" horiz-adv-x="660" d="M460 86 C395 86 348 129 348 188 L348 700 L52 700 L52 605 L238 605 L238 184 C238 127 258 80 299 44 C339 8 391 -10 454 -10 C491 -10 540 0 602 21 L602 129 C550 100 503 86 460 86 L460 86 Z " />
<glyph glyph-name="m" unicode="m" horiz-adv-x="660" d="M490 512 C438 512 401 489 378 444 C359 489 323 512 268 512 C217 512 182 490 162 445 L162 504 L57 504 L57 0 L162 0 L162 290 C162 381 181 418 228 418 C265 418 284 393 284 343 L284 0 L385 0 L386 319 C390 385 412 418 453 418 C490 418 508 393 508 343 L508 0 L609 0 L609 374 C609 459 563 512 490 512 L490 512 Z " />
<glyph glyph-name="n" unicode="n" horiz-adv-x="660" d="M373 514 C297 514 243 484 210 425 L210 504 L100 504 L100 0 L210 0 L210 261 C210 356 261 414 345 414 C410 414 451 370 451 293 L451 0 L561 0 L561 310 C561 438 494 514 373 514 L373 514 Z " />
<glyph glyph-name="o" unicode="o" horiz-adv-x="660" d="M141 441 C91 392 66 329 66 253 C66 176 91 113 141 64 C191 15 254 -10 330 -10 C406 -10 469 15 519 64 C569 113 594 176 594 253 C594 329 569 392 519 441 C469 490 406 514 330 514 C254 514 191 490 141 441 L141 441 Z M330 419 C374 419 410 403 439 372 C467 341 481 301 481 253 C481 204 467 164 439 133 C410 101 374 85 330 85 C241 85 178 154 178 253 C178 301 192 341 221 372 C249 403 285 419 330 419 L330 419 Z " />
<glyph glyph-name="p" unicode="p" horiz-adv-x="660" d="M368 514 C293 514 236 483 195 422 L193 422 L193 504 L82 504 L82 -196 L193 -196 L193 73 L194 73 C231 18 288 -10 365 -10 C434 -10 492 14 537 63 C582 112 605 174 605 251 C605 328 582 391 537 440 C492 489 435 514 368 514 L368 514 Z M340 85 C251 85 193 150 192 247 L192 255 C192 352 250 419 339 419 C383 419 420 403 449 372 C478 341 493 300 493 251 C493 202 479 163 450 132 C421 101 384 85 340 85 L340 85 Z " />
<glyph glyph-name="q" unicode="q" horiz-adv-x="660" d="M292 514 C225 514 168 489 123 440 C78 391 55 328 55 251 C55 174 78 112 123 63 C168 14 226 -10 295 -10 C372 -10 429 18 466 73 L467 73 L467 -196 L578 -196 L578 504 L467 504 L467 422 L465 422 C424 483 367 514 292 514 L292 514 Z M320 85 C276 85 240 101 211 132 C182 163 167 202 167 251 C167 300 182 341 211 372 C240 403 277 419 321 419 C410 419 468 352 468 255 L468 247 C467 150 409 85 320 85 L320 85 Z " />
<glyph glyph-name="r" unicode="r" horiz-adv-x="660" d="M339 504 L100 504 L100 409 L229 409 L229 95 L100 95 L100 0 L536 0 L536 95 L339 95 L339 176 L339 211 C341 281 354 329 378 354 C413 391 486 405 598 398 L598 512 C457 512 378 478 339 402 L339 504 Z " />
<glyph glyph-name="s" unicode="s" horiz-adv-x="660" d="M560 349 C549 453 461 514 324 514 C191 514 109 455 109 360 C109 282 160 236 262 221 L380 204 C427 197 451 178 451 145 C451 105 411 79 340 79 C259 79 209 114 204 178 L91 178 C98 59 190 -10 339 -10 C478 -10 562 51 562 151 C562 232 504 278 412 291 L293 309 C244 316 220 334 220 363 C220 403 261 427 328 427 C400 427 440 401 448 349 L560 349 Z " />
<glyph glyph-name="t" unicode="t" horiz-adv-x="660" d="M611 504 L306 504 L306 662 L196 662 L196 618 C196 573 189 543 175 528 C160 512 132 504 89 504 L33 504 L33 409 L196 409 L196 180 C196 65 286 -10 429 -10 C474 -10 528 3 590 29 L590 136 C527 103 475 86 434 86 C351 86 306 122 306 185 L306 409 L611 409 L611 504 Z " />
<glyph glyph-name="u" unicode="u" horiz-adv-x="660" d="M450 504 L450 243 C450 148 399 90 315 90 C250 90 209 134 209 211 L209 504 L99 504 L99 194 C99 66 166 -10 287 -10 C363 -10 417 20 450 79 L450 0 L560 0 L560 504 L450 504 Z " />
<glyph glyph-name="v" unicode="v" horiz-adv-x="660" d="M330 124 L180 504 L52 504 L271 0 L389 0 L608 504 L480 504 L330 124 Z " />
<glyph glyph-name="w" unicode="w" horiz-adv-x="660" d="M466 134 L376 421 L284 421 L194 134 L154 504 L42 504 L124 0 L239 0 L330 308 L421 0 L536 0 L618 504 L506 504 L466 134 Z " />
<glyph glyph-name="x" unicode="x" horiz-adv-x="660" d="M579 504 L449 504 L330 313 L211 504 L81 504 L247 253 L77 0 L207 0 L330 192 L453 0 L583 0 L413 253 L579 504 Z " />
<glyph glyph-name="y" unicode="y" horiz-adv-x="660" d="M343 117 L180 504 L54 504 L294 -21 L288 -37 C271 -84 226 -118 179 -118 C140 -118 99 -106 54 -81 L54 -184 C94 -202 136 -211 180 -211 C272 -211 344 -160 380 -69 L608 504 L480 504 L343 117 Z " />
<glyph glyph-name="z" unicode="z" horiz-adv-x="660" d="M559 421 L559 504 L94 504 L94 412 L416 412 L94 81 L94 0 L567 0 L567 92 L245 92 L559 421 Z " />
<glyph glyph-name="braceleft" unicode="&#x7b;" horiz-adv-x="660" d="M366 630 C366 666 392 690 429 690 L527 690 L527 780 L425 780 C321 780 253 723 253 632 L253 503 C253 402 212 376 148 376 L137 376 L137 289 L148 289 C212 289 253 264 253 161 L253 33 C253 -58 321 -115 425 -115 L527 -115 L527 -25 L429 -25 C392 -25 366 -1 366 35 L366 161 C366 270 329 316 249 332 C329 349 366 395 366 503 L366 630 Z " />
<glyph glyph-name="bar" unicode="&#x7c;" horiz-adv-x="660" d="M284 -115 L377 -115 L377 780 L284 780 L284 -115 Z " />
<glyph glyph-name="braceright" unicode="&#x7d;" horiz-adv-x="660" d="M512 376 C448 376 407 402 407 503 L407 632 C407 723 339 780 235 780 L133 780 L133 690 L231 690 C268 690 294 666 294 630 L294 503 C294 395 331 349 411 332 C331 316 294 270 294 161 L294 35 C294 -1 268 -25 231 -25 L133 -25 L133 -115 L235 -115 C339 -115 407 -58 407 33 L407 161 C407 264 448 289 512 289 L523 289 L523 376 L512 376 L512 376 Z " />
<glyph glyph-name="asciitilde" unicode="&#x7e;" horiz-adv-x="660" d="M200 245 C200 282 214 300 242 300 C255 300 283 291 326 273 C369 255 402 246 427 246 C494 246 547 295 547 395 L460 395 C460 358 446 340 419 340 C406 340 378 349 335 367 C292 385 259 394 234 394 C167 394 114 345 114 245 L200 245 Z " />
<glyph glyph-name="exclamdown" unicode="&#xa1;" horiz-adv-x="660" d="M255 472 L405 472 L405 610 L255 610 L255 472 Z M265 -90 L394 -90 L378 385 L283 385 L265 -90 Z " />
<glyph glyph-name="cent" unicode="&#xa2;" horiz-adv-x="660" d="M474 186 C462 135 424 98 375 87 L375 420 C423 409 459 377 472 330 L582 330 C562 434 483 504 376 516 L376 621 L289 621 L289 514 C224 503 173 474 134 427 C95 380 76 322 76 254 C76 186 95 128 134 81 C173 34 224 4 289 -7 L289 -117 L376 -117 L376 -9 C485 3 567 78 583 186 L474 186 Z M213 358 C232 387 257 406 290 416 L290 91 C257 102 232 121 213 150 C194 179 185 213 185 254 C185 295 194 329 213 358 L213 358 Z " />
<glyph glyph-name="sterling" unicode="&#xa3;" horiz-adv-x="660" d="M197 96 C258 157 283 191 283 248 C283 259 282 272 279 288 L496 288 L496 375 L239 375 C211 422 197 460 197 489 C197 565 251 617 331 617 C402 617 456 575 472 511 L577 511 C558 639 462 713 331 713 C259 713 200 692 154 651 C108 610 85 559 85 498 C85 460 97 419 121 375 L44 375 L44 288 L163 288 C168 272 170 257 170 244 C170 213 154 181 141 163 C134 154 122 139 105 119 C87 99 74 84 65 73 L77 0 L581 0 L581 96 L197 96 L197 96 Z " />
<glyph glyph-name="currency" unicode="&#xa4;" horiz-adv-x="660" d="M584 343 C584 400 567 452 533 499 L628 594 L570 652 L475 556 C432 587 383 602 329 602 C277 602 229 587 185 557 L90 652 L32 594 L126 500 C91 455 74 402 74 343 C74 289 88 241 116 198 L32 114 L90 56 L171 137 C218 101 270 83 329 83 C389 83 442 102 488 139 L570 56 L628 114 L543 200 C570 243 584 291 584 343 L584 343 Z M209 217 C177 251 161 293 161 343 C161 392 177 434 209 468 C240 502 280 519 329 519 C378 519 418 502 450 468 C481 434 497 392 497 343 C497 293 481 251 450 217 C418 182 378 165 329 165 C280 165 240 182 209 217 L209 217 Z " />
<glyph glyph-name="yen" unicode="&#xa5;" horiz-adv-x="660" d="M491 700 L330 354 L169 700 L39 700 L228 339 L79 339 L79 273 L262 273 L273 253 L273 203 L79 203 L79 136 L273 136 L273 0 L388 0 L388 136 L581 136 L581 203 L388 203 L388 255 L398 273 L581 273 L581 339 L432 339 L621 700 L491 700 Z " />
<glyph glyph-name="brokenbar" unicode="&#xa6;" horiz-adv-x="660" d="M284 420 L377 420 L377 780 L284 780 L284 420 Z M284 -115 L377 -115 L377 245 L284 245 L284 -115 Z " />
<glyph glyph-name="section" unicode="&#xa7;" horiz-adv-x="660" d="M476 178 C529 211 555 257 555 315 C555 365 534 402 503 424 C478 440 466 448 434 458 C401 468 395 469 363 476 C266 497 233 513 233 557 C233 601 268 629 328 629 C392 629 433 596 437 539 L547 539 C536 654 449 713 325 713 C262 713 212 699 175 670 C138 641 120 602 120 554 C120 506 140 468 180 441 C125 410 98 364 98 304 C98 257 121 220 143 200 C154 190 170 181 192 172 C239 152 242 154 291 142 C390 121 424 105 424 61 C424 17 387 -11 326 -11 C255 -11 213 20 209 79 L99 79 C110 -36 197 -94 328 -94 C457 -94 538 -32 538 64 C538 113 517 151 476 178 L476 178 Z M205 318 C205 351 219 382 248 409 C261 405 290 398 335 387 C416 368 448 350 448 301 C448 268 434 238 406 210 C387 216 358 223 319 231 C238 250 205 267 205 318 L205 318 Z " />
<glyph glyph-name="dieresis" unicode="&#xa8;" horiz-adv-x="660" d="M288 586 L288 717 L151 717 L151 586 L288 586 Z M509 586 L509 717 L372 717 L372 586 L509 586 Z " />
<glyph glyph-name="copyright" unicode="&#xa9;" horiz-adv-x="660" d="M329 -12 C420 -12 495 22 554 91 C613 160 642 247 642 352 C642 457 613 543 554 611 C495 678 421 712 331 712 C240 712 166 678 107 610 C48 542 18 455 18 350 C18 245 47 159 106 91 C165 22 239 -12 329 -12 L329 -12 Z M329 40 C254 40 193 69 146 127 C99 185 75 259 75 350 C75 441 99 515 146 573 C193 631 255 660 331 660 C406 660 468 631 515 574 C562 516 585 442 585 351 C585 260 562 185 515 127 C468 69 406 40 329 40 L329 40 Z M412 297 C405 249 375 219 334 219 C278 219 244 270 244 350 C244 430 278 482 334 482 C374 482 403 454 410 410 L500 410 C488 497 420 558 336 558 C283 558 239 539 206 500 C172 461 155 411 155 350 C155 289 172 240 206 201 C239 162 283 142 336 142 C424 142 490 206 501 297 L412 297 Z " />
<glyph glyph-name="ordfeminine" unicode="&#xaa;" horiz-adv-x="660" d="M513 376 C492 376 481 386 481 405 L481 565 C481 654 419 707 312 707 C208 707 143 657 140 576 L231 576 C235 617 262 637 312 637 C363 637 388 613 388 566 L388 543 L309 543 C194 543 126 494 126 415 C126 343 179 297 259 297 C320 297 364 317 389 356 L394 356 C409 317 442 297 494 297 C523 297 549 304 571 317 L571 398 C548 383 528 376 513 376 L513 376 Z M285 366 C246 366 221 386 221 421 C221 457 255 479 310 479 L388 479 L388 461 C387 404 341 366 285 366 L285 366 Z M555 131 L555 218 L136 218 L136 131 L555 131 Z " />
<glyph glyph-name="guillemotleft" unicode="&#xab;" horiz-adv-x="660" d="M335 439 L216 439 L90 261 L216 83 L335 83 L209 261 L335 439 Z M553 439 L424 439 L299 261 L424 83 L553 83 L418 261 L553 439 Z " />
<glyph glyph-name="registered" unicode="&#xae;" horiz-adv-x="660" d="M331 718 C264 718 206 695 159 649 C112 603 88 545 88 476 C88 407 112 349 159 303 C206 257 262 234 329 234 C396 234 454 257 501 304 C548 350 572 408 572 478 C572 547 549 604 502 650 C455 695 398 718 331 718 L331 718 Z M329 278 C275 278 229 297 191 335 C152 372 133 419 133 476 C133 533 152 581 191 619 C230 656 276 675 331 675 C385 675 431 656 470 619 C508 581 527 534 527 477 C527 420 508 372 469 335 C430 297 384 278 329 278 L329 278 Z M444 534 C444 577 408 606 357 606 L229 606 L229 356 L284 356 L284 458 L341 458 L390 356 L454 356 L393 465 C427 477 444 500 444 534 L444 534 Z M356 561 C377 561 392 549 392 533 C392 514 376 502 353 502 L284 502 L284 561 L356 561 Z " />
<glyph glyph-name="overscore" unicode="&#xaf;" horiz-adv-x="660" d="M190 615 L470 615 L470 697 L190 697 L190 615 Z " />
<glyph glyph-name="degree" unicode="&#xb0;" horiz-adv-x="660" d="M212 692 C179 660 162 621 162 574 C162 527 179 488 212 457 C245 425 284 409 330 409 C376 409 416 425 449 457 C482 488 498 527 498 574 C498 621 481 661 448 693 C414 724 374 740 329 740 C284 740 245 724 212 692 L212 692 Z M330 665 C379 665 416 627 416 575 C416 523 379 484 330 484 C282 484 244 523 244 575 C244 627 282 665 330 665 L330 665 Z " />
<glyph glyph-name="plusminus" unicode="&#xb1;" horiz-adv-x="660" d="M377 617 L284 617 L284 458 L81 458 L81 370 L284 370 L284 217 L377 217 L377 370 L578 370 L578 458 L377 458 L377 617 Z M578 75 L578 164 L81 164 L81 75 L578 75 Z " />
<glyph glyph-name="uni00B2" unicode="&#xb2;" horiz-adv-x="660" d="M354 441 C423 488 464 531 464 590 C464 659 408 709 327 709 C240 709 188 662 183 573 L266 573 C268 619 288 642 326 642 C358 642 380 620 380 589 C380 554 362 532 319 497 L183 387 L183 337 L470 337 L470 404 L303 404 L354 441 Z " />
<glyph glyph-name="uni00B3" unicode="&#xb3;" horiz-adv-x="660" d="M466 635 L466 700 L197 700 L197 631 L360 631 L264 552 L286 496 L326 496 C366 496 393 476 393 445 C393 416 369 394 334 394 C297 394 270 421 267 458 L185 458 C189 381 250 328 335 328 C414 328 472 376 472 443 C472 502 425 544 357 551 L466 635 Z " />
<glyph glyph-name="acute" unicode="&#xb4;" horiz-adv-x="660" d="M333 580 L473 730 L318 730 L235 580 L333 580 Z " />
<glyph glyph-name="paragraph" unicode="&#xb6;" horiz-adv-x="660" d="M429 700 L291 700 C223 700 167 680 123 640 C79 599 57 548 57 486 C57 427 79 379 122 342 C165 304 219 285 286 285 L336 285 L336 0 L429 0 L429 700 Z M479 0 L557 0 L557 700 L479 700 L479 0 Z " />
<glyph glyph-name="middot" unicode="&#xb7;" horiz-adv-x="660" d="M405 248 L405 393 L255 393 L255 248 L405 248 Z " />
<glyph glyph-name="cedilla" unicode="&#xb8;" horiz-adv-x="660" d="M283 -111 L309 -111 C346 -111 366 -127 366 -148 C366 -167 349 -179 328 -179 C303 -179 284 -161 283 -132 L204 -141 C211 -202 262 -246 331 -246 C398 -246 448 -205 448 -150 C448 -97 405 -57 346 -57 L338 -57 L351 0 L295 0 L266 -79 L283 -111 Z " />
<glyph glyph-name="uni00B9" unicode="&#xb9;" horiz-adv-x="660" d="M381 700 L315 700 L181 658 L181 568 L295 621 L295 402 L183 402 L183 335 L484 335 L484 402 L381 402 L381 700 Z " />
<glyph glyph-name="ordmasculine" unicode="&#xba;" horiz-adv-x="660" d="M176 648 C134 608 113 560 113 503 C113 445 134 396 176 357 C218 317 269 297 330 297 C391 297 443 317 485 357 C526 396 547 445 547 503 C547 560 526 609 484 648 C442 687 391 707 330 707 C269 707 218 687 176 648 L176 648 Z M414 588 C436 565 447 537 447 503 C447 434 397 382 330 382 C263 382 212 434 212 503 C212 537 223 565 246 588 C269 611 297 622 330 622 C363 622 391 611 414 588 L414 588 Z M138 131 L523 131 L523 218 L138 218 L138 131 Z " />
<glyph glyph-name="guillemotright" unicode="&#xbb;" horiz-adv-x="660" d="M107 83 L236 83 L361 261 L236 439 L107 439 L242 261 L107 83 Z M325 83 L444 83 L570 261 L444 439 L325 439 L451 261 L325 83 Z " />
<glyph glyph-name="onequarter" unicode="&#xbc;" horiz-adv-x="660" d="M557 714 L391 468 L438 432 L627 664 L557 714 Z M30 335 L331 335 L331 402 L228 402 L228 700 L162 700 L28 658 L28 568 L142 621 L142 402 L30 402 L30 335 Z M589 141 L589 268 L517 268 L511 141 L414 141 C456 222 483 297 494 365 L403 365 C393 291 365 212 320 127 L334 75 L510 75 L510 0 L589 0 L589 75 L644 75 L644 141 L589 141 Z M115 -11 L282 235 L234 271 L46 39 L115 -11 Z " />
<glyph glyph-name="onehalf" unicode="&#xbd;" horiz-adv-x="660" d="M557 714 L391 468 L438 432 L627 664 L557 714 Z M162 700 L28 658 L28 568 L142 621 L142 402 L30 402 L30 335 L331 335 L331 402 L228 402 L228 700 L162 700 Z M521 104 C590 151 631 194 631 253 C631 322 575 372 494 372 C407 372 355 325 350 236 L433 236 C435 282 455 305 493 305 C525 305 547 283 547 252 C547 217 529 195 486 160 L350 50 L350 0 L637 0 L637 67 L470 67 L521 104 Z M115 -11 L282 235 L234 271 L46 39 L115 -11 Z " />
<glyph glyph-name="threequarters" unicode="&#xbe;" horiz-adv-x="660" d="M550 714 L384 468 L431 432 L620 664 L550 714 Z M309 635 L309 700 L40 700 L40 631 L203 631 L107 552 L129 496 L169 496 C209 496 236 476 236 445 C236 416 212 394 177 394 C140 394 113 421 110 458 L28 458 C32 381 93 328 178 328 C257 328 315 376 315 443 C315 502 268 544 200 551 L309 635 Z M589 141 L589 268 L517 268 L511 141 L414 141 C456 222 483 297 494 365 L403 365 C393 291 365 212 320 127 L334 75 L510 75 L510 0 L589 0 L589 75 L644 75 L644 141 L589 141 Z M108 -11 L275 235 L227 271 L39 39 L108 -11 Z " />
<glyph glyph-name="questiondown" unicode="&#xbf;" horiz-adv-x="660" d="M256 615 L256 477 L406 477 L406 615 L256 615 Z M446 113 C443 40 398 -1 322 -1 C253 -1 211 38 211 101 C211 156 241 190 308 223 L380 260 L374 403 L283 403 L277 310 L266 304 C211 276 187 261 150 229 C113 196 96 154 96 101 C96 42 117 -5 159 -42 C201 -78 256 -96 324 -96 C463 -96 557 -23 561 113 L446 113 L446 113 Z " />
<glyph glyph-name="Agrave" unicode="&#xc0;" horiz-adv-x="660" d="M303 940 L136 940 L280 784 L379 784 L303 940 Z M621 0 L404 700 L256 700 L39 0 L160 0 L203 148 L457 148 L500 0 L621 0 Z M330 581 L428 247 L232 247 L330 581 Z " />
<glyph glyph-name="Aacute" unicode="&#xc1;" horiz-adv-x="660" d="M357 940 L281 784 L380 784 L524 940 L357 940 Z M621 0 L404 700 L256 700 L39 0 L160 0 L203 148 L457 148 L500 0 L621 0 Z M330 581 L428 247 L232 247 L330 581 Z " />
<glyph glyph-name="Acircumflex" unicode="&#xc2;" horiz-adv-x="660" d="M399 770 L501 770 L396 940 L263 940 L158 770 L260 770 L330 872 L399 770 Z M621 0 L404 700 L256 700 L39 0 L160 0 L203 148 L457 148 L500 0 L621 0 Z M330 581 L428 247 L232 247 L330 581 Z " />
<glyph glyph-name="Atilde" unicode="&#xc3;" horiz-adv-x="660" d="M331 815 C354 796 377 787 401 787 C466 787 517 832 517 913 L430 913 C430 884 418 869 394 869 C382 869 365 878 342 896 C319 914 295 923 272 923 C207 923 157 881 156 797 L242 797 C247 831 263 869 331 815 L331 815 Z M621 0 L404 700 L256 700 L39 0 L160 0 L203 148 L457 148 L500 0 L621 0 Z M330 581 L428 247 L232 247 L330 581 Z " />
<glyph glyph-name="Adieresis" unicode="&#xc4;" horiz-adv-x="660" d="M142 927 L142 796 L279 796 L279 927 L142 927 Z M381 927 L381 796 L518 796 L518 927 L381 927 Z M621 0 L404 700 L256 700 L39 0 L160 0 L203 148 L457 148 L500 0 L621 0 Z M330 581 L428 247 L232 247 L330 581 Z " />
<glyph glyph-name="Aring" unicode="&#xc5;" horiz-adv-x="660" d="M410 776 C432 796 443 821 443 852 C443 912 392 957 331 957 C270 957 219 912 219 852 C214 758 346 711 410 776 L410 776 Z M365 887 C374 878 378 866 378 852 C382 787 280 787 283 852 C283 896 336 917 365 887 L365 887 Z M621 0 L404 700 L256 700 L39 0 L160 0 L203 148 L457 148 L500 0 L621 0 Z M330 581 L428 247 L232 247 L330 581 Z " />
<glyph glyph-name="AE" unicode="&#xc6;" horiz-adv-x="660" d="M624 700 L287 700 L39 0 L162 0 L209 151 L345 151 L345 0 L624 0 L624 104 L455 104 L455 302 L599 302 L599 406 L455 406 L455 596 L624 596 L624 700 Z M345 582 L345 248 L240 248 L345 582 Z " />
<glyph glyph-name="Ccedilla" unicode="&#xc7;" horiz-adv-x="660" d="M345 93 C240 93 188 179 188 350 C188 519 240 604 345 604 C428 604 475 554 486 455 L612 455 C591 622 498 707 345 707 C162 707 62 583 62 350 C62 135 146 11 302 -8 L276 -79 L293 -111 L319 -111 C356 -111 376 -127 376 -148 C376 -167 359 -179 338 -179 C313 -179 294 -161 293 -132 L214 -141 C221 -202 272 -246 341 -246 C408 -246 458 -205 458 -150 C458 -97 415 -57 356 -57 L348 -57 L359 -11 C504 -6 592 85 612 244 L486 244 C475 143 428 93 345 93 L345 93 Z " />
<glyph glyph-name="Egrave" unicode="&#xc8;" horiz-adv-x="660" d="M346 940 L179 940 L323 784 L422 784 L346 940 Z M568 700 L109 700 L109 0 L568 0 L568 102 L230 102 L230 303 L540 303 L540 406 L230 406 L230 598 L568 598 L568 700 Z " />
<glyph glyph-name="Eacute" unicode="&#xc9;" horiz-adv-x="660" d="M384 784 L528 940 L361 940 L285 784 L384 784 Z M568 700 L109 700 L109 0 L568 0 L568 102 L230 102 L230 303 L540 303 L540 406 L230 406 L230 598 L568 598 L568 700 Z " />
<glyph glyph-name="Ecircumflex" unicode="&#xca;" horiz-adv-x="660" d="M400 940 L267 940 L162 770 L264 770 L334 872 L403 770 L505 770 L400 940 Z M568 700 L109 700 L109 0 L568 0 L568 102 L230 102 L230 303 L540 303 L540 406 L230 406 L230 598 L568 598 L568 700 Z " />
<glyph glyph-name="Edieresis" unicode="&#xcb;" horiz-adv-x="660" d="M283 796 L283 927 L146 927 L146 796 L283 796 Z M522 796 L522 927 L385 927 L385 796 L522 796 Z M568 700 L109 700 L109 0 L568 0 L568 102 L230 102 L230 303 L540 303 L540 406 L230 406 L230 598 L568 598 L568 700 Z " />
<glyph glyph-name="Igrave" unicode="&#xcc;" horiz-adv-x="660" d="M307 941 L140 941 L284 785 L383 785 L307 941 Z M578 700 L83 700 L83 603 L270 603 L270 97 L83 97 L83 0 L578 0 L578 97 L391 97 L391 603 L578 603 L578 700 Z " />
<glyph glyph-name="Iacute" unicode="&#xcd;" horiz-adv-x="660" d="M354 941 L278 785 L377 785 L521 941 L354 941 Z M578 700 L83 700 L83 603 L270 603 L270 97 L83 97 L83 0 L578 0 L578 97 L391 97 L391 603 L578 603 L578 700 Z " />
<glyph glyph-name="Icircumflex" unicode="&#xce;" horiz-adv-x="660" d="M400 770 L502 770 L397 940 L264 940 L159 770 L261 770 L331 872 L400 770 Z M578 700 L83 700 L83 603 L270 603 L270 97 L83 97 L83 0 L578 0 L578 97 L391 97 L391 603 L578 603 L578 700 Z " />
<glyph glyph-name="Idieresis" unicode="&#xcf;" horiz-adv-x="660" d="M143 927 L143 796 L280 796 L280 927 L143 927 Z M382 927 L382 796 L519 796 L519 927 L382 927 Z M578 700 L83 700 L83 603 L270 603 L270 97 L83 97 L83 0 L578 0 L578 97 L391 97 L391 603 L578 603 L578 700 Z " />
<glyph glyph-name="Eth" unicode="&#xd0;" horiz-adv-x="660" d="M98 700 L98 398 L40 398 L40 311 L98 311 L98 0 L291 0 C400 0 483 32 542 97 C601 161 630 246 630 351 C630 456 601 540 542 604 C483 668 400 700 291 700 L98 700 Z M219 104 L219 311 L356 311 L356 398 L219 398 L219 596 L301 596 C437 596 504 503 504 351 C504 198 437 104 301 104 L219 104 Z " />
<glyph glyph-name="Ntilde" unicode="&#xd1;" horiz-adv-x="660" d="M340 815 C363 796 386 787 410 787 C475 787 526 832 526 913 L439 913 C439 884 427 869 403 869 C391 869 374 878 351 896 C328 914 304 923 281 923 C216 923 166 881 165 797 L251 797 C256 831 272 869 340 815 L340 815 Z M455 218 L196 700 L85 700 L85 0 L205 0 L205 482 L466 0 L575 0 L575 700 L455 700 L455 218 Z " />
<glyph glyph-name="Ograve" unicode="&#xd2;" horiz-adv-x="660" d="M320 940 L153 940 L297 784 L396 784 L320 940 Z M123 616 C76 553 52 464 52 349 C52 122 147 -10 330 -10 C513 -10 608 122 608 349 C608 464 585 553 538 616 C491 679 421 711 330 711 C239 711 170 679 123 616 L123 616 Z M483 349 C483 178 432 92 330 92 C228 92 177 178 177 349 C177 522 228 609 330 609 C432 609 483 522 483 349 L483 349 Z " />
<glyph glyph-name="Oacute" unicode="&#xd3;" horiz-adv-x="660" d="M384 784 L528 940 L361 940 L285 784 L384 784 Z M123 616 C76 553 52 464 52 349 C52 122 147 -10 330 -10 C513 -10 608 122 608 349 C608 464 585 553 538 616 C491 679 421 711 330 711 C239 711 170 679 123 616 L123 616 Z M483 349 C483 178 432 92 330 92 C228 92 177 178 177 349 C177 522 228 609 330 609 C432 609 483 522 483 349 L483 349 Z " />
<glyph glyph-name="Ocircumflex" unicode="&#xd4;" horiz-adv-x="660" d="M396 940 L263 940 L158 770 L260 770 L330 872 L399 770 L501 770 L396 940 Z M123 616 C76 553 52 464 52 349 C52 122 147 -10 330 -10 C513 -10 608 122 608 349 C608 464 585 553 538 616 C491 679 421 711 330 711 C239 711 170 679 123 616 L123 616 Z M483 349 C483 178 432 92 330 92 C228 92 177 178 177 349 C177 522 228 609 330 609 C432 609 483 522 483 349 L483 349 Z " />
<glyph glyph-name="Otilde" unicode="&#xd5;" horiz-adv-x="660" d="M401 787 C466 787 517 832 517 913 L430 913 C430 884 418 869 394 869 C382 869 365 878 342 896 C319 914 295 923 272 923 C207 923 157 881 156 797 L242 797 C243 822 256 842 279 842 C290 842 308 833 331 815 C354 796 377 787 401 787 L401 787 Z M123 616 C76 553 52 464 52 349 C52 122 147 -10 330 -10 C513 -10 608 122 608 349 C608 464 585 553 538 616 C491 679 421 711 330 711 C239 711 170 679 123 616 L123 616 Z M483 349 C483 178 432 92 330 92 C228 92 177 178 177 349 C177 522 228 609 330 609 C432 609 483 522 483 349 L483 349 Z " />
<glyph glyph-name="Odieresis" unicode="&#xd6;" horiz-adv-x="660" d="M279 796 L279 927 L142 927 L142 796 L279 796 Z M518 796 L518 927 L381 927 L381 796 L518 796 Z M123 616 C76 553 52 464 52 349 C52 122 147 -10 330 -10 C513 -10 608 122 608 349 C608 464 585 553 538 616 C491 679 421 711 330 711 C239 711 170 679 123 616 L123 616 Z M483 349 C483 178 432 92 330 92 C228 92 177 178 177 349 C177 522 228 609 330 609 C432 609 483 522 483 349 L483 349 Z " />
<glyph glyph-name="multiply" unicode="&#xd7;" horiz-adv-x="660" d="M505 577 L330 402 L154 577 L93 516 L269 341 L93 165 L154 104 L330 280 L505 104 L566 165 L391 341 L566 516 L505 577 Z " />
<glyph glyph-name="Oslash" unicode="&#xd8;" horiz-adv-x="660" d="M584 696 L526 629 C479 684 413 711 330 711 C147 711 52 578 52 349 C52 262 66 189 94 132 L26 54 L81 4 L137 68 C183 16 247 -10 330 -10 C513 -10 608 122 608 349 C608 436 595 508 568 564 L640 647 L584 696 Z M177 349 C177 522 228 609 330 609 C383 609 423 586 448 540 L186 238 C180 270 177 307 177 349 L177 349 Z M483 349 C483 178 432 92 330 92 C277 92 239 114 214 157 L475 457 C480 423 483 387 483 349 L483 349 Z " />
<glyph glyph-name="Ugrave" unicode="&#xd9;" horiz-adv-x="660" d="M318 940 L151 940 L295 784 L394 784 L318 940 Z M472 250 C472 154 415 94 330 94 C245 94 188 154 188 250 L188 700 L67 700 L67 247 C67 168 91 105 139 59 C187 12 251 -11 330 -11 C409 -11 473 12 521 59 C569 105 593 168 593 247 L593 700 L472 700 L472 250 Z " />
<glyph glyph-name="Uacute" unicode="&#xda;" horiz-adv-x="660" d="M361 940 L285 784 L384 784 L528 940 L361 940 Z M472 250 C472 154 415 94 330 94 C245 94 188 154 188 250 L188 700 L67 700 L67 247 C67 168 91 105 139 59 C187 12 251 -11 330 -11 C409 -11 473 12 521 59 C569 105 593 168 593 247 L593 700 L472 700 L472 250 Z " />
<glyph glyph-name="Ucircumflex" unicode="&#xdb;" horiz-adv-x="660" d="M399 770 L501 770 L396 940 L263 940 L158 770 L260 770 L330 872 L399 770 Z M472 250 C472 154 415 94 330 94 C245 94 188 154 188 250 L188 700 L67 700 L67 247 C67 168 91 105 139 59 C187 12 251 -11 330 -11 C409 -11 473 12 521 59 C569 105 593 168 593 247 L593 700 L472 700 L472 250 Z " />
<glyph glyph-name="Udieresis" unicode="&#xdc;" horiz-adv-x="660" d="M142 927 L142 796 L279 796 L279 927 L142 927 Z M381 927 L381 796 L518 796 L518 927 L381 927 Z M472 250 C472 154 415 94 330 94 C245 94 188 154 188 250 L188 700 L67 700 L67 247 C67 168 91 105 139 59 C187 12 251 -11 330 -11 C409 -11 473 12 521 59 C569 105 593 168 593 247 L593 700 L472 700 L472 250 Z " />
<glyph glyph-name="Yacute" unicode="&#xdd;" horiz-adv-x="660" d="M361 940 L285 784 L384 784 L528 940 L361 940 Z M484 700 L330 364 L176 700 L37 700 L270 254 L270 0 L391 0 L391 256 L623 700 L484 700 Z " />
<glyph glyph-name="Thorn" unicode="&#xde;" horiz-adv-x="660" d="M216 566 L216 700 L95 700 L95 0 L216 0 L216 148 L370 148 C442 148 500 167 545 206 C589 245 611 296 611 360 C611 420 589 469 544 508 C499 547 441 566 370 566 L216 566 Z M216 250 L216 464 L362 464 C441 464 488 420 488 360 C488 296 441 250 362 250 L216 250 Z " />
<glyph glyph-name="germandbls" unicode="&#xdf;" horiz-adv-x="660" d="M461 386 C461 406 485 429 510 447 C534 465 558 503 558 550 C558 597 539 636 501 666 C462 696 414 711 355 711 C222 711 134 628 127 504 L17 504 L17 409 L126 409 L126 0 L236 0 L236 483 C236 562 285 616 357 616 C410 616 447 588 447 544 C447 511 423 481 399 462 C375 443 351 410 351 371 C351 259 519 255 519 161 C519 116 479 89 434 89 C407 89 372 100 330 122 L330 9 C365 -4 401 -11 440 -11 C552 -11 629 57 629 158 C629 225 586 279 545 305 C504 331 461 361 461 386 L461 386 Z " />
<glyph glyph-name="agrave" unicode="&#xe0;" horiz-adv-x="660" d="M311 730 L156 730 L296 580 L394 580 L311 730 Z M571 81 C547 81 525 95 525 120 L525 327 C525 446 449 514 317 514 C190 514 104 450 100 342 L211 342 C215 393 255 423 315 423 C379 423 415 388 415 328 L415 301 L311 301 C156 301 81 232 81 139 C81 47 149 -10 254 -10 C329 -10 383 16 416 67 L421 67 C438 16 482 -9 553 -9 C578 -9 599 -5 616 2 L616 93 C601 85 586 81 571 81 L571 81 Z M282 77 C226 77 192 104 192 148 C192 197 232 222 311 222 L415 222 L415 193 C415 129 361 77 282 77 L282 77 Z " />
<glyph glyph-name="aacute" unicode="&#xe1;" horiz-adv-x="660" d="M360 730 L277 580 L375 580 L515 730 L360 730 Z M571 81 C547 81 525 95 525 120 L525 327 C525 446 449 514 317 514 C190 514 104 450 100 342 L211 342 C215 393 255 423 315 423 C379 423 415 388 415 328 L415 301 L311 301 C156 301 81 232 81 139 C81 47 149 -10 254 -10 C329 -10 383 16 416 67 L421 67 C438 16 482 -9 553 -9 C578 -9 599 -5 616 2 L616 93 C601 85 586 81 571 81 L571 81 Z M282 77 C226 77 192 104 192 148 C192 197 232 222 311 222 L415 222 L415 193 C415 129 361 77 282 77 L282 77 Z " />
<glyph glyph-name="acircumflex" unicode="&#xe2;" horiz-adv-x="660" d="M402 570 L498 570 L394 730 L269 730 L165 570 L261 570 L332 655 L402 570 Z M571 81 C547 81 525 95 525 120 L525 327 C525 446 449 514 317 514 C190 514 104 450 100 342 L211 342 C215 393 255 423 315 423 C379 423 415 388 415 328 L415 301 L311 301 C156 301 81 232 81 139 C81 47 149 -10 254 -10 C329 -10 383 16 416 67 L421 67 C438 16 482 -9 553 -9 C578 -9 599 -5 616 2 L616 93 C601 85 586 81 571 81 L571 81 Z M282 77 C226 77 192 104 192 148 C192 197 232 222 311 222 L415 222 L415 193 C415 129 361 77 282 77 L282 77 Z " />
<glyph glyph-name="atilde" unicode="&#xe3;" horiz-adv-x="660" d="M286 641 C297 641 312 633 332 616 C352 599 373 591 396 591 C463 591 513 630 513 713 L425 713 C424 685 411 671 388 671 C377 671 362 679 343 696 C323 712 302 720 279 720 C215 720 163 681 162 598 L251 598 C252 627 264 641 286 641 L286 641 Z M571 81 C547 81 525 95 525 120 L525 327 C525 446 449 514 317 514 C190 514 104 450 100 342 L211 342 C215 393 255 423 315 423 C379 423 415 388 415 328 L415 301 L311 301 C156 301 81 232 81 139 C81 47 149 -10 254 -10 C329 -10 383 16 416 67 L421 67 C438 16 482 -9 553 -9 C578 -9 599 -5 616 2 L616 93 C601 85 586 81 571 81 L571 81 Z M282 77 C226 77 192 104 192 148 C192 197 232 222 311 222 L415 222 L415 193 C415 129 361 77 282 77 L282 77 Z " />
<glyph glyph-name="adieresis" unicode="&#xe4;" horiz-adv-x="660" d="M152 717 L152 586 L289 586 L289 717 L152 717 Z M373 717 L373 586 L510 586 L510 717 L373 717 Z M571 81 C547 81 525 95 525 120 L525 327 C525 446 449 514 317 514 C190 514 104 450 100 342 L211 342 C215 393 255 423 315 423 C379 423 415 388 415 328 L415 301 L311 301 C156 301 81 232 81 139 C81 47 149 -10 254 -10 C329 -10 383 16 416 67 L421 67 C438 16 482 -9 553 -9 C578 -9 599 -5 616 2 L616 93 C601 85 586 81 571 81 L571 81 Z M282 77 C226 77 192 104 192 148 C192 197 232 222 311 222 L415 222 L415 193 C415 129 361 77 282 77 L282 77 Z " />
<glyph glyph-name="aring" unicode="&#xe5;" horiz-adv-x="660" d="M410 591 C432 611 443 636 443 666 C443 696 432 721 410 741 C366 780 298 780 254 741 C232 721 221 696 221 666 C221 636 232 611 254 591 C298 551 366 551 410 591 L410 591 Z M367 702 C397 674 375 611 332 616 C305 616 283 637 283 666 C283 709 336 731 367 702 L367 702 Z M571 81 C547 81 525 95 525 120 L525 327 C525 446 449 514 317 514 C190 514 104 450 100 342 L211 342 C215 393 255 423 315 423 C379 423 415 388 415 328 L415 301 L311 301 C156 301 81 232 81 139 C81 47 149 -10 254 -10 C329 -10 383 16 416 67 L421 67 C438 16 482 -9 553 -9 C578 -9 599 -5 616 2 L616 93 C601 85 586 81 571 81 L571 81 Z M282 77 C226 77 192 104 192 148 C192 197 232 222 311 222 L415 222 L415 193 C415 129 361 77 282 77 L282 77 Z " />
<glyph glyph-name="ae" unicode="&#xe6;" horiz-adv-x="660" d="M629 252 C629 427 570 514 452 514 C400 514 360 497 333 462 C308 497 269 514 215 514 C111 514 45 454 42 343 L150 343 C153 400 179 429 216 429 C255 429 274 397 274 332 L274 302 L262 302 C110 302 24 242 24 134 C24 45 80 -10 172 -10 C243 -10 293 17 321 70 C350 17 395 -10 457 -10 C559 -10 615 46 626 157 L523 157 C516 104 493 78 454 78 C406 78 380 131 380 223 L380 230 L629 230 L629 252 Z M382 302 C382 387 406 430 454 430 C502 430 526 387 526 302 L382 302 Z M190 75 C151 75 132 96 132 139 C132 198 180 230 260 230 L274 230 L274 196 C274 124 243 75 190 75 L190 75 Z " />
<glyph glyph-name="ccedilla" unicode="&#xe7;" horiz-adv-x="660" d="M477 194 C464 126 416 85 345 85 C253 85 193 154 193 253 C193 350 253 419 345 419 C413 419 459 381 475 320 L587 320 C580 379 554 426 509 461 C464 496 409 514 344 514 C267 514 203 490 154 441 C105 392 80 329 80 253 C80 184 101 126 142 78 C183 30 238 2 305 -7 L279 -79 L296 -111 L322 -111 C359 -111 379 -127 379 -148 C379 -167 362 -179 341 -179 C316 -179 297 -161 296 -132 L217 -141 C224 -202 275 -246 344 -246 C411 -246 461 -205 461 -150 C461 -97 418 -57 359 -57 L351 -57 L362 -10 C425 -7 477 14 519 51 C560 88 584 135 589 194 L477 194 Z " />
<glyph glyph-name="egrave" unicode="&#xe8;" horiz-adv-x="660" d="M311 730 L156 730 L296 580 L394 580 L311 730 Z M339 -10 C464 -10 544 57 576 161 L463 161 C436 109 394 83 335 83 C250 83 200 138 193 225 L193 226 L579 226 L579 246 C579 327 558 392 516 441 C473 490 414 514 337 514 C259 514 197 489 150 440 C103 391 79 327 79 250 C79 173 102 111 148 63 C194 14 258 -10 339 -10 L339 -10 Z M197 304 C213 379 263 424 336 424 C407 424 450 384 465 304 L197 304 Z " />
<glyph glyph-name="eacute" unicode="&#xe9;" horiz-adv-x="660" d="M380 580 L520 730 L365 730 L282 580 L380 580 Z M339 -10 C464 -10 544 57 576 161 L463 161 C436 109 394 83 335 83 C250 83 200 138 193 225 L193 226 L579 226 L579 246 C579 327 558 392 516 441 C473 490 414 514 337 514 C259 514 197 489 150 440 C103 391 79 327 79 250 C79 173 102 111 148 63 C194 14 258 -10 339 -10 L339 -10 Z M197 304 C213 379 263 424 336 424 C407 424 450 384 465 304 L197 304 Z " />
<glyph glyph-name="ecircumflex" unicode="&#xea;" horiz-adv-x="660" d="M399 730 L274 730 L170 570 L266 570 L337 655 L407 570 L503 570 L399 730 Z M339 -10 C464 -10 544 57 576 161 L463 161 C436 109 394 83 335 83 C250 83 200 138 193 225 L193 226 L579 226 L579 246 C579 327 558 392 516 441 C473 490 414 514 337 514 C259 514 197 489 150 440 C103 391 79 327 79 250 C79 173 102 111 148 63 C194 14 258 -10 339 -10 L339 -10 Z M197 304 C213 379 263 424 336 424 C407 424 450 384 465 304 L197 304 Z " />
<glyph glyph-name="edieresis" unicode="&#xeb;" horiz-adv-x="660" d="M294 586 L294 717 L157 717 L157 586 L294 586 Z M515 586 L515 717 L378 717 L378 586 L515 586 Z M339 -10 C464 -10 544 57 576 161 L463 161 C436 109 394 83 335 83 C250 83 200 138 193 225 L193 226 L579 226 L579 246 C579 327 558 392 516 441 C473 490 414 514 337 514 C259 514 197 489 150 440 C103 391 79 327 79 250 C79 173 102 111 148 63 C194 14 258 -10 339 -10 L339 -10 Z M197 304 C213 379 263 424 336 424 C407 424 450 384 465 304 L197 304 Z " />
<glyph glyph-name="igrave" unicode="&#xec;" horiz-adv-x="660" d="M303 730 L148 730 L288 580 L386 580 L303 730 Z M401 504 L137 504 L137 409 L291 409 L291 95 L101 95 L101 0 L591 0 L591 95 L401 95 L401 504 Z " />
<glyph glyph-name="iacute" unicode="&#xed;" horiz-adv-x="660" d="M372 730 L289 580 L387 580 L527 730 L372 730 Z M401 504 L137 504 L137 409 L291 409 L291 95 L101 95 L101 0 L591 0 L591 95 L401 95 L401 504 Z " />
<glyph glyph-name="icircumflex" unicode="&#xee;" horiz-adv-x="660" d="M414 570 L510 570 L406 730 L281 730 L177 570 L273 570 L344 655 L414 570 Z M401 504 L137 504 L137 409 L291 409 L291 95 L101 95 L101 0 L591 0 L591 95 L401 95 L401 504 Z " />
<glyph glyph-name="idieresis" unicode="&#xef;" horiz-adv-x="660" d="M164 717 L164 586 L301 586 L301 717 L164 717 Z M385 717 L385 586 L522 586 L522 717 L385 717 Z M401 504 L137 504 L137 409 L291 409 L291 95 L101 95 L101 0 L591 0 L591 95 L401 95 L401 504 Z " />
<glyph glyph-name="eth" unicode="&#xf0;" horiz-adv-x="660" d="M457 708 L422 754 L318 678 C255 696 184 705 104 705 L104 611 C145 611 183 609 219 605 L145 551 L180 506 L296 591 C395 564 459 507 488 420 C451 477 393 506 314 506 C240 506 180 482 135 435 C89 388 66 327 66 252 C66 173 90 110 139 62 C188 14 252 -10 332 -10 C408 -10 471 16 521 69 C571 121 596 192 596 281 C596 464 525 588 382 654 L457 708 Z M331 87 C242 87 178 154 178 250 C178 345 242 412 331 412 C374 412 411 397 440 367 C469 336 484 297 484 250 C484 154 422 87 331 87 L331 87 Z " />
<glyph glyph-name="ntilde" unicode="&#xf1;" horiz-adv-x="660" d="M291 641 C302 641 317 633 337 616 C357 599 378 591 401 591 C468 591 518 630 518 713 L430 713 C429 685 416 671 393 671 C382 671 367 679 348 696 C328 712 307 720 284 720 C220 720 168 681 167 598 L256 598 C257 627 269 641 291 641 L291 641 Z M373 514 C297 514 243 484 210 425 L210 504 L100 504 L100 0 L210 0 L210 261 C210 356 261 414 345 414 C410 414 451 370 451 293 L451 0 L561 0 L561 310 C561 438 494 514 373 514 L373 514 Z " />
<glyph glyph-name="ograve" unicode="&#xf2;" horiz-adv-x="660" d="M300 730 L145 730 L285 580 L383 580 L300 730 Z M141 441 C91 392 66 329 66 253 C66 176 91 113 141 64 C191 15 254 -10 330 -10 C406 -10 469 15 519 64 C569 113 594 176 594 253 C594 329 569 392 519 441 C469 490 406 514 330 514 C254 514 191 490 141 441 L141 441 Z M330 419 C374 419 410 403 439 372 C467 341 481 301 481 253 C481 204 467 164 439 133 C410 101 374 85 330 85 C241 85 178 154 178 253 C178 301 192 341 221 372 C249 403 285 419 330 419 L330 419 Z " />
<glyph glyph-name="oacute" unicode="&#xf3;" horiz-adv-x="660" d="M380 580 L520 730 L365 730 L282 580 L380 580 Z M141 441 C91 392 66 329 66 253 C66 176 91 113 141 64 C191 15 254 -10 330 -10 C406 -10 469 15 519 64 C569 113 594 176 594 253 C594 329 569 392 519 441 C469 490 406 514 330 514 C254 514 191 490 141 441 L141 441 Z M330 419 C374 419 410 403 439 372 C467 341 481 301 481 253 C481 204 467 164 439 133 C410 101 374 85 330 85 C241 85 178 154 178 253 C178 301 192 341 221 372 C249 403 285 419 330 419 L330 419 Z " />
<glyph glyph-name="ocircumflex" unicode="&#xf4;" horiz-adv-x="660" d="M393 730 L268 730 L164 570 L260 570 L331 655 L401 570 L497 570 L393 730 Z M141 441 C91 392 66 329 66 253 C66 176 91 113 141 64 C191 15 254 -10 330 -10 C406 -10 469 15 519 64 C569 113 594 176 594 253 C594 329 569 392 519 441 C469 490 406 514 330 514 C254 514 191 490 141 441 L141 441 Z M330 419 C374 419 410 403 439 372 C467 341 481 301 481 253 C481 204 467 164 439 133 C410 101 374 85 330 85 C241 85 178 154 178 253 C178 301 192 341 221 372 C249 403 285 419 330 419 L330 419 Z " />
<glyph glyph-name="otilde" unicode="&#xf5;" horiz-adv-x="660" d="M395 591 C462 591 512 630 512 713 L424 713 C423 685 410 671 387 671 C376 671 361 679 342 696 C322 712 301 720 278 720 C214 720 162 681 161 598 L250 598 C251 627 263 641 285 641 C296 641 311 633 331 616 C351 599 372 591 395 591 L395 591 Z M141 441 C91 392 66 329 66 253 C66 176 91 113 141 64 C191 15 254 -10 330 -10 C406 -10 469 15 519 64 C569 113 594 176 594 253 C594 329 569 392 519 441 C469 490 406 514 330 514 C254 514 191 490 141 441 L141 441 Z M330 419 C374 419 410 403 439 372 C467 341 481 301 481 253 C481 204 467 164 439 133 C410 101 374 85 330 85 C241 85 178 154 178 253 C178 301 192 341 221 372 C249 403 285 419 330 419 L330 419 Z " />
<glyph glyph-name="odieresis" unicode="&#xf6;" horiz-adv-x="660" d="M288 586 L288 717 L151 717 L151 586 L288 586 Z M509 586 L509 717 L372 717 L372 586 L509 586 Z M141 441 C91 392 66 329 66 253 C66 176 91 113 141 64 C191 15 254 -10 330 -10 C406 -10 469 15 519 64 C569 113 594 176 594 253 C594 329 569 392 519 441 C469 490 406 514 330 514 C254 514 191 490 141 441 L141 441 Z M330 419 C374 419 410 403 439 372 C467 341 481 301 481 253 C481 204 467 164 439 133 C410 101 374 85 330 85 C241 85 178 154 178 253 C178 301 192 341 221 372 C249 403 285 419 330 419 L330 419 Z " />
<glyph glyph-name="divide" unicode="&#xf7;" horiz-adv-x="660" d="M394 479 L394 611 L266 611 L266 479 L394 479 Z M81 301 L578 301 L578 390 L81 390 L81 301 Z M394 70 L394 202 L265 202 L265 70 L394 70 Z " />
<glyph glyph-name="oslash" unicode="&#xf8;" horiz-adv-x="660" d="M583 507 L536 547 L474 475 C431 501 383 514 330 514 C254 514 191 490 141 441 C91 392 66 329 66 253 C66 183 87 124 130 76 L69 5 L115 -36 L176 35 C221 5 272 -10 330 -10 C406 -10 469 15 519 64 C569 113 594 176 594 253 C594 326 570 388 523 437 L583 507 Z M178 253 C178 301 192 341 221 372 C249 403 285 419 330 419 C357 419 383 412 407 398 L201 159 C186 186 178 217 178 253 L178 253 Z M330 85 C297 85 268 94 243 112 L452 355 C471 325 481 291 481 253 C481 204 467 164 439 133 C410 101 374 85 330 85 L330 85 Z " />
<glyph glyph-name="ugrave" unicode="&#xf9;" horiz-adv-x="660" d="M301 730 L146 730 L286 580 L384 580 L301 730 Z M450 504 L450 243 C450 148 399 90 315 90 C250 90 209 134 209 211 L209 504 L99 504 L99 194 C99 66 166 -10 287 -10 C363 -10 417 20 450 79 L450 0 L560 0 L560 504 L450 504 Z " />
<glyph glyph-name="uacute" unicode="&#xfa;" horiz-adv-x="660" d="M362 730 L279 580 L377 580 L517 730 L362 730 Z M450 504 L450 243 C450 148 399 90 315 90 C250 90 209 134 209 211 L209 504 L99 504 L99 194 C99 66 166 -10 287 -10 C363 -10 417 20 450 79 L450 0 L560 0 L560 504 L450 504 Z " />
<glyph glyph-name="ucircumflex" unicode="&#xfb;" horiz-adv-x="660" d="M404 570 L500 570 L396 730 L271 730 L167 570 L263 570 L334 655 L404 570 Z M450 504 L450 243 C450 148 399 90 315 90 C250 90 209 134 209 211 L209 504 L99 504 L99 194 C99 66 166 -10 287 -10 C363 -10 417 20 450 79 L450 0 L560 0 L560 504 L450 504 Z " />
<glyph glyph-name="udieresis" unicode="&#xfc;" horiz-adv-x="660" d="M154 717 L154 586 L291 586 L291 717 L154 717 Z M375 717 L375 586 L512 586 L512 717 L375 717 Z M450 504 L450 243 C450 148 399 90 315 90 C250 90 209 134 209 211 L209 504 L99 504 L99 194 C99 66 166 -10 287 -10 C363 -10 417 20 450 79 L450 0 L560 0 L560 504 L450 504 Z " />
<glyph glyph-name="yacute" unicode="&#xfd;" horiz-adv-x="660" d="M362 730 L279 580 L377 580 L517 730 L362 730 Z M343 117 L180 504 L54 504 L294 -21 L288 -37 C271 -84 226 -118 179 -118 C140 -118 99 -106 54 -81 L54 -184 C94 -202 136 -211 180 -211 C272 -211 344 -160 380 -69 L608 504 L480 504 L343 117 Z " />
<glyph glyph-name="thorn" unicode="&#xfe;" horiz-adv-x="660" d="M351 514 C278 514 222 483 185 422 L183 422 L183 700 L72 700 L72 -196 L183 -196 L183 73 L184 73 C219 18 273 -10 348 -10 C419 -10 478 14 525 63 C572 112 595 174 595 251 C595 327 571 390 524 440 C477 489 419 514 351 514 L351 514 Z M330 85 C241 85 183 150 182 247 L182 255 C182 352 240 419 329 419 C373 419 410 403 439 372 C468 341 483 300 483 251 C483 202 469 163 440 132 C411 101 374 85 330 85 L330 85 Z " />
<glyph glyph-name="ydieresis" unicode="&#xff;" horiz-adv-x="660" d="M154 717 L154 586 L291 586 L291 717 L154 717 Z M375 717 L375 586 L512 586 L512 717 L375 717 Z M343 117 L180 504 L54 504 L294 -21 L288 -37 C271 -84 226 -118 179 -118 C140 -118 99 -106 54 -81 L54 -184 C94 -202 136 -211 180 -211 C272 -211 344 -160 380 -69 L608 504 L480 504 L343 117 Z " />
<glyph glyph-name="Amacron" unicode="&#x100;" horiz-adv-x="660" d="M192 896 L192 814 L468 814 L468 896 L192 896 Z M621 0 L404 700 L256 700 L39 0 L160 0 L203 148 L457 148 L500 0 L621 0 Z M330 581 L428 247 L232 247 L330 581 Z " />
<glyph glyph-name="amacron" unicode="&#x101;" horiz-adv-x="660" d="M191 697 L191 615 L471 615 L471 697 L191 697 Z M571 81 C547 81 525 95 525 120 L525 327 C525 446 449 514 317 514 C190 514 104 450 100 342 L211 342 C215 393 255 423 315 423 C379 423 415 388 415 328 L415 301 L311 301 C156 301 81 232 81 139 C81 47 149 -10 254 -10 C329 -10 383 16 416 67 L421 67 C438 16 482 -9 553 -9 C578 -9 599 -5 616 2 L616 93 C601 85 586 81 571 81 L571 81 Z M282 77 C226 77 192 104 192 148 C192 197 232 222 311 222 L415 222 L415 193 C415 129 361 77 282 77 L282 77 Z " />
<glyph glyph-name="Abreve" unicode="&#x102;" horiz-adv-x="660" d="M328 781 C423 781 488 839 488 924 L391 924 C390 885 364 861 328 861 C295 861 271 885 270 924 L172 924 C172 840 236 781 328 781 L328 781 Z M621 0 L404 700 L256 700 L39 0 L160 0 L203 148 L457 148 L500 0 L621 0 Z M330 581 L428 247 L232 247 L330 581 Z " />
<glyph glyph-name="abreve" unicode="&#x103;" horiz-adv-x="660" d="M329 579 C424 579 484 631 487 723 L392 723 C392 682 366 656 329 656 C294 656 271 682 271 723 L175 723 C178 631 237 579 329 579 L329 579 Z M571 81 C547 81 525 95 525 120 L525 327 C525 446 449 514 317 514 C190 514 104 450 100 342 L211 342 C215 393 255 423 315 423 C379 423 415 388 415 328 L415 301 L311 301 C156 301 81 232 81 139 C81 47 149 -10 254 -10 C329 -10 383 16 416 67 L421 67 C438 16 482 -9 553 -9 C578 -9 599 -5 616 2 L616 93 C601 85 586 81 571 81 L571 81 Z M282 77 C226 77 192 104 192 148 C192 197 232 222 311 222 L415 222 L415 193 C415 129 361 77 282 77 L282 77 Z " />
<glyph glyph-name="Aogonek" unicode="&#x104;" horiz-adv-x="660" d="M592 -110 C567 -110 551 -97 551 -76 C551 -67 554 -59 561 -50 C574 -32 585 -25 621 0 L404 700 L256 700 L39 0 L160 0 L203 148 L457 148 L500 0 L557 0 C486 -24 450 -63 450 -104 C450 -153 492 -191 568 -191 C592 -191 618 -187 645 -180 L645 -100 C628 -107 611 -110 592 -110 L592 -110 Z M330 581 L428 247 L232 247 L330 581 Z " />
<glyph glyph-name="aogonek" unicode="&#x105;" horiz-adv-x="660" d="M587 -108 C562 -108 546 -95 546 -74 C546 -65 549 -57 556 -48 C569 -30 580 -23 616 2 L616 93 C601 85 586 81 571 81 C547 81 525 95 525 120 L525 327 C525 446 449 514 317 514 C190 514 104 450 100 342 L211 342 C215 393 255 423 315 423 C379 423 415 388 415 328 L415 301 L311 301 C156 301 81 232 81 139 C81 47 149 -10 254 -10 C329 -10 383 16 416 67 L421 67 C436 24 471 -1 527 -8 C472 -31 445 -63 445 -102 C445 -151 487 -189 563 -189 C587 -189 613 -185 640 -178 L640 -98 C623 -105 606 -108 587 -108 L587 -108 Z M282 77 C226 77 192 104 192 148 C192 197 232 222 311 222 L415 222 L415 193 C415 129 361 77 282 77 L282 77 Z " />
<glyph glyph-name="Cacute" unicode="&#x106;" horiz-adv-x="660" d="M399 784 L543 940 L376 940 L300 784 L399 784 Z M486 244 C475 143 428 93 345 93 C240 93 188 179 188 350 C188 519 240 604 345 604 C428 604 475 554 486 455 L612 455 C591 622 498 707 345 707 C162 707 62 583 62 350 C62 117 162 -11 345 -11 C498 -11 591 80 612 244 L486 244 Z " />
<glyph glyph-name="cacute" unicode="&#x107;" horiz-adv-x="660" d="M388 580 L528 730 L373 730 L290 580 L388 580 Z M477 194 C464 126 416 85 345 85 C253 85 193 154 193 253 C193 350 253 419 345 419 C413 419 459 381 475 320 L587 320 C580 379 554 426 509 461 C464 496 409 514 344 514 C267 514 203 490 154 441 C105 392 80 329 80 253 C80 177 105 114 155 65 C204 15 268 -10 345 -10 C412 -10 468 9 513 46 C558 83 583 133 589 194 L477 194 Z " />
<glyph glyph-name="Cdotaccent" unicode="&#x10a;" horiz-adv-x="660" d="M415 796 L415 927 L278 927 L278 796 L415 796 Z M486 244 C475 143 428 93 345 93 C240 93 188 179 188 350 C188 519 240 604 345 604 C428 604 475 554 486 455 L612 455 C591 622 498 707 345 707 C162 707 62 583 62 350 C62 117 162 -11 345 -11 C498 -11 591 80 612 244 L486 244 Z " />
<glyph glyph-name="cdotaccent" unicode="&#x10b;" horiz-adv-x="660" d="M414 586 L414 717 L276 717 L276 586 L414 586 Z M477 194 C464 126 416 85 345 85 C253 85 193 154 193 253 C193 350 253 419 345 419 C413 419 459 381 475 320 L587 320 C580 379 554 426 509 461 C464 496 409 514 344 514 C267 514 203 490 154 441 C105 392 80 329 80 253 C80 177 105 114 155 65 C204 15 268 -10 345 -10 C412 -10 468 9 513 46 C558 83 583 133 589 194 L477 194 Z " />
<glyph glyph-name="Ccaron" unicode="&#x10c;" horiz-adv-x="660" d="M422 940 L353 838 L283 940 L181 940 L286 770 L419 770 L524 940 L422 940 Z M486 244 C475 143 428 93 345 93 C240 93 188 179 188 350 C188 519 240 604 345 604 C428 604 475 554 486 455 L612 455 C591 622 498 707 345 707 C162 707 62 583 62 350 C62 117 162 -11 345 -11 C498 -11 591 80 612 244 L486 244 Z " />
<glyph glyph-name="ccaron" unicode="&#x10d;" horiz-adv-x="660" d="M415 726 L345 641 L274 726 L178 726 L282 566 L407 566 L511 726 L415 726 Z M477 194 C464 126 416 85 345 85 C253 85 193 154 193 253 C193 350 253 419 345 419 C413 419 459 381 475 320 L587 320 C580 379 554 426 509 461 C464 496 409 514 344 514 C267 514 203 490 154 441 C105 392 80 329 80 253 C80 177 105 114 155 65 C204 15 268 -10 345 -10 C412 -10 468 9 513 46 C558 83 583 133 589 194 L477 194 Z " />
<glyph glyph-name="Dcaron" unicode="&#x10e;" horiz-adv-x="660" d="M387 940 L318 838 L248 940 L146 940 L251 770 L384 770 L489 940 L387 940 Z M82 700 L82 0 L275 0 C384 0 467 32 526 97 C585 161 614 246 614 351 C614 456 585 540 526 604 C467 668 384 700 275 700 L82 700 Z M203 104 L203 596 L285 596 C421 596 488 503 488 351 C488 198 421 104 285 104 L203 104 Z " />
<glyph glyph-name="dcaron" unicode="&#x10f;" horiz-adv-x="660" d="M292 -10 C367 -10 424 21 465 82 L467 82 L467 0 L578 0 L578 700 L467 700 L467 431 L466 431 C429 486 372 514 295 514 C226 514 168 490 123 441 C78 392 55 330 55 253 C55 176 78 113 123 64 C168 15 225 -10 292 -10 L292 -10 Z M649 498 L723 498 L785 700 L667 700 L649 498 Z M320 419 C409 419 467 354 468 257 L468 249 C468 152 410 85 321 85 C277 85 240 101 211 132 C182 163 167 204 167 253 C167 302 182 342 211 373 C240 404 276 419 320 419 L320 419 Z " />
<glyph glyph-name="Dcroat" unicode="&#x110;" horiz-adv-x="660" d="M98 700 L98 398 L40 398 L40 311 L98 311 L98 0 L291 0 C400 0 483 32 542 97 C601 161 630 246 630 351 C630 456 601 540 542 604 C483 668 400 700 291 700 L98 700 Z M219 104 L219 311 L356 311 L356 398 L219 398 L219 596 L301 596 C437 596 504 503 504 351 C504 198 437 104 301 104 L219 104 Z " />
<glyph glyph-name="dslash" unicode="&#x111;" horiz-adv-x="660" d="M578 633 L578 700 L467 700 L467 633 L254 633 L254 564 L467 564 L467 431 L466 431 C429 486 372 514 295 514 C226 514 168 490 123 441 C78 392 55 330 55 253 C55 176 78 113 123 64 C168 15 225 -10 292 -10 C367 -10 424 21 465 82 L467 82 L467 0 L578 0 L578 564 L650 564 L650 633 L578 633 Z M468 249 C468 152 410 85 321 85 C277 85 240 101 211 132 C182 163 167 204 167 253 C167 302 182 342 211 373 C240 404 276 419 320 419 C409 419 467 354 468 257 L468 249 Z " />
<glyph glyph-name="Emacron" unicode="&#x112;" horiz-adv-x="660" d="M472 814 L472 896 L196 896 L196 814 L472 814 Z M568 700 L109 700 L109 0 L568 0 L568 102 L230 102 L230 303 L540 303 L540 406 L230 406 L230 598 L568 598 L568 700 Z " />
<glyph glyph-name="emacron" unicode="&#x113;" horiz-adv-x="660" d="M196 615 L476 615 L476 697 L196 697 L196 615 Z M339 -10 C464 -10 544 57 576 161 L463 161 C436 109 394 83 335 83 C250 83 200 138 193 225 L193 226 L579 226 L579 246 C579 327 558 392 516 441 C473 490 414 514 337 514 C259 514 197 489 150 440 C103 391 79 327 79 250 C79 173 102 111 148 63 C194 14 258 -10 339 -10 L339 -10 Z M197 304 C213 379 263 424 336 424 C407 424 450 384 465 304 L197 304 Z " />
<glyph glyph-name="Ebreve" unicode="&#x114;" horiz-adv-x="660" d="M332 781 C427 781 492 839 492 924 L395 924 C394 885 368 861 332 861 C299 861 275 885 274 924 L176 924 C176 840 240 781 332 781 L332 781 Z M568 700 L109 700 L109 0 L568 0 L568 102 L230 102 L230 303 L540 303 L540 406 L230 406 L230 598 L568 598 L568 700 Z " />
<glyph glyph-name="ebreve" unicode="&#x115;" horiz-adv-x="660" d="M334 579 C429 579 489 631 492 723 L397 723 C397 682 371 656 334 656 C299 656 276 682 276 723 L180 723 C183 631 242 579 334 579 L334 579 Z M339 -10 C464 -10 544 57 576 161 L463 161 C436 109 394 83 335 83 C250 83 200 138 193 225 L193 226 L579 226 L579 246 C579 327 558 392 516 441 C473 490 414 514 337 514 C259 514 197 489 150 440 C103 391 79 327 79 250 C79 173 102 111 148 63 C194 14 258 -10 339 -10 L339 -10 Z M197 304 C213 379 263 424 336 424 C407 424 450 384 465 304 L197 304 Z " />
<glyph glyph-name="Edotaccent" unicode="&#x116;" horiz-adv-x="660" d="M404 796 L404 927 L267 927 L267 796 L404 796 Z M568 700 L109 700 L109 0 L568 0 L568 102 L230 102 L230 303 L540 303 L540 406 L230 406 L230 598 L568 598 L568 700 Z " />
<glyph glyph-name="edotaccent" unicode="&#x117;" horiz-adv-x="660" d="M406 586 L406 717 L268 717 L268 586 L406 586 Z M339 -10 C464 -10 544 57 576 161 L463 161 C436 109 394 83 335 83 C250 83 200 138 193 225 L193 226 L579 226 L579 246 C579 327 558 392 516 441 C473 490 414 514 337 514 C259 514 197 489 150 440 C103 391 79 327 79 250 C79 173 102 111 148 63 C194 14 258 -10 339 -10 L339 -10 Z M197 304 C213 379 263 424 336 424 C407 424 450 384 465 304 L197 304 Z " />
<glyph glyph-name="Eogonek" unicode="&#x118;" horiz-adv-x="660" d="M539 -110 C514 -110 498 -97 498 -76 C498 -67 501 -59 508 -50 C521 -32 532 -25 568 0 L568 102 L230 102 L230 303 L540 303 L540 406 L230 406 L230 598 L568 598 L568 700 L109 700 L109 0 L504 0 C433 -24 397 -63 397 -104 C397 -153 439 -191 515 -191 C539 -191 565 -187 592 -180 L592 -100 C575 -107 558 -110 539 -110 L539 -110 Z " />
<glyph glyph-name="eogonek" unicode="&#x119;" horiz-adv-x="660" d="M579 246 C579 327 558 392 516 441 C473 490 414 514 337 514 C259 514 197 489 150 440 C103 391 79 327 79 250 C79 173 102 111 148 63 C194 14 258 -10 339 -10 C353 -10 367 -9 380 -7 C327 -42 308 -69 308 -106 C308 -161 357 -191 429 -191 C455 -191 482 -187 509 -180 L509 -100 C492 -107 474 -110 455 -110 C428 -110 415 -98 415 -74 C415 -61 420 -46 431 -31 C442 -15 464 9 498 41 C534 69 560 109 576 161 L463 161 C436 109 394 83 335 83 C250 83 200 138 193 225 L193 226 L579 226 L579 246 Z M336 424 C407 424 450 384 465 304 L197 304 C213 379 263 424 336 424 L336 424 Z " />
<glyph glyph-name="Ecaron" unicode="&#x11a;" horiz-adv-x="660" d="M411 940 L342 838 L272 940 L170 940 L275 770 L408 770 L513 940 L411 940 Z M568 700 L109 700 L109 0 L568 0 L568 102 L230 102 L230 303 L540 303 L540 406 L230 406 L230 598 L568 598 L568 700 Z " />
<glyph glyph-name="ecaron" unicode="&#x11b;" horiz-adv-x="660" d="M407 726 L337 641 L266 726 L170 726 L274 566 L399 566 L503 726 L407 726 Z M339 -10 C464 -10 544 57 576 161 L463 161 C436 109 394 83 335 83 C250 83 200 138 193 225 L193 226 L579 226 L579 246 C579 327 558 392 516 441 C473 490 414 514 337 514 C259 514 197 489 150 440 C103 391 79 327 79 250 C79 173 102 111 148 63 C194 14 258 -10 339 -10 L339 -10 Z M197 304 C213 379 263 424 336 424 C407 424 450 384 465 304 L197 304 Z " />
<glyph glyph-name="Gbreve" unicode="&#x11e;" horiz-adv-x="660" d="M330 781 C425 781 490 839 490 924 L393 924 C392 885 366 861 330 861 C297 861 273 885 272 924 L174 924 C174 840 238 781 330 781 L330 781 Z M482 274 C478 158 428 93 339 93 C235 93 183 179 183 350 C183 519 235 604 340 604 C419 604 464 559 476 469 L602 469 C582 624 489 707 340 707 C159 707 57 583 57 351 C57 119 158 -10 323 -10 C407 -10 464 25 493 96 L493 0 L601 0 L601 376 L337 376 L337 274 L482 274 Z " />
<glyph glyph-name="gbreve" unicode="&#x11f;" horiz-adv-x="660" d="M330 579 C425 579 485 631 488 723 L393 723 C393 682 367 656 330 656 C295 656 272 682 272 723 L176 723 C179 631 238 579 330 579 L330 579 Z M621 560 C550 560 493 534 450 481 C411 503 366 514 315 514 C252 514 199 498 156 465 C113 432 92 391 92 340 C92 280 121 233 179 199 C143 173 125 144 125 113 C125 77 146 54 189 44 C105 35 60 -7 60 -71 C60 -112 83 -146 129 -172 C174 -198 234 -211 307 -211 C392 -211 460 -195 511 -163 C562 -131 587 -89 587 -38 C587 45 523 102 415 102 L257 102 C236 102 225 111 225 130 C225 142 229 157 237 175 C264 168 290 165 315 165 C379 165 433 182 476 215 C519 248 540 289 540 340 C540 383 524 420 492 451 C531 454 574 456 621 456 L621 560 L621 560 Z M314 242 C253 242 207 283 207 340 C207 396 253 437 314 437 C377 437 423 396 423 340 C423 283 377 242 314 242 L314 242 Z M391 8 C440 8 468 -13 468 -44 C468 -91 419 -126 314 -126 C225 -126 176 -98 176 -51 C176 -16 205 8 250 8 L391 8 Z " />
<glyph glyph-name="Gdotaccent" unicode="&#x120;" horiz-adv-x="660" d="M265 927 L265 796 L402 796 L402 927 L265 927 Z M482 274 C478 158 428 93 339 93 C235 93 183 179 183 350 C183 519 235 604 340 604 C419 604 464 559 476 469 L602 469 C582 624 489 707 340 707 C159 707 57 583 57 351 C57 119 158 -10 323 -10 C407 -10 464 25 493 96 L493 0 L601 0 L601 376 L337 376 L337 274 L482 274 Z " />
<glyph glyph-name="gdotaccent" unicode="&#x121;" horiz-adv-x="660" d="M260 717 L260 586 L398 586 L398 717 L260 717 Z M621 560 C550 560 493 534 450 481 C411 503 366 514 315 514 C252 514 199 498 156 465 C113 432 92 391 92 340 C92 280 121 233 179 199 C143 173 125 144 125 113 C125 77 146 54 189 44 C105 35 60 -7 60 -71 C60 -112 83 -146 129 -172 C174 -198 234 -211 307 -211 C392 -211 460 -195 511 -163 C562 -131 587 -89 587 -38 C587 45 523 102 415 102 L257 102 C236 102 225 111 225 130 C225 142 229 157 237 175 C264 168 290 165 315 165 C379 165 433 182 476 215 C519 248 540 289 540 340 C540 383 524 420 492 451 C531 454 574 456 621 456 L621 560 L621 560 Z M314 242 C253 242 207 283 207 340 C207 396 253 437 314 437 C377 437 423 396 423 340 C423 283 377 242 314 242 L314 242 Z M391 8 C440 8 468 -13 468 -44 C468 -91 419 -126 314 -126 C225 -126 176 -98 176 -51 C176 -16 205 8 250 8 L391 8 Z " />
<glyph glyph-name="Gcommaaccent" unicode="&#x122;" horiz-adv-x="660" d="M482 274 C478 158 428 93 339 93 C235 93 183 179 183 350 C183 519 235 604 340 604 C419 604 464 559 476 469 L602 469 C582 624 489 707 340 707 C159 707 57 583 57 351 C57 119 158 -10 323 -10 C407 -10 464 25 493 96 L493 0 L601 0 L601 376 L337 376 L337 274 L482 274 Z M316 -253 L406 -62 L261 -62 L237 -253 L316 -253 Z " />
<glyph glyph-name="gcommaaccent" unicode="&#x123;" horiz-adv-x="660" d="M341 761 L251 570 L396 570 L420 761 L341 761 Z M621 560 C550 560 493 534 450 481 C411 503 366 514 315 514 C252 514 199 498 156 465 C113 432 92 391 92 340 C92 280 121 233 179 199 C143 173 125 144 125 113 C125 77 146 54 189 44 C105 35 60 -7 60 -71 C60 -112 83 -146 129 -172 C174 -198 234 -211 307 -211 C392 -211 460 -195 511 -163 C562 -131 587 -89 587 -38 C587 45 523 102 415 102 L257 102 C236 102 225 111 225 130 C225 142 229 157 237 175 C264 168 290 165 315 165 C379 165 433 182 476 215 C519 248 540 289 540 340 C540 383 524 420 492 451 C531 454 574 456 621 456 L621 560 L621 560 Z M314 242 C253 242 207 283 207 340 C207 396 253 437 314 437 C377 437 423 396 423 340 C423 283 377 242 314 242 L314 242 Z M391 8 C440 8 468 -13 468 -44 C468 -91 419 -126 314 -126 C225 -126 176 -98 176 -51 C176 -16 205 8 250 8 L391 8 Z " />
<glyph glyph-name="Hbar" unicode="&#x126;" horiz-adv-x="660" d="M587 582 L587 700 L466 700 L466 582 L194 582 L194 700 L73 700 L73 582 L32 582 L32 513 L73 513 L73 0 L194 0 L194 301 L466 301 L466 0 L587 0 L587 513 L626 513 L626 582 L587 582 Z M194 405 L194 513 L466 513 L466 405 L194 405 Z " />
<glyph glyph-name="hbar" unicode="&#x127;" horiz-adv-x="660" d="M376 514 C301 514 246 485 213 427 L213 566 L415 566 L415 631 L213 631 L213 700 L103 700 L103 631 L19 631 L19 566 L103 566 L103 0 L213 0 L213 261 C213 356 265 414 348 414 C413 414 454 372 454 293 L454 0 L565 0 L565 310 C565 438 497 514 376 514 L376 514 Z " />
<glyph glyph-name="Imacron" unicode="&#x12a;" horiz-adv-x="660" d="M193 896 L193 814 L469 814 L469 896 L193 896 Z M578 700 L83 700 L83 603 L270 603 L270 97 L83 97 L83 0 L578 0 L578 97 L391 97 L391 603 L578 603 L578 700 Z " />
<glyph glyph-name="imacron" unicode="&#x12b;" horiz-adv-x="660" d="M203 697 L203 615 L483 615 L483 697 L203 697 Z M401 504 L137 504 L137 409 L291 409 L291 95 L101 95 L101 0 L591 0 L591 95 L401 95 L401 504 Z " />
<glyph glyph-name="Iogonek" unicode="&#x12e;" horiz-adv-x="660" d="M578 700 L83 700 L83 603 L270 603 L270 97 L83 97 L83 0 L314 0 C243 -24 207 -63 207 -104 C207 -153 249 -191 325 -191 C349 -191 375 -187 402 -180 L402 -100 C385 -107 368 -110 349 -110 C324 -110 308 -97 308 -76 C308 -67 311 -59 318 -50 C331 -32 342 -25 378 0 L578 0 L578 97 L391 97 L391 603 L578 603 L578 700 Z " />
<glyph glyph-name="iogonek" unicode="&#x12f;" horiz-adv-x="660" d="M276 717 L276 584 L416 584 L416 717 L276 717 Z M591 0 L591 95 L401 95 L401 504 L137 504 L137 409 L291 409 L291 95 L101 95 L101 0 L328 0 C257 -24 221 -63 221 -104 C221 -153 263 -191 339 -191 C363 -191 389 -187 416 -180 L416 -100 C399 -107 382 -110 363 -110 C338 -110 322 -97 322 -76 C322 -67 325 -59 332 -50 C345 -32 356 -25 392 0 L591 0 Z " />
<glyph glyph-name="Idot" unicode="&#x130;" horiz-adv-x="660" d="M264 927 L264 796 L401 796 L401 927 L264 927 Z M578 700 L83 700 L83 603 L270 603 L270 97 L83 97 L83 0 L578 0 L578 97 L391 97 L391 603 L578 603 L578 700 Z " />
<glyph glyph-name="dotlessi" unicode="&#x131;" horiz-adv-x="660" d="M401 504 L137 504 L137 409 L291 409 L291 95 L101 95 L101 0 L591 0 L591 95 L401 95 L401 504 Z " />
<glyph glyph-name="ij" unicode="&#x133;" horiz-adv-x="660" d="M243 584 L243 717 L102 717 L102 584 L243 584 Z M558 584 L558 717 L417 717 L417 584 L558 584 Z M228 0 L228 504 L117 504 L117 0 L228 0 Z M301 -213 C379 -213 439 -194 481 -155 C523 -116 544 -67 544 -8 L544 504 L433 504 L433 1 C433 -70 385 -117 301 -117 L301 -213 L301 -213 Z " />
<glyph glyph-name="Kcommaaccent" unicode="&#x136;" horiz-adv-x="660" d="M611 700 L483 700 L339 406 L213 406 L213 700 L92 700 L92 0 L213 0 L213 302 L341 302 L498 0 L635 0 L440 356 L611 700 Z M317 -253 L407 -62 L262 -62 L238 -253 L317 -253 Z " />
<glyph glyph-name="kcommaaccent" unicode="&#x137;" horiz-adv-x="660" d="M608 504 L475 504 L365 326 L216 326 L216 700 L106 700 L106 0 L216 0 L216 230 L368 230 L492 0 L626 0 L460 282 L608 504 Z M326 -253 L416 -62 L271 -62 L247 -253 L326 -253 Z " />
<glyph glyph-name="Lacute" unicode="&#x139;" horiz-adv-x="660" d="M232 940 L156 784 L255 784 L399 940 L232 940 Z M259 700 L138 700 L138 0 L600 0 L600 103 L259 103 L259 700 Z " />
<glyph glyph-name="lacute" unicode="&#x13a;" horiz-adv-x="660" d="M325 926 L242 776 L340 776 L480 926 L325 926 Z M460 86 C395 86 348 129 348 188 L348 700 L52 700 L52 605 L238 605 L238 184 C238 127 258 80 299 44 C339 8 391 -10 454 -10 C491 -10 540 0 602 21 L602 129 C550 100 503 86 460 86 L460 86 Z " />
<glyph glyph-name="Lcommaaccent" unicode="&#x13b;" horiz-adv-x="660" d="M259 700 L138 700 L138 0 L600 0 L600 103 L259 103 L259 700 Z M348 -253 L438 -62 L293 -62 L269 -253 L348 -253 Z " />
<glyph glyph-name="lcommaaccent" unicode="&#x13c;" horiz-adv-x="660" d="M460 86 C395 86 348 129 348 188 L348 700 L52 700 L52 605 L238 605 L238 184 C238 127 258 80 299 44 C339 8 391 -10 454 -10 C491 -10 540 0 602 21 L602 129 C550 100 503 86 460 86 L460 86 Z M387 -253 L477 -62 L332 -62 L308 -253 L387 -253 Z " />
<glyph glyph-name="Lcaron" unicode="&#x13d;" horiz-adv-x="660" d="M259 700 L138 700 L138 0 L600 0 L600 103 L259 103 L259 700 Z M393 700 L375 476 L455 476 L524 700 L393 700 Z " />
<glyph glyph-name="lcaron" unicode="&#x13e;" horiz-adv-x="660" d="M450 763 L432 561 L506 561 L568 763 L450 763 Z M460 86 C395 86 348 129 348 188 L348 700 L52 700 L52 605 L238 605 L238 184 C238 127 258 80 299 44 C339 8 391 -10 454 -10 C491 -10 540 0 602 21 L602 129 C550 100 503 86 460 86 L460 86 Z " />
<glyph glyph-name="Ldot" unicode="&#x13f;" horiz-adv-x="660" d="M259 700 L138 700 L138 0 L600 0 L600 103 L259 103 L259 700 Z M380 403 L380 258 L530 258 L530 403 L380 403 Z " />
<glyph glyph-name="ldot" unicode="&#x140;" horiz-adv-x="660" d="M348 700 L52 700 L52 605 L238 605 L238 184 C238 127 258 80 299 44 C339 8 391 -10 454 -10 C491 -10 540 0 602 21 L602 129 C550 100 503 86 460 86 C395 86 348 129 348 188 L348 700 Z M462 258 L612 258 L612 403 L462 403 L462 258 Z " />
<glyph glyph-name="Lslash" unicode="&#x141;" horiz-adv-x="660" d="M259 301 L477 397 L477 498 L259 402 L259 700 L138 700 L138 349 L55 313 L55 212 L138 248 L138 0 L600 0 L600 103 L259 103 L259 301 Z " />
<glyph glyph-name="lslash" unicode="&#x142;" horiz-adv-x="660" d="M460 86 C395 86 348 129 348 188 L348 381 L529 462 L529 549 L348 468 L348 700 L52 700 L52 605 L238 605 L238 419 L91 354 L91 267 L238 332 L238 184 C238 127 258 80 299 44 C339 8 391 -10 454 -10 C491 -10 540 0 602 21 L602 129 C550 100 503 86 460 86 L460 86 Z " />
<glyph glyph-name="Nacute" unicode="&#x143;" horiz-adv-x="660" d="M370 940 L294 784 L393 784 L537 940 L370 940 Z M455 218 L196 700 L85 700 L85 0 L205 0 L205 482 L466 0 L575 0 L575 700 L455 700 L455 218 Z " />
<glyph glyph-name="nacute" unicode="&#x144;" horiz-adv-x="660" d="M365 730 L282 580 L380 580 L520 730 L365 730 Z M373 514 C297 514 243 484 210 425 L210 504 L100 504 L100 0 L210 0 L210 261 C210 356 261 414 345 414 C410 414 451 370 451 293 L451 0 L561 0 L561 310 C561 438 494 514 373 514 L373 514 Z " />
<glyph glyph-name="Ncommaaccent" unicode="&#x145;" horiz-adv-x="660" d="M455 218 L196 700 L85 700 L85 0 L205 0 L205 482 L466 0 L575 0 L575 700 L455 700 L455 218 Z M318 -253 L408 -62 L263 -62 L239 -253 L318 -253 Z " />
<glyph glyph-name="ncommaaccent" unicode="&#x146;" horiz-adv-x="660" d="M373 514 C297 514 243 484 210 425 L210 504 L100 504 L100 0 L210 0 L210 261 C210 356 261 414 345 414 C410 414 451 370 451 293 L451 0 L561 0 L561 310 C561 438 494 514 373 514 L373 514 Z M325 -253 L415 -62 L270 -62 L246 -253 L325 -253 Z " />
<glyph glyph-name="Ncaron" unicode="&#x147;" horiz-adv-x="660" d="M518 940 L416 940 L347 838 L277 940 L175 940 L280 770 L413 770 L518 940 Z M455 218 L196 700 L85 700 L85 0 L205 0 L205 482 L466 0 L575 0 L575 700 L455 700 L455 218 Z " />
<glyph glyph-name="ncaron" unicode="&#x148;" horiz-adv-x="660" d="M503 726 L407 726 L337 641 L266 726 L170 726 L274 566 L399 566 L503 726 Z M373 514 C297 514 243 484 210 425 L210 504 L100 504 L100 0 L210 0 L210 261 C210 356 261 414 345 414 C410 414 451 370 451 293 L451 0 L561 0 L561 310 C561 438 494 514 373 514 L373 514 Z " />
<glyph glyph-name="Eng" unicode="&#x14a;" horiz-adv-x="660" d="M455 218 L196 700 L85 700 L85 0 L205 0 L205 482 L460 11 L460 -48 C460 -87 427 -115 390 -115 C365 -115 336 -109 301 -98 L301 -201 C340 -209 376 -213 409 -213 C457 -213 497 -198 528 -167 C559 -136 575 -96 575 -49 L575 700 L455 700 L455 218 Z " />
<glyph glyph-name="eng" unicode="&#x14b;" horiz-adv-x="660" d="M373 514 C297 514 243 484 210 425 L210 504 L100 504 L100 0 L210 0 L210 261 C210 356 261 414 345 414 C410 414 451 370 451 293 L451 -47 C451 -86 422 -115 367 -115 C343 -115 318 -110 293 -99 L293 -200 C320 -209 351 -213 385 -213 C436 -213 479 -198 512 -168 C545 -137 561 -99 561 -53 L561 310 C561 438 494 514 373 514 L373 514 Z " />
<glyph glyph-name="Omacron" unicode="&#x14c;" horiz-adv-x="660" d="M468 814 L468 896 L192 896 L192 814 L468 814 Z M123 616 C76 553 52 464 52 349 C52 122 147 -10 330 -10 C513 -10 608 122 608 349 C608 464 585 553 538 616 C491 679 421 711 330 711 C239 711 170 679 123 616 L123 616 Z M483 349 C483 178 432 92 330 92 C228 92 177 178 177 349 C177 522 228 609 330 609 C432 609 483 522 483 349 L483 349 Z " />
<glyph glyph-name="omacron" unicode="&#x14d;" horiz-adv-x="660" d="M190 615 L470 615 L470 697 L190 697 L190 615 Z M141 441 C91 392 66 329 66 253 C66 176 91 113 141 64 C191 15 254 -10 330 -10 C406 -10 469 15 519 64 C569 113 594 176 594 253 C594 329 569 392 519 441 C469 490 406 514 330 514 C254 514 191 490 141 441 L141 441 Z M330 419 C374 419 410 403 439 372 C467 341 481 301 481 253 C481 204 467 164 439 133 C410 101 374 85 330 85 C241 85 178 154 178 253 C178 301 192 341 221 372 C249 403 285 419 330 419 L330 419 Z " />
<glyph glyph-name="Ohungarumlaut" unicode="&#x150;" horiz-adv-x="660" d="M283 770 L393 940 L247 940 L189 770 L283 770 Z M485 770 L595 940 L449 940 L391 770 L485 770 Z M123 616 C76 553 52 464 52 349 C52 122 147 -10 330 -10 C513 -10 608 122 608 349 C608 464 585 553 538 616 C491 679 421 711 330 711 C239 711 170 679 123 616 L123 616 Z M483 349 C483 178 432 92 330 92 C228 92 177 178 177 349 C177 522 228 609 330 609 C432 609 483 522 483 349 L483 349 Z " />
<glyph glyph-name="ohungarumlaut" unicode="&#x151;" horiz-adv-x="660" d="M280 572 L397 730 L248 730 L196 572 L280 572 Z M462 572 L579 730 L430 730 L378 572 L462 572 Z M141 441 C91 392 66 329 66 253 C66 176 91 113 141 64 C191 15 254 -10 330 -10 C406 -10 469 15 519 64 C569 113 594 176 594 253 C594 329 569 392 519 441 C469 490 406 514 330 514 C254 514 191 490 141 441 L141 441 Z M330 419 C374 419 410 403 439 372 C467 341 481 301 481 253 C481 204 467 164 439 133 C410 101 374 85 330 85 C241 85 178 154 178 253 C178 301 192 341 221 372 C249 403 285 419 330 419 L330 419 Z " />
<glyph glyph-name="OE" unicode="&#x152;" horiz-adv-x="660" d="M626 700 L304 700 C219 700 152 669 103 606 C54 543 30 458 30 351 C30 243 54 158 103 95 C152 32 219 0 304 0 L626 0 L626 104 L425 104 L425 305 L601 305 L601 404 L425 404 L425 596 L626 596 L626 700 Z M308 104 C207 104 148 196 148 351 C148 506 207 596 308 596 L314 596 L314 104 L308 104 Z " />
<glyph glyph-name="oe" unicode="&#x153;" horiz-adv-x="660" d="M630 226 L630 252 C630 424 569 514 456 514 C401 514 359 494 330 453 C299 494 257 514 204 514 C91 514 29 423 29 252 C29 81 91 -10 204 -10 C258 -10 300 11 330 52 C359 11 401 -10 456 -10 C549 -10 605 49 624 166 L523 166 C514 113 491 86 456 86 C411 86 386 133 383 226 L630 226 Z M204 86 C155 86 130 141 130 252 C130 363 155 418 204 418 C253 418 277 363 277 252 C277 141 253 86 204 86 L204 86 Z M456 418 C497 418 520 381 527 307 L384 307 C392 381 416 418 456 418 L456 418 Z " />
<glyph glyph-name="Racute" unicode="&#x154;" horiz-adv-x="660" d="M338 940 L262 784 L361 784 L505 940 L338 940 Z M442 312 C535 339 595 410 595 506 C595 564 573 611 529 647 C485 682 429 700 360 700 L92 700 L92 0 L213 0 L213 301 L329 301 L466 0 L602 0 L442 312 Z M360 600 C428 600 475 562 475 506 C475 443 428 400 360 400 L213 400 L213 600 L360 600 Z " />
<glyph glyph-name="racute" unicode="&#x155;" horiz-adv-x="660" d="M399 730 L316 580 L414 580 L554 730 L399 730 Z M339 504 L100 504 L100 409 L229 409 L229 95 L100 95 L100 0 L536 0 L536 95 L339 95 L339 176 L339 211 C341 281 354 329 378 354 C413 391 486 405 598 398 L598 512 C457 512 378 478 339 402 L339 504 Z " />
<glyph glyph-name="Rcommaaccent" unicode="&#x156;" horiz-adv-x="660" d="M442 312 C535 339 595 410 595 506 C595 564 573 611 529 647 C485 682 429 700 360 700 L92 700 L92 0 L213 0 L213 301 L329 301 L466 0 L602 0 L442 312 L442 312 Z M360 600 C428 600 475 562 475 506 C475 443 428 400 360 400 L213 400 L213 600 L360 600 Z M315 -253 L405 -62 L260 -62 L236 -253 L315 -253 Z " />
<glyph glyph-name="rcommaaccent" unicode="&#x157;" horiz-adv-x="660" d="M339 504 L100 504 L100 409 L229 409 L229 95 L100 95 L100 0 L536 0 L536 95 L339 95 L339 176 L339 211 C341 281 354 329 378 354 C413 391 486 405 598 398 L598 512 C457 512 378 478 339 402 L339 504 Z M263 -253 L353 -62 L208 -62 L184 -253 L263 -253 Z " />
<glyph glyph-name="Rcaron" unicode="&#x158;" horiz-adv-x="660" d="M504 941 L402 941 L333 839 L263 941 L161 941 L266 771 L399 771 L504 941 Z M442 312 C535 339 595 410 595 506 C595 564 573 611 529 647 C485 682 429 700 360 700 L92 700 L92 0 L213 0 L213 301 L329 301 L466 0 L602 0 L442 312 Z M360 600 C428 600 475 562 475 506 C475 443 428 400 360 400 L213 400 L213 600 L360 600 Z " />
<glyph glyph-name="rcaron" unicode="&#x159;" horiz-adv-x="660" d="M537 726 L441 726 L371 641 L300 726 L204 726 L308 566 L433 566 L537 726 Z M339 504 L100 504 L100 409 L229 409 L229 95 L100 95 L100 0 L536 0 L536 95 L339 95 L339 176 L339 211 C341 281 354 329 378 354 C413 391 486 405 598 398 L598 512 C457 512 378 478 339 402 L339 504 Z " />
<glyph glyph-name="Sacute" unicode="&#x15a;" horiz-adv-x="660" d="M390 784 L534 940 L367 940 L291 784 L390 784 Z M62 246 C67 79 177 -10 345 -10 C504 -10 601 69 601 197 C601 256 575 303 547 330 C533 343 514 356 489 367 C437 391 423 393 367 406 C304 421 262 435 239 448 C216 461 205 484 205 516 C205 581 253 614 326 614 C411 614 457 568 466 476 L587 476 C578 633 490 711 323 711 C176 711 84 643 84 512 C84 438 113 398 154 367 C167 357 184 348 205 340 C248 324 275 317 331 304 C440 279 480 251 480 194 C480 126 429 89 349 89 C256 89 191 141 183 246 L62 246 Z " />
<glyph glyph-name="sacute" unicode="&#x15b;" horiz-adv-x="660" d="M374 580 L514 730 L359 730 L276 580 L374 580 Z M560 349 C549 453 461 514 324 514 C191 514 109 455 109 360 C109 282 160 236 262 221 L380 204 C427 197 451 178 451 145 C451 105 411 79 340 79 C259 79 209 114 204 178 L91 178 C98 59 190 -10 339 -10 C478 -10 562 51 562 151 C562 232 504 278 412 291 L293 309 C244 316 220 334 220 363 C220 403 261 427 328 427 C400 427 440 401 448 349 L560 349 Z " />
<glyph glyph-name="Scedilla" unicode="&#x15e;" horiz-adv-x="660" d="M601 197 C601 256 575 303 547 330 C533 343 514 356 489 367 C437 391 423 393 367 406 C304 421 262 435 239 448 C216 461 205 484 205 516 C205 581 253 614 326 614 C411 614 457 568 466 476 L587 476 C578 633 490 711 323 711 C176 711 84 643 84 512 C84 438 113 398 154 367 C167 357 184 348 205 340 C248 324 275 317 331 304 C440 279 480 251 480 194 C480 126 429 89 349 89 C256 89 191 141 183 246 L62 246 C66 97 155 9 295 -7 L269 -79 L286 -111 L312 -111 C349 -111 369 -127 369 -148 C369 -167 352 -179 331 -179 C306 -179 287 -161 286 -132 L207 -141 C214 -202 265 -246 334 -246 C401 -246 451 -205 451 -150 C451 -97 408 -57 349 -57 L341 -57 L352 -10 C507 -9 601 72 601 197 L601 197 Z " />
<glyph glyph-name="scedilla" unicode="&#x15f;" horiz-adv-x="660" d="M562 151 C562 232 504 278 412 291 L293 309 C244 316 220 334 220 363 C220 403 261 427 328 427 C400 427 440 401 448 349 L560 349 C549 453 461 514 324 514 C191 514 109 455 109 360 C109 282 160 236 262 221 L380 204 C427 197 451 178 451 145 C451 105 411 79 340 79 C259 79 209 114 204 178 L91 178 C96 74 169 8 286 -7 L260 -79 L277 -111 L303 -111 C340 -111 360 -127 360 -148 C360 -167 343 -179 322 -179 C297 -179 278 -161 277 -132 L198 -141 C205 -202 256 -246 325 -246 C392 -246 442 -205 442 -150 C442 -97 399 -57 340 -57 L332 -57 L343 -10 C479 -9 562 52 562 151 L562 151 Z " />
<glyph glyph-name="Scaron" unicode="&#x160;" horiz-adv-x="660" d="M413 940 L344 838 L274 940 L172 940 L277 770 L410 770 L515 940 L413 940 Z M62 246 C67 79 177 -10 345 -10 C504 -10 601 69 601 197 C601 256 575 303 547 330 C533 343 514 356 489 367 C437 391 423 393 367 406 C304 421 262 435 239 448 C216 461 205 484 205 516 C205 581 253 614 326 614 C411 614 457 568 466 476 L587 476 C578 633 490 711 323 711 C176 711 84 643 84 512 C84 438 113 398 154 367 C167 357 184 348 205 340 C248 324 275 317 331 304 C440 279 480 251 480 194 C480 126 429 89 349 89 C256 89 191 141 183 246 L62 246 Z " />
<glyph glyph-name="scaron" unicode="&#x161;" horiz-adv-x="660" d="M401 726 L331 641 L260 726 L164 726 L268 566 L393 566 L497 726 L401 726 Z M560 349 C549 453 461 514 324 514 C191 514 109 455 109 360 C109 282 160 236 262 221 L380 204 C427 197 451 178 451 145 C451 105 411 79 340 79 C259 79 209 114 204 178 L91 178 C98 59 190 -10 339 -10 C478 -10 562 51 562 151 C562 232 504 278 412 291 L293 309 C244 316 220 334 220 363 C220 403 261 427 328 427 C400 427 440 401 448 349 L560 349 Z " />
<glyph glyph-name="uni0162" unicode="&#x162;" horiz-adv-x="660" d="M390 596 L620 596 L620 700 L40 700 L40 596 L269 596 L269 0 L297 0 L268 -79 L285 -111 L311 -111 C348 -111 368 -127 368 -148 C368 -167 351 -179 330 -179 C305 -179 286 -161 285 -132 L206 -141 C213 -202 264 -246 333 -246 C400 -246 450 -205 450 -150 C450 -97 407 -57 348 -57 L340 -57 L353 0 L390 0 L390 596 Z " />
<glyph glyph-name="uni0163" unicode="&#x163;" horiz-adv-x="660" d="M611 504 L306 504 L306 662 L196 662 L196 618 C196 573 189 543 175 528 C160 512 132 504 89 504 L33 504 L33 409 L196 409 L196 180 C196 85 259 16 363 -4 L335 -79 L352 -111 L378 -111 C415 -111 435 -127 435 -148 C435 -167 418 -179 397 -179 C372 -179 353 -161 352 -132 L273 -141 C280 -202 331 -246 400 -246 C467 -246 517 -205 517 -150 C517 -97 474 -57 415 -57 L407 -57 L418 -10 L429 -10 C474 -10 528 3 590 29 L590 136 C527 103 475 86 434 86 C351 86 306 122 306 185 L306 409 L611 409 L611 504 Z " />
<glyph glyph-name="Tcaron" unicode="&#x164;" horiz-adv-x="660" d="M511 940 L409 940 L340 838 L270 940 L168 940 L273 770 L406 770 L511 940 Z M40 700 L40 596 L269 596 L269 0 L390 0 L390 596 L620 596 L620 700 L40 700 Z " />
<glyph glyph-name="tcaron" unicode="&#x165;" horiz-adv-x="660" d="M397 765 L379 563 L453 563 L515 765 L397 765 Z M611 504 L306 504 L306 662 L196 662 L196 618 C196 573 189 543 175 528 C160 512 132 504 89 504 L33 504 L33 409 L196 409 L196 180 C196 65 286 -10 429 -10 C474 -10 528 3 590 29 L590 136 C527 103 475 86 434 86 C351 86 306 122 306 185 L306 409 L611 409 L611 504 Z " />
<glyph glyph-name="Tbar" unicode="&#x166;" horiz-adv-x="660" d="M620 700 L40 700 L40 596 L269 596 L269 393 L129 393 L129 305 L269 305 L269 0 L390 0 L390 305 L533 305 L533 393 L390 393 L390 596 L620 596 L620 700 Z " />
<glyph glyph-name="tbar" unicode="&#x167;" horiz-adv-x="660" d="M611 504 L306 504 L306 662 L196 662 L196 618 C196 573 189 543 175 528 C160 512 132 504 89 504 L33 504 L33 409 L196 409 L196 318 L35 318 L35 249 L196 249 L196 180 C196 65 286 -10 429 -10 C474 -10 528 3 590 29 L590 136 C527 103 475 86 434 86 C351 86 306 122 306 185 L306 249 L553 249 L553 318 L306 318 L306 409 L611 409 L611 504 Z " />
<glyph glyph-name="Umacron" unicode="&#x16a;" horiz-adv-x="660" d="M192 896 L192 814 L468 814 L468 896 L192 896 Z M472 250 C472 154 415 94 330 94 C245 94 188 154 188 250 L188 700 L67 700 L67 247 C67 168 91 105 139 59 C187 12 251 -11 330 -11 C409 -11 473 12 521 59 C569 105 593 168 593 247 L593 700 L472 700 L472 250 Z " />
<glyph glyph-name="umacron" unicode="&#x16b;" horiz-adv-x="660" d="M193 697 L193 615 L473 615 L473 697 L193 697 Z M450 504 L450 243 C450 148 399 90 315 90 C250 90 209 134 209 211 L209 504 L99 504 L99 194 C99 66 166 -10 287 -10 C363 -10 417 20 450 79 L450 0 L560 0 L560 504 L450 504 Z " />
<glyph glyph-name="Uring" unicode="&#x16e;" horiz-adv-x="660" d="M410 776 C432 796 443 821 443 852 C443 912 392 957 331 957 C270 957 219 912 219 852 C214 758 346 711 410 776 L410 776 Z M365 887 C374 878 378 866 378 852 C382 787 280 787 283 852 C283 896 336 917 365 887 L365 887 Z M472 250 C472 154 415 94 330 94 C245 94 188 154 188 250 L188 700 L67 700 L67 247 C67 168 91 105 139 59 C187 12 251 -11 330 -11 C409 -11 473 12 521 59 C569 105 593 168 593 247 L593 700 L472 700 L472 250 Z " />
<glyph glyph-name="uring" unicode="&#x16f;" horiz-adv-x="660" d="M412 591 C434 611 445 636 445 666 C445 696 434 721 412 741 C368 780 300 780 256 741 C234 721 223 696 223 666 C223 636 234 611 256 591 C300 551 368 551 412 591 L412 591 Z M369 702 C399 674 377 611 334 616 C307 616 285 637 285 666 C285 709 338 731 369 702 L369 702 Z M450 504 L450 243 C450 148 399 90 315 90 C250 90 209 134 209 211 L209 504 L99 504 L99 194 C99 66 166 -10 287 -10 C363 -10 417 20 450 79 L450 0 L560 0 L560 504 L450 504 Z " />
<glyph glyph-name="Uhungarumlaut" unicode="&#x170;" horiz-adv-x="660" d="M227 940 L169 770 L263 770 L373 940 L227 940 Z M575 940 L429 940 L371 770 L465 770 L575 940 Z M472 250 C472 154 415 94 330 94 C245 94 188 154 188 250 L188 700 L67 700 L67 247 C67 168 91 105 139 59 C187 12 251 -11 330 -11 C409 -11 473 12 521 59 C569 105 593 168 593 247 L593 700 L472 700 L472 250 Z " />
<glyph glyph-name="uhungarumlaut" unicode="&#x171;" horiz-adv-x="660" d="M236 730 L184 572 L268 572 L385 730 L236 730 Z M567 730 L418 730 L366 572 L450 572 L567 730 Z M450 243 C450 148 399 90 315 90 C250 90 209 134 209 211 L209 504 L99 504 L99 194 C99 66 166 -10 287 -10 C363 -10 417 20 450 79 L450 0 L560 0 L560 504 L450 504 L450 243 Z " />
<glyph glyph-name="Uogonek" unicode="&#x172;" horiz-adv-x="660" d="M472 250 C472 154 415 94 330 94 C245 94 188 154 188 250 L188 700 L67 700 L67 247 C67 168 91 105 139 59 C187 12 251 -11 330 -11 C350 -11 368 -10 383 -7 C330 -40 311 -67 311 -106 C311 -161 360 -191 432 -191 C458 -191 485 -187 512 -180 L512 -100 C495 -107 477 -110 458 -110 C431 -110 418 -98 418 -74 C418 -61 424 -46 435 -31 C446 -15 468 9 503 42 C563 89 593 158 593 247 L593 700 L472 700 L472 250 Z " />
<glyph glyph-name="uogonek" unicode="&#x173;" horiz-adv-x="660" d="M531 -110 C506 -110 490 -97 490 -76 C490 -67 493 -59 500 -50 C513 -32 524 -25 560 0 L560 504 L450 504 L450 243 C450 148 399 90 315 90 C250 90 209 134 209 211 L209 504 L99 504 L99 194 C99 66 166 -10 287 -10 C363 -10 417 20 450 79 L450 0 L496 0 C425 -24 389 -63 389 -104 C389 -153 431 -191 507 -191 C531 -191 557 -187 584 -180 L584 -100 C567 -107 550 -110 531 -110 L531 -110 Z " />
<glyph glyph-name="Wcircumflex" unicode="&#x174;" horiz-adv-x="660" d="M399 770 L501 770 L396 940 L263 940 L158 770 L260 770 L330 872 L399 770 Z M465 192 L378 573 L282 573 L194 189 L153 700 L31 700 L119 0 L234 0 L329 423 L426 0 L541 0 L629 700 L507 700 L465 192 Z " />
<glyph glyph-name="wcircumflex" unicode="&#x175;" horiz-adv-x="660" d="M401 570 L497 570 L393 730 L268 730 L164 570 L260 570 L331 655 L401 570 Z M466 134 L376 421 L284 421 L194 134 L154 504 L42 504 L124 0 L239 0 L330 308 L421 0 L536 0 L618 504 L506 504 L466 134 Z " />
<glyph glyph-name="Ycircumflex" unicode="&#x176;" horiz-adv-x="660" d="M399 770 L501 770 L396 940 L263 940 L158 770 L260 770 L330 872 L399 770 Z M484 700 L330 364 L176 700 L37 700 L270 254 L270 0 L391 0 L391 256 L623 700 L484 700 Z " />
<glyph glyph-name="ycircumflex" unicode="&#x177;" horiz-adv-x="660" d="M404 570 L500 570 L396 730 L271 730 L167 570 L263 570 L334 655 L404 570 Z M343 117 L180 504 L54 504 L294 -21 L288 -37 C271 -84 226 -118 179 -118 C140 -118 99 -106 54 -81 L54 -184 C94 -202 136 -211 180 -211 C272 -211 344 -160 380 -69 L608 504 L480 504 L343 117 Z " />
<glyph glyph-name="Ydieresis" unicode="&#x178;" horiz-adv-x="660" d="M142 927 L142 796 L279 796 L279 927 L142 927 Z M381 927 L381 796 L518 796 L518 927 L381 927 Z M484 700 L330 364 L176 700 L37 700 L270 254 L270 0 L391 0 L391 256 L623 700 L484 700 Z " />
<glyph glyph-name="Zacute" unicode="&#x179;" horiz-adv-x="660" d="M344 940 L268 784 L367 784 L511 940 L344 940 Z M592 607 L592 700 L63 700 L63 598 L451 598 L63 94 L63 0 L597 0 L597 102 L208 102 L592 607 Z " />
<glyph glyph-name="zacute" unicode="&#x17a;" horiz-adv-x="660" d="M356 730 L273 580 L371 580 L511 730 L356 730 Z M559 421 L559 504 L94 504 L94 412 L416 412 L94 81 L94 0 L567 0 L567 92 L245 92 L559 421 Z " />
<glyph glyph-name="Zdotaccent" unicode="&#x17b;" horiz-adv-x="660" d="M258 927 L258 796 L395 796 L395 927 L258 927 Z M592 607 L592 700 L63 700 L63 598 L451 598 L63 94 L63 0 L597 0 L597 102 L208 102 L592 607 Z " />
<glyph glyph-name="zdotaccent" unicode="&#x17c;" horiz-adv-x="660" d="M259 717 L259 586 L397 586 L397 717 L259 717 Z M559 421 L559 504 L94 504 L94 412 L416 412 L94 81 L94 0 L567 0 L567 92 L245 92 L559 421 Z " />
<glyph glyph-name="Zcaron" unicode="&#x17d;" horiz-adv-x="660" d="M504 940 L402 940 L333 838 L263 940 L161 940 L266 770 L399 770 L504 940 Z M592 607 L592 700 L63 700 L63 598 L451 598 L63 94 L63 0 L597 0 L597 102 L208 102 L592 607 Z " />
<glyph glyph-name="zcaron" unicode="&#x17e;" horiz-adv-x="660" d="M494 726 L398 726 L328 641 L257 726 L161 726 L265 566 L390 566 L494 726 Z M559 421 L559 504 L94 504 L94 412 L416 412 L94 81 L94 0 L567 0 L567 92 L245 92 L559 421 Z " />
<glyph glyph-name="Scommaaccent" unicode="&#x218;" horiz-adv-x="660" d="M62 246 C67 79 177 -10 345 -10 C504 -10 601 69 601 197 C601 256 575 303 547 330 C533 343 514 356 489 367 C437 391 423 393 367 406 C304 421 262 435 239 448 C216 461 205 484 205 516 C205 581 253 614 326 614 C411 614 457 568 466 476 L587 476 C578 633 490 711 323 711 C176 711 84 643 84 512 C84 438 113 398 154 367 C167 357 184 348 205 340 C248 324 275 317 331 304 C440 279 480 251 480 194 C480 126 429 89 349 89 C256 89 191 141 183 246 L62 246 Z M313 -253 L403 -62 L258 -62 L234 -253 L313 -253 Z " />
<glyph glyph-name="scommaaccent" unicode="&#x219;" horiz-adv-x="660" d="M560 349 C549 453 461 514 324 514 C191 514 109 455 109 360 C109 282 160 236 262 221 L380 204 C427 197 451 178 451 145 C451 105 411 79 340 79 C259 79 209 114 204 178 L91 178 C98 59 190 -10 339 -10 C478 -10 562 51 562 151 C562 232 504 278 412 291 L293 309 C244 316 220 334 220 363 C220 403 261 427 328 427 C400 427 440 401 448 349 L560 349 Z M320 -253 L410 -62 L265 -62 L241 -253 L320 -253 Z " />
<glyph glyph-name="uni021A" unicode="&#x21a;" horiz-adv-x="660" d="M40 596 L269 596 L269 0 L390 0 L390 596 L620 596 L620 700 L40 700 L40 596 Z M312 -253 L402 -62 L257 -62 L233 -253 L312 -253 Z " />
<glyph glyph-name="uni021B" unicode="&#x21b;" horiz-adv-x="660" d="M611 504 L306 504 L306 662 L196 662 L196 618 C196 573 189 543 175 528 C160 512 132 504 89 504 L33 504 L33 409 L196 409 L196 180 C196 65 286 -10 429 -10 C474 -10 528 3 590 29 L590 136 C527 103 475 86 434 86 C351 86 306 122 306 185 L306 409 L611 409 L611 504 Z M379 -253 L469 -62 L324 -62 L300 -253 L379 -253 Z " />
<glyph glyph-name="circumflex" unicode="&#x2c6;" horiz-adv-x="660" d="M393 730 L268 730 L164 570 L260 570 L331 655 L401 570 L497 570 L393 730 Z " />
<glyph glyph-name="caron" unicode="&#x2c7;" horiz-adv-x="660" d="M401 726 L331 641 L260 726 L164 726 L268 566 L393 566 L497 726 L401 726 Z " />
<glyph glyph-name="breve" unicode="&#x2d8;" horiz-adv-x="660" d="M328 579 C423 579 483 631 486 723 L391 723 C391 682 365 656 328 656 C293 656 270 682 270 723 L174 723 C177 631 236 579 328 579 L328 579 Z " />
<glyph glyph-name="dotaccent" unicode="&#x2d9;" horiz-adv-x="660" d="M399 586 L399 717 L261 717 L261 586 L399 586 Z " />
<glyph glyph-name="ring" unicode="&#x2da;" horiz-adv-x="660" d="M408 591 C430 611 441 636 441 666 C441 696 430 721 408 741 C364 780 296 780 252 741 C230 721 219 696 219 666 C219 636 230 611 252 591 C296 551 364 551 408 591 L408 591 Z M330 616 C303 616 281 637 281 666 C281 709 334 731 365 702 C395 674 373 611 330 616 L330 616 Z " />
<glyph glyph-name="ogonek" unicode="&#x2db;" horiz-adv-x="660" d="M208 -104 C208 -153 250 -191 326 -191 C350 -191 376 -187 403 -180 L403 -100 C386 -107 369 -110 350 -110 C325 -110 309 -97 309 -76 C309 -67 312 -59 319 -50 C332 -32 343 -25 379 0 L363 13 C260 -10 208 -53 208 -104 L208 -104 Z " />
<glyph glyph-name="tilde" unicode="&#x2dc;" horiz-adv-x="660" d="M390 591 C457 591 507 630 507 713 L419 713 C418 685 405 671 382 671 C371 671 356 679 337 696 C317 712 296 720 273 720 C209 720 157 681 156 598 L245 598 C246 627 258 641 280 641 C291 641 306 633 326 616 C346 599 367 591 390 591 L390 591 Z " />
<glyph glyph-name="hungarumlaut" unicode="&#x2dd;" horiz-adv-x="660" d="M249 572 L366 730 L217 730 L165 572 L249 572 Z M431 572 L548 730 L399 730 L347 572 L431 572 Z " />
<glyph glyph-name="gravecomb" unicode="&#x300;" d="M-348 940 L-515 940 L-371 784 L-272 784 L-348 940 Z " />
<glyph glyph-name="acutecomb" unicode="&#x301;" d="M-292 784 L-148 940 L-315 940 L-391 784 L-292 784 Z " />
<glyph glyph-name="uni0302" unicode="&#x302;" d="M-264 940 L-397 940 L-502 770 L-400 770 L-330 872 L-261 770 L-159 770 L-264 940 Z " />
<glyph glyph-name="tildecomb" unicode="&#x303;" d="M-264 787 C-199 787 -148 832 -148 913 L-235 913 C-235 884 -247 869 -271 869 C-283 869 -301 878 -324 896 C-347 914 -370 923 -393 923 C-458 923 -508 881 -509 797 L-423 797 C-422 822 -409 842 -386 842 C-375 842 -358 833 -335 815 C-312 796 -288 787 -264 787 L-264 787 Z " />
<glyph glyph-name="uni0304" unicode="&#x304;" d="M-192 814 L-192 896 L-468 896 L-468 814 L-192 814 Z " />
<glyph glyph-name="uni0306" unicode="&#x306;" d="M-332 781 C-237 781 -172 839 -172 924 L-269 924 C-270 885 -296 861 -332 861 C-365 861 -389 885 -390 924 L-488 924 C-488 840 -424 781 -332 781 L-332 781 Z " />
<glyph glyph-name="uni0307" unicode="&#x307;" d="M-267 796 L-267 927 L-404 927 L-404 796 L-267 796 Z " />
<glyph glyph-name="uni0308" unicode="&#x308;" d="M-381 796 L-381 927 L-518 927 L-518 796 L-381 796 Z M-142 796 L-142 927 L-279 927 L-279 796 L-142 796 Z " />
<glyph glyph-name="uni030A" unicode="&#x30a;" d="M-251 776 C-229 796 -218 821 -218 852 C-218 912 -269 957 -330 957 C-391 957 -442 912 -442 852 C-447 758 -315 711 -251 776 L-251 776 Z M-364 816 C-373 825 -378 837 -378 852 C-378 880 -357 901 -330 901 C-303 901 -283 880 -283 852 C-283 807 -334 786 -364 816 L-364 816 Z " />
<glyph glyph-name="uni030B" unicode="&#x30b;" d="M-408 770 L-298 940 L-444 940 L-502 770 L-408 770 Z M-206 770 L-96 940 L-242 940 L-300 770 L-206 770 Z " />
<glyph glyph-name="uni030C" unicode="&#x30c;" d="M-261 940 L-330 838 L-400 940 L-502 940 L-397 770 L-264 770 L-159 940 L-261 940 Z " />
<glyph glyph-name="uni0312" unicode="&#x312;" d="M-352 761 L-442 570 L-297 570 L-273 761 L-352 761 Z " />
<glyph glyph-name="uni0326" unicode="&#x326;" d="M-349 -253 L-259 -62 L-404 -62 L-428 -253 L-349 -253 Z " />
<glyph glyph-name="uni0327" unicode="&#x327;" d="M-264 -111 L-238 -111 C-201 -111 -181 -127 -181 -148 C-181 -167 -198 -179 -219 -179 C-244 -179 -263 -161 -264 -132 L-343 -141 C-336 -202 -285 -246 -216 -246 C-149 -246 -99 -205 -99 -150 C-99 -97 -142 -57 -201 -57 L-209 -57 L-196 0 L-252 0 L-281 -79 L-264 -111 Z " />
<glyph glyph-name="uni0328" unicode="&#x328;" d="M-428 -106 C-428 -161 -379 -191 -307 -191 C-281 -191 -254 -187 -227 -180 L-227 -100 C-244 -107 -262 -110 -281 -110 C-308 -110 -321 -98 -321 -74 C-321 -60 -315 -45 -303 -28 C-291 -11 -265 15 -226 52 L-238 58 C-313 19 -364 -11 -390 -32 C-415 -53 -428 -78 -428 -106 L-428 -106 Z " />
<glyph glyph-name="uni0335" unicode="&#x335;" d="M-528 356 L-132 356 L-132 425 L-528 425 L-528 356 Z " />
<glyph glyph-name="uni0336" unicode="&#x336;" d="M-532 343 L-128 343 L-128 437 L-532 437 L-532 343 Z " />
<glyph glyph-name="uni0337" unicode="&#x337;" d="M-596 2 L-550 -39 L-82 504 L-129 544 L-596 2 Z " />
<glyph glyph-name="uni0338" unicode="&#x338;" d="M-637 54 L-582 4 L-23 647 L-79 696 L-637 54 Z " />
<glyph glyph-name="uni03BC" unicode="&#x3bc;" horiz-adv-x="660" d="M457 504 L457 243 C457 148 406 90 322 90 C257 90 216 134 216 211 L216 504 L105 504 L105 -200 L207 -200 L207 7 C233 -4 262 -10 294 -10 C370 -10 424 20 457 79 L457 0 L567 0 L567 504 L457 504 Z " />
<glyph glyph-name="Wgrave" unicode="&#x1e80;" horiz-adv-x="660" d="M312 940 L145 940 L289 784 L388 784 L312 940 Z M465 192 L378 573 L282 573 L194 189 L153 700 L31 700 L119 0 L234 0 L329 423 L426 0 L541 0 L629 700 L507 700 L465 192 Z " />
<glyph glyph-name="wgrave" unicode="&#x1e81;" horiz-adv-x="660" d="M298 730 L143 730 L283 580 L381 580 L298 730 Z M466 134 L376 421 L284 421 L194 134 L154 504 L42 504 L124 0 L239 0 L330 308 L421 0 L536 0 L618 504 L506 504 L466 134 Z " />
<glyph glyph-name="Wacute" unicode="&#x1e82;" horiz-adv-x="660" d="M361 940 L285 784 L384 784 L528 940 L361 940 Z M465 192 L378 573 L282 573 L194 189 L153 700 L31 700 L119 0 L234 0 L329 423 L426 0 L541 0 L629 700 L507 700 L465 192 Z " />
<glyph glyph-name="wacute" unicode="&#x1e83;" horiz-adv-x="660" d="M370 730 L287 580 L385 580 L525 730 L370 730 Z M466 134 L376 421 L284 421 L194 134 L154 504 L42 504 L124 0 L239 0 L330 308 L421 0 L536 0 L618 504 L506 504 L466 134 Z " />
<glyph glyph-name="Wdieresis" unicode="&#x1e84;" horiz-adv-x="660" d="M142 927 L142 796 L279 796 L279 927 L142 927 Z M381 927 L381 796 L518 796 L518 927 L381 927 Z M465 192 L378 573 L282 573 L194 189 L153 700 L31 700 L119 0 L234 0 L329 423 L426 0 L541 0 L629 700 L507 700 L465 192 Z " />
<glyph glyph-name="wdieresis" unicode="&#x1e85;" horiz-adv-x="660" d="M151 717 L151 586 L288 586 L288 717 L151 717 Z M372 717 L372 586 L509 586 L509 717 L372 717 Z M466 134 L376 421 L284 421 L194 134 L154 504 L42 504 L124 0 L239 0 L330 308 L421 0 L536 0 L618 504 L506 504 L466 134 Z " />
<glyph glyph-name="Ygrave" unicode="&#x1ef2;" horiz-adv-x="660" d="M310 940 L143 940 L287 784 L386 784 L310 940 Z M484 700 L330 364 L176 700 L37 700 L270 254 L270 0 L391 0 L391 256 L623 700 L484 700 Z " />
<glyph glyph-name="ygrave" unicode="&#x1ef3;" horiz-adv-x="660" d="M310 730 L155 730 L295 580 L393 580 L310 730 Z M343 117 L180 504 L54 504 L294 -21 L288 -37 C271 -84 226 -118 179 -118 C140 -118 99 -106 54 -81 L54 -184 C94 -202 136 -211 180 -211 C272 -211 344 -160 380 -69 L608 504 L480 504 L343 117 Z " />
<glyph glyph-name="endash" unicode="&#x2013;" horiz-adv-x="660" d="M93 238 L567 238 L567 327 L93 327 L93 238 Z " />
<glyph glyph-name="emdash" unicode="&#x2014;" horiz-adv-x="660" d="M57 238 L603 238 L603 327 L57 327 L57 238 Z " />
<glyph glyph-name="quoteleft" unicode="&#x2018;" horiz-adv-x="660" d="M329 700 L238 420 L391 420 L407 700 L329 700 Z " />
<glyph glyph-name="quoteright" unicode="&#x2019;" horiz-adv-x="660" d="M336 420 L427 700 L274 700 L258 420 L336 420 Z " />
<glyph glyph-name="quotesinglbase" unicode="&#x201a;" horiz-adv-x="660" d="M313 -145 L404 135 L251 135 L235 -145 L313 -145 Z " />
<glyph glyph-name="quotedblleft" unicode="&#x201c;" horiz-adv-x="660" d="M231 700 L140 420 L293 420 L309 700 L231 700 Z M429 700 L338 420 L491 420 L507 700 L429 700 Z " />
<glyph glyph-name="quotedblright" unicode="&#x201d;" horiz-adv-x="660" d="M224 420 L315 700 L162 700 L146 420 L224 420 Z M422 420 L513 700 L360 700 L344 420 L422 420 Z " />
<glyph glyph-name="quotedblbase" unicode="&#x201e;" horiz-adv-x="660" d="M231 -145 L322 135 L169 135 L153 -145 L231 -145 Z M429 -145 L520 135 L367 135 L351 -145 L429 -145 Z " />
<glyph glyph-name="dagger" unicode="&#x2020;" horiz-adv-x="660" d="M371 627 L371 743 L289 743 L289 627 L173 627 L173 547 L289 547 L289 315 L371 315 L371 547 L487 547 L487 627 L371 627 Z " />
<glyph glyph-name="daggerdbl" unicode="&#x2021;" horiz-adv-x="660" d="M487 644 L371 644 L371 743 L289 743 L289 644 L173 644 L173 564 L289 564 L289 488 L173 488 L173 408 L289 408 L289 315 L371 315 L371 408 L487 408 L487 488 L371 488 L371 564 L487 564 L487 644 Z " />
<glyph glyph-name="bullet" unicode="&#x2022;" horiz-adv-x="660" d="M437 215 C466 244 481 280 481 321 L481 323 C481 364 466 400 437 429 C407 458 371 473 330 473 C289 473 253 458 224 429 C194 400 179 364 179 323 L179 321 C179 280 194 244 224 215 C253 186 289 171 330 171 C371 171 407 186 437 215 L437 215 Z " />
<glyph glyph-name="ellipsis" unicode="&#x2026;" horiz-adv-x="660" d="M184 0 L184 145 L34 145 L34 0 L184 0 Z M404 0 L404 145 L254 145 L254 0 L404 0 Z M625 0 L625 145 L475 145 L475 0 L625 0 Z " />
<glyph glyph-name="perthousand" unicode="&#x2030;" horiz-adv-x="660" d="M256 472 C281 498 294 531 294 570 C294 610 281 644 256 671 C230 698 198 711 159 711 C82 711 25 650 25 570 C25 531 38 498 63 472 C88 445 120 432 159 432 C198 432 230 445 256 472 L256 472 Z M116 520 C105 533 99 550 99 570 C99 611 124 642 159 642 C194 642 220 611 220 570 C224 508 150 477 116 520 L116 520 Z M652 458 L637 508 L11 325 L26 273 L652 458 Z M310 30 C335 57 348 90 348 129 C348 168 335 202 310 229 C284 256 252 269 213 269 C136 269 79 209 79 129 C79 90 92 57 117 30 C142 3 174 -10 213 -10 C252 -10 284 3 310 30 L310 30 Z M607 30 C632 57 645 90 645 129 C645 168 632 202 607 229 C581 256 549 269 510 269 C471 269 439 256 414 229 C388 202 375 168 375 129 C375 90 388 57 414 30 C439 3 471 -10 510 -10 C549 -10 581 3 607 30 L607 30 Z M170 78 C159 91 153 108 153 129 C153 169 180 200 213 200 C248 200 274 169 274 129 C278 66 204 35 170 78 L170 78 Z M467 78 C456 91 450 108 450 129 C450 169 477 200 510 200 C545 200 571 169 571 129 C575 66 501 35 467 78 L467 78 Z " />
<glyph glyph-name="guilsinglleft" unicode="&#x2039;" horiz-adv-x="660" d="M440 439 L317 439 L180 261 L317 83 L440 83 L293 261 L440 439 Z " />
<glyph glyph-name="guilsinglright" unicode="&#x203a;" horiz-adv-x="660" d="M220 83 L343 83 L480 261 L343 439 L220 439 L367 261 L220 83 Z " />
<glyph glyph-name="fraction" unicode="&#x2044;" horiz-adv-x="660" d="M620 664 L550 714 L384 468 L431 432 L620 664 Z M275 235 L227 271 L39 39 L108 -11 L275 235 Z " />
<glyph glyph-name="uni2070" unicode="&#x2070;" horiz-adv-x="660" d="M330 709 C281 709 242 691 213 655 C184 619 169 574 169 519 C169 410 231 331 330 331 C430 331 492 410 492 519 C492 635 431 709 330 709 L330 709 Z M330 642 C356 642 375 630 388 606 L259 493 C258 498 258 507 258 519 C258 601 282 642 330 642 L330 642 Z M330 398 C303 398 283 411 271 438 L402 551 C403 544 403 534 403 519 C403 438 379 398 330 398 L330 398 Z " />
<glyph glyph-name="uni2074" unicode="&#x2074;" horiz-adv-x="660" d="M429 476 L429 603 L357 603 L351 476 L254 476 C296 557 323 632 334 700 L243 700 C233 626 205 547 160 462 L174 410 L350 410 L350 335 L429 335 L429 410 L484 410 L484 476 L429 476 Z " />
<glyph glyph-name="uni2075" unicode="&#x2075;" horiz-adv-x="660" d="M356 576 C314 576 282 560 261 528 L270 631 L463 631 L463 700 L203 700 L193 498 L271 484 C284 506 305 517 333 517 C370 517 393 490 393 454 C393 418 369 394 332 394 C295 394 273 412 267 449 L184 449 C193 372 250 328 330 328 C418 328 478 382 478 455 C478 526 425 576 356 576 L356 576 Z " />
<glyph glyph-name="uni2076" unicode="&#x2076;" horiz-adv-x="660" d="M351 579 C310 579 281 564 264 535 C267 608 290 645 332 645 C361 645 377 631 381 602 L466 602 C453 686 382 712 328 709 C233 709 177 636 177 507 C177 449 190 405 217 376 C245 346 282 331 329 331 C413 331 474 384 474 459 C474 530 419 579 351 579 L351 579 Z M285 411 C273 423 267 438 267 457 C267 493 293 520 330 520 C367 520 393 496 393 457 C398 397 321 374 285 411 L285 411 Z " />
<glyph glyph-name="uni2077" unicode="&#x2077;" horiz-adv-x="660" d="M185 700 L185 630 L387 630 C304 561 259 465 254 342 L254 338 L350 338 C355 469 395 572 472 645 L473 645 L473 700 L185 700 Z " />
<glyph glyph-name="uni2078" unicode="&#x2078;" horiz-adv-x="660" d="M398 533 C442 545 464 572 464 614 C464 675 409 709 330 709 C251 709 195 674 195 614 C195 571 217 544 262 533 C209 520 182 489 182 440 C182 372 242 333 330 333 C418 333 479 372 479 440 C479 485 451 520 398 533 L398 533 Z M329 650 C361 650 386 632 386 603 C386 560 323 541 289 569 C254 596 281 655 329 650 L329 650 Z M330 396 C294 396 270 416 270 448 C270 479 295 501 330 501 C366 501 390 478 390 446 C390 415 365 396 330 396 L330 396 Z " />
<glyph glyph-name="uni2079" unicode="&#x2079;" horiz-adv-x="660" d="M443 659 C415 689 378 704 331 704 C247 704 186 651 186 576 C186 505 241 456 309 456 C350 456 379 471 396 500 C393 427 370 390 328 390 C299 390 283 404 279 433 L194 433 C207 349 278 323 332 326 C427 326 483 399 483 528 C483 586 470 630 443 659 L443 659 Z M285 532 C273 543 267 559 267 578 C267 618 294 642 330 642 C366 642 393 615 393 578 C399 522 321 495 285 532 L285 532 Z " />
<glyph glyph-name="uni2080" unicode="&#x2080;" horiz-adv-x="660" d="M330 222 C281 222 242 204 213 168 C184 132 169 87 169 32 C169 -77 231 -156 330 -156 C430 -156 492 -77 492 32 C492 148 431 222 330 222 L330 222 Z M330 155 C356 155 375 143 388 119 L259 6 C258 11 258 20 258 32 C258 114 282 155 330 155 L330 155 Z M330 -89 C303 -89 283 -76 271 -49 L402 64 C403 57 403 47 403 32 C403 -49 379 -89 330 -89 L330 -89 Z " />
<glyph glyph-name="uni2081" unicode="&#x2081;" horiz-adv-x="660" d="M381 213 L315 213 L181 171 L181 81 L295 134 L295 -85 L183 -85 L183 -152 L484 -152 L484 -85 L381 -85 L381 213 Z " />
<glyph glyph-name="uni2082" unicode="&#x2082;" horiz-adv-x="660" d="M354 -46 C423 1 464 44 464 103 C464 172 408 222 327 222 C240 222 188 175 183 86 L266 86 C268 132 288 155 326 155 C358 155 380 133 380 102 C380 67 362 45 319 10 L183 -100 L183 -150 L470 -150 L470 -83 L303 -83 L354 -46 Z " />
<glyph glyph-name="uni2083" unicode="&#x2083;" horiz-adv-x="660" d="M466 148 L466 213 L197 213 L197 144 L360 144 L264 65 L286 9 L326 9 C366 9 393 -11 393 -42 C393 -71 369 -93 334 -93 C297 -93 270 -66 267 -29 L185 -29 C189 -106 250 -159 335 -159 C414 -159 472 -111 472 -44 C472 15 425 57 357 64 L466 148 Z " />
<glyph glyph-name="uni2084" unicode="&#x2084;" horiz-adv-x="660" d="M429 -11 L429 116 L357 116 L351 -11 L254 -11 C296 70 323 145 334 213 L243 213 C233 139 205 60 160 -25 L174 -77 L350 -77 L350 -152 L429 -152 L429 -77 L484 -77 L484 -11 L429 -11 Z " />
<glyph glyph-name="uni2085" unicode="&#x2085;" horiz-adv-x="660" d="M356 89 C314 89 282 73 261 41 L270 144 L463 144 L463 213 L203 213 L193 11 L271 -3 C284 19 305 30 333 30 C370 30 393 3 393 -33 C393 -69 369 -93 332 -93 C295 -93 273 -75 267 -38 L184 -38 C193 -115 250 -159 330 -159 C418 -159 478 -105 478 -32 C478 39 425 89 356 89 L356 89 Z " />
<glyph glyph-name="uni2086" unicode="&#x2086;" horiz-adv-x="660" d="M351 92 C310 92 281 77 264 48 C267 121 290 158 332 158 C361 158 377 144 381 115 L466 115 C453 199 382 225 328 222 C233 222 177 149 177 20 C177 -38 190 -82 217 -111 C245 -141 282 -156 329 -156 C413 -156 474 -103 474 -28 C474 43 419 92 351 92 L351 92 Z M285 -76 C273 -64 267 -49 267 -30 C267 6 293 33 330 33 C367 33 393 9 393 -30 C398 -90 321 -113 285 -76 L285 -76 Z " />
<glyph glyph-name="uni2087" unicode="&#x2087;" horiz-adv-x="660" d="M185 213 L185 143 L387 143 C304 74 259 -22 254 -145 L254 -149 L350 -149 C355 -18 395 85 472 158 L473 158 L473 213 L185 213 Z " />
<glyph glyph-name="uni2088" unicode="&#x2088;" horiz-adv-x="660" d="M398 46 C442 58 464 85 464 127 C464 188 409 222 330 222 C251 222 195 187 195 127 C195 84 217 57 262 46 C209 33 182 2 182 -47 C182 -115 242 -154 330 -154 C418 -154 479 -115 479 -47 C479 0 451 33 398 46 L398 46 Z M329 163 C361 163 386 145 386 116 C386 73 323 54 289 82 C254 109 281 168 329 163 L329 163 Z M330 -91 C294 -91 270 -71 270 -39 C270 -8 295 14 330 14 C366 14 390 -9 390 -41 C390 -72 365 -91 330 -91 L330 -91 Z " />
<glyph glyph-name="uni2089" unicode="&#x2089;" horiz-adv-x="660" d="M443 179 C415 209 378 224 331 224 C247 224 186 171 186 96 C186 25 241 -24 309 -24 C350 -24 379 -9 396 20 C393 -53 370 -90 328 -90 C299 -90 283 -76 279 -47 L194 -47 C207 -131 278 -157 332 -154 C427 -154 483 -81 483 48 C483 106 470 150 443 179 L443 179 Z M285 52 C273 63 267 79 267 98 C267 138 294 162 330 162 C366 162 393 135 393 98 C399 42 321 15 285 52 L285 52 Z " />
<glyph glyph-name="Euro" unicode="&#x20ac;" horiz-adv-x="660" d="M352 84 C269 84 217 136 197 241 L435 241 L435 309 L189 309 C188 318 188 331 188 350 C188 369 188 384 189 393 L435 393 L435 461 L197 461 C218 564 270 616 354 616 C435 616 482 565 495 464 L611 464 C592 620 500 713 353 713 C204 713 109 621 81 461 L20 461 L20 393 L73 393 C72 384 72 369 72 350 C72 331 72 318 73 309 L20 309 L20 241 L81 241 C109 80 201 -13 352 -13 C496 -13 590 77 609 232 L493 232 C479 133 432 84 352 84 L352 84 Z " />
<glyph glyph-name="uni2117" unicode="&#x2117;" horiz-adv-x="660" d="M331 712 C240 712 166 678 107 610 C48 542 18 455 18 350 C18 245 47 159 106 91 C165 22 239 -12 329 -12 C420 -12 495 22 554 91 C613 160 642 247 642 352 C642 457 613 543 554 611 C495 678 421 712 331 712 L331 712 Z M329 40 C254 40 193 69 146 127 C99 185 75 259 75 350 C75 441 99 515 146 573 C193 631 255 660 331 660 C406 660 468 631 515 574 C562 516 585 442 585 351 C585 260 562 185 515 127 C468 69 406 40 329 40 L329 40 Z M204 550 L204 150 L286 150 L286 294 L356 294 C448 294 508 345 508 424 C508 500 448 550 356 550 L204 550 Z M286 363 L286 482 L353 482 C401 482 428 459 428 423 C428 386 401 363 353 363 L286 363 Z " />
<glyph glyph-name="trademark" unicode="&#x2122;" horiz-adv-x="660" d="M15 700 L15 632 L106 632 L106 361 L185 361 L185 632 L276 632 L276 700 L15 700 Z M463 571 L377 700 L305 700 L305 361 L383 361 L383 576 L456 475 L470 475 L543 575 L543 361 L621 361 L621 700 L550 700 L463 571 Z " />
<glyph glyph-name="uni2150" unicode="&#x2150;" horiz-adv-x="660" d="M550 714 L384 468 L431 432 L620 664 L550 714 Z M155 700 L21 658 L21 568 L135 621 L135 402 L23 402 L23 335 L324 335 L324 402 L221 402 L221 700 L155 700 Z M352 362 L352 292 L554 292 C471 223 426 127 421 4 L421 0 L517 0 C522 131 562 234 639 307 L640 307 L640 362 L352 362 Z M108 -11 L275 235 L227 271 L39 39 L108 -11 Z " />
<glyph glyph-name="uni2151" unicode="&#x2151;" horiz-adv-x="660" d="M550 714 L384 468 L431 432 L620 664 L550 714 Z M155 700 L21 658 L21 568 L135 621 L135 402 L23 402 L23 335 L324 335 L324 402 L221 402 L221 700 L155 700 Z M603 322 C575 352 538 367 491 367 C407 367 346 314 346 239 C346 168 401 119 469 119 C510 119 539 134 556 163 C553 90 530 53 488 53 C459 53 443 67 439 96 L354 96 C367 12 438 -14 492 -11 C587 -11 643 62 643 191 C643 249 630 293 603 322 L603 322 Z M445 195 C433 206 427 222 427 241 C427 281 454 305 490 305 C526 305 553 278 553 241 C559 185 481 158 445 195 L445 195 Z M108 -11 L275 235 L227 271 L39 39 L108 -11 Z " />
<glyph glyph-name="uni2153" unicode="&#x2153;" horiz-adv-x="660" d="M550 714 L384 468 L431 432 L620 664 L550 714 Z M157 700 L23 658 L23 568 L137 621 L137 402 L25 402 L25 335 L326 335 L326 402 L223 402 L223 700 L157 700 Z M636 296 L636 361 L367 361 L367 292 L530 292 L434 213 L456 157 L496 157 C536 157 563 137 563 106 C563 77 539 55 504 55 C467 55 440 82 437 119 L355 119 C359 42 420 -11 505 -11 C584 -11 642 37 642 104 C642 163 595 205 527 212 L636 296 Z M108 -11 L275 235 L227 271 L39 39 L108 -11 Z " />
<glyph glyph-name="uni2154" unicode="&#x2154;" horiz-adv-x="660" d="M550 714 L384 468 L431 432 L620 664 L550 714 Z M192 441 C261 488 302 531 302 590 C302 659 246 709 165 709 C78 709 26 662 21 573 L104 573 C106 619 126 642 164 642 C196 642 218 620 218 589 C218 554 200 532 157 497 L21 387 L21 337 L308 337 L308 404 L141 404 L192 441 L192 441 Z M626 296 L626 361 L357 361 L357 292 L520 292 L424 213 L446 157 L486 157 C526 157 553 137 553 106 C553 77 529 55 494 55 C457 55 430 82 427 119 L345 119 C349 42 410 -11 495 -11 C574 -11 632 37 632 104 C632 163 585 205 517 212 L626 296 Z M108 -11 L275 235 L227 271 L39 39 L108 -11 Z " />
<glyph glyph-name="uni2155" unicode="&#x2155;" horiz-adv-x="660" d="M550 714 L384 468 L431 432 L620 664 L550 714 Z M155 700 L21 658 L21 568 L135 621 L135 402 L23 402 L23 335 L324 335 L324 402 L221 402 L221 700 L155 700 Z M516 237 C474 237 442 221 421 189 L430 292 L623 292 L623 361 L363 361 L353 159 L431 145 C444 167 465 178 493 178 C530 178 553 151 553 115 C553 79 529 55 492 55 C455 55 433 73 427 110 L344 110 C353 33 410 -11 490 -11 C578 -11 638 43 638 116 C638 187 585 237 516 237 L516 237 Z M108 -11 L275 235 L227 271 L39 39 L108 -11 Z " />
<glyph glyph-name="uni2156" unicode="&#x2156;" horiz-adv-x="660" d="M550 714 L384 468 L431 432 L620 664 L550 714 Z M194 441 C263 488 304 531 304 590 C304 659 248 709 167 709 C80 709 28 662 23 573 L106 573 C108 619 128 642 166 642 C198 642 220 620 220 589 C220 554 202 532 159 497 L23 387 L23 337 L310 337 L310 404 L143 404 L194 441 L194 441 Z M516 237 C474 237 442 221 421 189 L430 292 L623 292 L623 361 L363 361 L353 159 L431 145 C444 167 465 178 493 178 C530 178 553 151 553 115 C553 79 529 55 492 55 C455 55 433 73 427 110 L344 110 C353 33 410 -11 490 -11 C578 -11 638 43 638 116 C638 187 585 237 516 237 L516 237 Z M108 -11 L275 235 L227 271 L39 39 L108 -11 Z " />
<glyph glyph-name="uni2157" unicode="&#x2157;" horiz-adv-x="660" d="M550 714 L384 468 L431 432 L620 664 L550 714 Z M306 635 L306 700 L37 700 L37 631 L200 631 L104 552 L126 496 L166 496 C206 496 233 476 233 445 C233 416 209 394 174 394 C137 394 110 421 107 458 L25 458 C29 381 90 328 175 328 C254 328 312 376 312 443 C312 502 265 544 197 551 L306 635 Z M516 237 C474 237 442 221 421 189 L430 292 L623 292 L623 361 L363 361 L353 159 L431 145 C444 167 465 178 493 178 C530 178 553 151 553 115 C553 79 529 55 492 55 C455 55 433 73 427 110 L344 110 C353 33 410 -11 490 -11 C578 -11 638 43 638 116 C638 187 585 237 516 237 L516 237 Z M108 -11 L275 235 L227 271 L39 39 L108 -11 Z " />
<glyph glyph-name="uni2158" unicode="&#x2158;" horiz-adv-x="660" d="M550 714 L384 468 L431 432 L620 664 L550 714 Z M197 603 L191 476 L94 476 C136 557 163 632 174 700 L83 700 C73 626 45 547 0 462 L14 410 L190 410 L190 335 L269 335 L269 410 L324 410 L324 476 L269 476 L269 603 L197 603 Z M516 237 C474 237 442 221 421 189 L430 292 L623 292 L623 361 L363 361 L353 159 L431 145 C444 167 465 178 493 178 C530 178 553 151 553 115 C553 79 529 55 492 55 C455 55 433 73 427 110 L344 110 C353 33 410 -11 490 -11 C578 -11 638 43 638 116 C638 187 585 237 516 237 L516 237 Z M108 -11 L275 235 L227 271 L39 39 L108 -11 Z " />
<glyph glyph-name="uni2159" unicode="&#x2159;" horiz-adv-x="660" d="M550 714 L384 468 L431 432 L620 664 L550 714 Z M155 700 L21 658 L21 568 L135 621 L135 402 L23 402 L23 335 L324 335 L324 402 L221 402 L221 700 L155 700 Z M511 237 C470 237 441 222 424 193 C427 266 450 303 492 303 C521 303 537 289 541 260 L626 260 C613 344 542 370 488 367 C393 367 337 294 337 165 C337 107 350 63 377 34 C405 4 442 -11 489 -11 C573 -11 634 42 634 117 C634 188 579 237 511 237 L511 237 Z M108 -11 L275 235 L227 271 L39 39 L108 -11 Z M445 69 C433 81 427 96 427 115 C427 151 453 178 490 178 C527 178 553 154 553 115 C558 55 481 32 445 69 L445 69 Z " />
<glyph glyph-name="uni215A" unicode="&#x215a;" horiz-adv-x="660" d="M550 714 L384 468 L431 432 L620 664 L550 714 Z M196 576 C154 576 122 560 101 528 L110 631 L303 631 L303 700 L43 700 L33 498 L111 484 C124 506 145 517 173 517 C210 517 233 490 233 454 C233 418 209 394 172 394 C135 394 113 412 107 449 L24 449 C33 372 90 328 170 328 C258 328 318 382 318 455 C318 526 265 576 196 576 L196 576 Z M511 237 C470 237 441 222 424 193 C427 266 450 303 492 303 C521 303 537 289 541 260 L626 260 C613 344 542 370 488 367 C393 367 337 294 337 165 C337 107 350 63 377 34 C405 4 442 -11 489 -11 C573 -11 634 42 634 117 C634 188 579 237 511 237 L511 237 Z M108 -11 L275 235 L227 271 L39 39 L108 -11 Z M445 69 C433 81 427 96 427 115 C427 151 453 178 490 178 C527 178 553 154 553 115 C558 55 481 32 445 69 L445 69 Z " />
<glyph glyph-name="oneeighth" unicode="&#x215b;" horiz-adv-x="660" d="M550 714 L384 468 L431 432 L620 664 L550 714 Z M155 700 L21 658 L21 568 L135 621 L135 402 L23 402 L23 335 L324 335 L324 402 L221 402 L221 700 L155 700 Z M558 189 C602 201 624 228 624 270 C624 331 569 365 490 365 C411 365 355 330 355 270 C355 227 377 200 422 189 C369 176 342 145 342 96 C342 28 402 -11 490 -11 C578 -11 639 28 639 96 C639 141 611 176 558 189 L558 189 Z M489 306 C521 306 546 288 546 259 C546 216 483 197 449 225 C414 252 441 311 489 306 L489 306 Z M108 -11 L275 235 L227 271 L39 39 L108 -11 Z M490 52 C454 52 430 72 430 104 C430 135 455 157 490 157 C526 157 550 134 550 102 C550 71 525 52 490 52 L490 52 Z " />
<glyph glyph-name="threeeighths" unicode="&#x215c;" horiz-adv-x="660" d="M550 714 L384 468 L431 432 L620 664 L550 714 Z M306 635 L306 700 L37 700 L37 631 L200 631 L104 552 L126 496 L166 496 C206 496 233 476 233 445 C233 416 209 394 174 394 C137 394 110 421 107 458 L25 458 C29 381 90 328 175 328 C254 328 312 376 312 443 C312 502 265 544 197 551 L306 635 Z M558 189 C602 201 624 228 624 270 C624 331 569 365 490 365 C411 365 355 330 355 270 C355 227 377 200 422 189 C369 176 342 145 342 96 C342 28 402 -11 490 -11 C578 -11 639 28 639 96 C639 141 611 176 558 189 L558 189 Z M489 306 C521 306 546 288 546 259 C546 216 483 197 449 225 C414 252 441 311 489 306 L489 306 Z M108 -11 L275 235 L227 271 L39 39 L108 -11 Z M490 52 C454 52 430 72 430 104 C430 135 455 157 490 157 C526 157 550 134 550 102 C550 71 525 52 490 52 L490 52 Z " />
<glyph glyph-name="fiveeighths" unicode="&#x215d;" horiz-adv-x="660" d="M550 714 L384 468 L431 432 L620 664 L550 714 Z M196 576 C154 576 122 560 101 528 L110 631 L303 631 L303 700 L43 700 L33 498 L111 484 C124 506 145 517 173 517 C210 517 233 490 233 454 C233 418 209 394 172 394 C135 394 113 412 107 449 L24 449 C33 372 90 328 170 328 C258 328 318 382 318 455 C318 526 265 576 196 576 L196 576 Z M558 189 C602 201 624 228 624 270 C624 331 569 365 490 365 C411 365 355 330 355 270 C355 227 377 200 422 189 C369 176 342 145 342 96 C342 28 402 -11 490 -11 C578 -11 639 28 639 96 C639 141 611 176 558 189 L558 189 Z M489 306 C521 306 546 288 546 259 C546 216 483 197 449 225 C414 252 441 311 489 306 L489 306 Z M108 -11 L275 235 L227 271 L39 39 L108 -11 Z M490 52 C454 52 430 72 430 104 C430 135 455 157 490 157 C526 157 550 134 550 102 C550 71 525 52 490 52 L490 52 Z " />
<glyph glyph-name="seveneighths" unicode="&#x215e;" horiz-adv-x="660" d="M550 714 L384 468 L431 432 L620 664 L550 714 Z M227 630 C144 561 99 465 94 342 L94 338 L190 338 C195 469 235 572 312 645 L313 645 L313 700 L25 700 L25 630 L227 630 Z M558 189 C602 201 624 228 624 270 C624 331 569 365 490 365 C411 365 355 330 355 270 C355 227 377 200 422 189 C369 176 342 145 342 96 C342 28 402 -11 490 -11 C578 -11 639 28 639 96 C639 141 611 176 558 189 L558 189 Z M489 306 C521 306 546 288 546 259 C546 216 483 197 449 225 C414 252 441 311 489 306 L489 306 Z M108 -11 L275 235 L227 271 L39 39 L108 -11 Z M490 52 C454 52 430 72 430 104 C430 135 455 157 490 157 C526 157 550 134 550 102 C550 71 525 52 490 52 L490 52 Z " />
<glyph glyph-name="uni2189" unicode="&#x2189;" horiz-adv-x="660" d="M562 714 L396 468 L443 432 L632 664 L562 714 Z M181 709 C132 709 93 691 64 655 C35 619 20 574 20 519 C20 410 82 331 181 331 C281 331 343 410 343 519 C343 635 282 709 181 709 L181 709 Z M181 642 C207 642 226 630 239 606 L110 493 C109 498 109 507 109 519 C109 601 133 642 181 642 L181 642 Z M181 398 C154 398 134 411 122 438 L253 551 C254 544 254 534 254 519 C254 438 230 398 181 398 L181 398 Z M637 296 L637 361 L368 361 L368 292 L531 292 L435 213 L457 157 L497 157 C537 157 564 137 564 106 C564 77 540 55 505 55 C468 55 441 82 438 119 L356 119 C360 42 421 -11 506 -11 C585 -11 643 37 643 104 C643 163 596 205 528 212 L637 296 Z M120 -11 L287 235 L239 271 L51 39 L120 -11 Z " />
<glyph glyph-name="arrowleft" unicode="&#x2190;" horiz-adv-x="660" d="M225 396 L410 574 L335 650 L36 346 L335 40 L410 117 L225 294 L624 294 L624 396 L225 396 Z " />
<glyph glyph-name="arrowup" unicode="&#x2191;" horiz-adv-x="660" d="M330 726 L25 427 L101 352 L279 537 L279 0 L381 0 L381 537 L559 352 L635 427 L330 726 Z " />
<glyph glyph-name="arrowright" unicode="&#x2192;" horiz-adv-x="660" d="M250 574 L435 396 L36 396 L36 294 L435 294 L250 117 L325 40 L624 346 L325 650 L250 574 Z " />
<glyph glyph-name="arrowdown" unicode="&#x2193;" horiz-adv-x="660" d="M381 162 L381 699 L279 699 L279 162 L101 347 L25 272 L330 -27 L635 272 L559 347 L381 162 Z " />
<glyph glyph-name="uni2196" unicode="&#x2196;" horiz-adv-x="660" d="M232 522 L493 522 L494 623 L65 623 L65 192 L165 193 L165 453 L544 70 L617 142 L232 522 Z " />
<glyph glyph-name="uni2197" unicode="&#x2197;" horiz-adv-x="660" d="M167 522 L428 522 L43 142 L116 70 L495 453 L495 193 L595 192 L595 623 L166 623 L167 522 Z " />
<glyph glyph-name="uni2198" unicode="&#x2198;" horiz-adv-x="660" d="M495 247 L116 630 L43 558 L428 178 L167 178 L166 77 L595 77 L595 508 L495 507 L495 247 Z " />
<glyph glyph-name="uni2199" unicode="&#x2199;" horiz-adv-x="660" d="M617 558 L544 630 L165 247 L165 507 L65 508 L65 77 L494 77 L493 178 L232 178 L617 558 Z " />
<glyph glyph-name="emptyset" unicode="&#x2205;" horiz-adv-x="660" d="M568 529 L497 460 C450 496 394 514 330 514 C254 514 191 490 141 441 C91 392 66 329 66 253 C66 190 83 136 118 91 L49 24 L93 -26 L164 43 C211 8 266 -10 330 -10 C406 -10 469 15 519 64 C569 113 594 176 594 253 C594 314 577 367 543 413 L612 480 L568 529 Z M178 253 C178 301 192 341 221 372 C249 403 285 419 330 419 C365 419 395 408 422 387 L197 168 C184 193 178 222 178 253 L178 253 Z M481 253 C481 204 467 164 439 133 C410 101 374 85 330 85 C295 85 264 95 238 116 L463 335 C475 311 481 284 481 253 L481 253 Z " />
<glyph glyph-name="minus" unicode="&#x2212;" horiz-adv-x="660" d="M81 301 L578 301 L578 390 L81 390 L81 301 Z " />
<glyph glyph-name="approxequal" unicode="&#x2248;" horiz-adv-x="660" d="M163 380 C163 413 183 434 216 434 C231 434 267 425 325 408 C382 391 425 382 452 382 C521 382 579 425 579 520 L498 520 C498 485 478 466 446 466 C431 466 394 475 337 492 C279 509 237 518 210 518 C139 518 82 475 82 380 L163 380 Z M163 179 C163 214 184 234 216 234 C231 234 267 225 325 208 C382 191 425 182 452 182 C521 182 579 225 579 320 L498 320 C498 287 478 265 446 265 C431 265 394 274 337 291 C279 308 237 317 210 317 C139 317 82 274 82 179 L163 179 Z " />
<glyph glyph-name="notequal" unicode="&#x2260;" horiz-adv-x="660" d="M578 491 L435 491 L493 610 L396 610 L338 491 L81 491 L81 408 L297 408 L232 276 L81 276 L81 193 L191 193 L135 78 L232 78 L288 193 L578 193 L578 276 L329 276 L394 408 L578 408 L578 491 Z " />
<glyph glyph-name="lessequal" unicode="&#x2264;" horiz-adv-x="660" d="M84 414 L84 332 L573 155 L573 248 L192 371 L573 496 L573 591 L84 414 Z M573 79 L84 79 L84 0 L573 0 L573 79 Z " />
<glyph glyph-name="greaterequal" unicode="&#x2265;" horiz-adv-x="660" d="M87 496 L468 371 L87 250 L87 155 L576 332 L576 414 L87 591 L87 496 Z M576 0 L576 79 L87 79 L87 0 L576 0 Z " />
<glyph glyph-name="uni25AA" unicode="&#x25aa;" horiz-adv-x="660" d="M206 225 L454 225 L454 475 L206 475 L206 225 Z " />
<glyph glyph-name="uni25AB" unicode="&#x25ab;" horiz-adv-x="660" d="M206 228 L454 228 L454 474 L206 474 L206 228 Z M382 406 L382 296 L278 296 L278 406 L382 406 Z " />
<glyph glyph-name="triagup" unicode="&#x25b2;" horiz-adv-x="660" d="M330 709 L-92 0 L752 0 L330 709 Z " />
<glyph glyph-name="uni25B4" unicode="&#x25b4;" horiz-adv-x="660" d="M330 481 L180 228 L480 228 L330 481 Z " />
<glyph glyph-name="uni25B8" unicode="&#x25b8;" horiz-adv-x="660" d="M470 361 L217 511 L217 211 L470 361 Z " />
<glyph glyph-name="triagrt" unicode="&#x25ba;" horiz-adv-x="660" d="M40 -7 L641 350 L40 707 L40 -7 Z " />
<glyph glyph-name="triagdn" unicode="&#x25bc;" horiz-adv-x="660" d="M-92 700 L330 -9 L752 700 L-92 700 Z " />
<glyph glyph-name="uni25BE" unicode="&#x25be;" horiz-adv-x="660" d="M180 481 L330 228 L480 481 L180 481 Z " />
<glyph glyph-name="uni25C2" unicode="&#x25c2;" horiz-adv-x="660" d="M443 511 L190 361 L443 211 L443 511 Z " />
<glyph glyph-name="triaglf" unicode="&#x25c4;" horiz-adv-x="660" d="M19 350 L620 -7 L620 707 L19 350 Z " />
<glyph glyph-name="fi" unicode="&#xfb01;" horiz-adv-x="660" d="M245 504 L245 506 C245 581 274 624 369 624 C399 624 442 618 497 607 L497 703 C448 712 407 716 374 716 C213 716 135 634 135 507 L135 504 L27 504 L27 409 L135 409 L135 0 L245 0 L245 409 L458 409 L458 0 L568 0 L568 504 L245 504 Z " />
</font>
</svg>
