<svg xmlns="http://www.w3.org/2000/svg" viewBox="0 0 3840 2160"><title>Artboard 1</title><g id="BG"><rect width="3840" height="2160" fill="#a80010"/></g><g id="logo"><path id="layer1" d="M1590.69,1052.94a91.75,91.75,0,0,0-4.49-28.1l0-.15c2.3-1.12,6.94-3.52,11.63-6,5.1-2.75,10.65-5.3,13.46-5.86,3.67-.72,7.09.35,9.18,3.52,2-3.17,5.5-4.29,9.18-3.52,2.85.56,8.41,3.16,13.46,5.86,4.69,2.5,9.33,4.9,11.62,6l.06.15a87.37,87.37,0,0,0-.11,55l0,.15a84.58,84.58,0,0,0-34.06,22.39h-.15a84.64,84.64,0,0,0-34.12-22.39l0-.15A93.48,93.48,0,0,0,1590.69,1052.94Zm47.88-29.63c-3.93-1.94-8-3.82-10.2-4.28a7,7,0,0,0-7.8,4.49l-.1.4-.11-.4a7,7,0,0,0-7.75-4.49c-2.19.46-6.27,2.29-10.2,4.28s-7.59,3.93-9.22,4.74a81.35,81.35,0,0,1,3.51,23.26h5.56v-4.18h12.65v-12.6h11v12.6h12.6v4.18h5.81a81,81,0,0,1,3.47-23.26c-1.63-.81-5.36-2.8-9.23-4.74m-18.1,70.78c7.59-7.14,17-14.07,27.23-17.64a94,94,0,0,1-2.66-13.31c-.56-4.44-.66-8.57-.76-9.18h-5.81v4.18h-12.6v12.59h-11v-12.59h-12.65V1054h-5.61a94.81,94.81,0,0,1-3.41,22.54c10.3,3.52,19.68,10.45,27.28,17.59" fill="#fff"/><path id="path2429" d="M1709,1068.69l9.82-26.58c.58-1.75-.24-3.1-3.45-3.56v-2.34H1730v2.34c-2.57.11-4.73.58-5.9,3.79l-14.54,38h-3.22l-16.18-38.27a5,5,0,0,0-5.08-3.45v-2.45H1702v2.34c-2.68.46-3.44,2-3.09,3.09Zm49.31,4.79c0,1.4.7,2.11,2.11,2.75a12.32,12.32,0,0,0,2.86.82v2.22h-17.35v-2.22a17.19,17.19,0,0,0,3.09-.94,2.82,2.82,0,0,0,1.87-2.74v-31.43c0-2.34-3-3.33-5-3.57v-2.22h17.35v2.22c-2.34.47-5,.94-5,3.68Zm57.45-37.27.24,12h-2.22a16.77,16.77,0,0,0-2.22-5.78c-1.52-2-3.8-3-7.07-3-11,0-12,11-12,18s1.29,18.41,12.86,18.17a17.13,17.13,0,0,0,12.38-6.72l.35-.46,2.34,1.75-.12.23a19.81,19.81,0,0,1-16.53,9.7c-13.73,0-20.68-12.15-20.68-22.32,0-8.23,5.08-22.55,18.17-22.55a25.17,25.17,0,0,1,12,2.81l.47-2h2Zm42.54,4.62v32.36c0,1.52,1,2.69,2.74,3.33a9.78,9.78,0,0,0,2.81.58v2.22h-18v-2.22a12.38,12.38,0,0,0,3.21-.7,3.45,3.45,0,0,0,2.34-3.33l-.12-32.24h-5.67c-3.44,0-4.5,1.4-5.08,3a11.17,11.17,0,0,0-.58,3.92l-2.46-.12v-11.33h34.82v11.45h-2.57a12.43,12.43,0,0,0-.93-4.5,3.93,3.93,0,0,0-3.8-2.34h-6.66Zm70.73,17.35c-.23,11.33-7.77,22.2-20.1,22.2-12.5,0-20.56-9.94-20.79-22.44-.24-11.68,7.77-22.66,20.68-22.66,12.56,0,20.44,11.21,20.21,22.9m-31.72-.71c-.24,8.88,2.74,18.41,11.45,18.41,9.11,0,11.33-9.82,11.1-18.64-.24-8.64-1.64-17.58-11.1-17.58-9.82-.06-11.34,9-11.45,17.81m89.73,21.85h-10.51l-9.35-16.18h-7.42v10.28c0,1.64,1.17,3.22,5.32,3.68l.12,2.22H1947V1077a8.43,8.43,0,0,0,3.33-.7,3.41,3.41,0,0,0,2.1-3v-30.62c0-2.86-3-3.91-5.9-4.26v-2.22h20.68c7.19,0,16,4.85,16,13.09,0,4.26-1.87,10.39-8.88,12.61l7.07,11.69a6.73,6.73,0,0,0,5.55,3.45Zm-22.66-38.79c-.35,0-2,.12-4.5.35v18.29h7.3c5.44-.35,7.66-3.21,7.66-9.7.05-7.94-4.8-8.94-10.46-8.94m55.93,33c0,1.4.7,2.11,2.1,2.75a12.54,12.54,0,0,0,2.87.82v2.22h-17.36v-2.22a17,17,0,0,0,3.1-.94,2.84,2.84,0,0,0,1.87-2.74v-31.43c0-2.34-2.92-3.33-5-3.57v-2.22h17.36v2.22c-2.34.47-5,.94-5,3.68Zm67,5.84h-1.63l-27.29-31.78v25.88a3.79,3.79,0,0,0,1.87,2.87,6.68,6.68,0,0,0,3.22.81v2.22H2049v-2.22a10.16,10.16,0,0,0,2.45-.58,3.25,3.25,0,0,0,2.46-3.1v-30.84a7.36,7.36,0,0,0-6.14-4.15v-2.22H2059l23.72,28.22v-22.32c0-2.34-2.81-3.68-5-3.68v-2.22h14.67v2.22c-2.46.23-5.09.93-5.09,3.56v37.33Zm62.75-21.26c-.24,11.33-7.77,22.2-20.21,22.2s-20.57-9.93-20.8-22.43c-.12-11.69,7.88-22.67,20.68-22.67s20.56,11.22,20.33,22.9m-31.9-.7c-.12,8.88,2.69,18.4,11.57,18.4s11.33-9.81,11.1-18.64c-.24-8.64-1.75-17.58-11.1-17.58-9.82-.18-11.45,9.06-11.57,17.82m70.75-1.58,11.1,16.65a10.41,10.41,0,0,0,3.56,3.45,7.77,7.77,0,0,0,3.22,1.17v2.22h-18.46v-2.22a12.47,12.47,0,0,0,2.86-.71c1.05-.46,1.4-1.75.47-3l-7.42-11.22-8.53,11.45c-1.52,1.75-.24,3.21,1.87,3.45v2.22h-13.73v-2.34c3.21-.47,4.38-1.75,5.78-3.68l11.57-15.6L2171,1042.4a8.58,8.58,0,0,0-6.72-4v-2.22H2183v2.22c-2.1.24-5.2.94-3.68,3.45l6.49,9.7,7.3-9.7c1.52-1.87.35-3.33-2-3.45v-2.22H2205v2.22a6.6,6.6,0,0,0-4.73,2.34L2189,1055.78" fill="#fff"/></g></svg>